<?xml version="1.0" standalone="no"?>
<!DOCTYPE svg PUBLIC "-//W3C//DTD SVG 1.1//EN" "http://www.w3.org/Graphics/SVG/1.1/DTD/svg11.dtd" >
<svg xmlns="http://www.w3.org/2000/svg" xmlns:xlink="http://www.w3.org/1999/xlink" version="1.1">
<metadata>
Created by FontForge 20201107 at Wed Oct 11 13:03:53 2023
 By 
Copyright 2022 The Rethink Sans Project Authors (https://github.com/hans-thiessen/Rethink-Sans)
</metadata>
<defs>
<font id="RethinkSans-ExtraBold" horiz-adv-x="0" >
  <font-face 
    font-family="Rethink Sans ExtraBold"
    font-weight="800"
    font-stretch="normal"
    units-per-em="1000"
    panose-1="0 0 0 0 0 0 0 0 0 0"
    ascent="800"
    descent="-200"
    x-height="496"
    cap-height="700"
    bbox="-230 -298 4821 980"
    underline-thickness="50"
    underline-position="-125"
    unicode-range="U+000D-FB02"
  />
<missing-glyph horiz-adv-x="529" 
d="M64 0v700h401v-700h-401zM134 57h261v586h-261v-586z" />
    <glyph glyph-name="uni018E" unicode="E&#x3c;" horiz-adv-x="540" 
d="M34 0v136h302v165h-255v136h255v127h-302v136h459v-700h-459z" />
    <glyph glyph-name="Yacy" unicode="R&#x3c;" horiz-adv-x="610" 
d="M3 0l191 309q-66 20 -104.5 67t-38.5 117q0 64 31 110.5t86.5 71.5t126.5 25h267v-700h-157v285h-53l-166 -285h-183zM299 419h106v146h-106q-37 0 -56 -11t-25.5 -27.5t-6.5 -33.5t6.5 -34t25.5 -28.5t56 -11.5z" />
    <glyph glyph-name="arrowleft" unicode="&#x3c;&#x2d;&#x2d;" horiz-adv-x="821" 
d="M273 119l-229 231l229 231l82 -83l-48 -48l-42 -38h492v-123h-492l42 -39l48 -47z" />
    <glyph glyph-name="arrowup" unicode="&#x3c;&#x2d;&#x2d;&#x2d;" horiz-adv-x="509" 
d="M193 1v490l-38 -42l-48 -48l-83 82l231 229l229 -229l-82 -82l-49 48l-37 42v-490h-123z" />
    <glyph glyph-name="arrowright" unicode="&#x2d;&#x2d;&#x3e;" horiz-adv-x="821" 
d="M548 119l-82 84l48 47l42 39h-492v123h492l-42 38l-48 48l82 83l229 -231z" />
    <glyph glyph-name="arrowdown" unicode="&#x2d;&#x2d;&#x2d;&#x3e;" horiz-adv-x="509" 
d="M254 -12l-229 229l82 82l49 -48l37 -42v491h123v-491l38 42l48 48l83 -82z" />
    <glyph glyph-name="uni24EA" unicode="&#x28;&#x30;&#x29;" horiz-adv-x="778" 
d="M389 -12q-75 0 -140.5 28t-115.5 78t-78 115.5t-28 140.5t28 140.5t78 115.5t115.5 78t140.5 28t140.5 -28t115.5 -78t78 -115.5t28 -140.5t-28 -140.5t-78 -115.5t-115.5 -78t-140.5 -28zM389 66q63 0 115 20.5t90 58.5t58.5 90t20.5 115t-20.5 115t-58.5 90t-90 58.5
t-115 20.5t-114.5 -20.5t-89.5 -58.5t-58.5 -90t-20.5 -115t20.5 -115t58.5 -90t89.5 -58.5t114.5 -20.5zM391 165q-71 0 -104 51q-16 25 -23.5 58.5t-7.5 75.5t7.5 75.5t23.5 58.5q33 51 104 51q67 0 102 -50q31 -51 31 -135t-31 -135q-35 -50 -102 -50zM391 245
q22 0 32 28q5 14 8 33t3 44t-3 44.5t-8 32.5q-10 27 -32 27q-24 0 -35 -27q-10 -26 -10 -77t10 -77q12 -28 35 -28z" />
    <glyph glyph-name="uni2780" unicode="&#x28;&#x31;&#x29;" horiz-adv-x="778" 
d="M389 -12q-75 0 -140.5 28t-115.5 78t-78 115.5t-28 140.5t28 140.5t78 115.5t115.5 78t140.5 28t140.5 -28t115.5 -78t78 -115.5t28 -140.5t-28 -140.5t-78 -115.5t-115.5 -78t-140.5 -28zM389 66q63 0 115 20.5t90 58.5t58.5 90t20.5 115t-20.5 115t-58.5 90t-90 58.5
t-115 20.5t-114.5 -20.5t-89.5 -58.5t-58.5 -90t-20.5 -115t20.5 -115t58.5 -90t89.5 -58.5t114.5 -20.5zM278 176v80h81v177l-76 -11v72l113 39h47v-277h79v-80h-244z" />
    <glyph glyph-name="uni2781" unicode="&#x28;&#x32;&#x29;" horiz-adv-x="778" 
d="M389 -12q-75 0 -140.5 28t-115.5 78t-78 115.5t-28 140.5t28 140.5t78 115.5t115.5 78t140.5 28t140.5 -28t115.5 -78t78 -115.5t28 -140.5t-28 -140.5t-78 -115.5t-115.5 -78t-140.5 -28zM389 66q63 0 115 20.5t90 58.5t58.5 90t20.5 115t-20.5 115t-58.5 90t-90 58.5
t-115 20.5t-114.5 -20.5t-89.5 -58.5t-58.5 -90t-20.5 -115t20.5 -115t58.5 -90t89.5 -58.5t114.5 -20.5zM261 176v59l99 101l27 27t28 33t12 30q0 19 -9 28.5t-29 9.5q-24 0 -33 -16t-9 -32h-86q1 48 19.5 75t48.5 38t63 11q32 0 59.5 -11.5t45 -35t17.5 -61.5
q0 -32 -16 -59t-39 -50.5t-45 -45.5l-24 -21h131v-80h-260z" />
    <glyph glyph-name="uni2782" unicode="&#x28;&#x33;&#x29;" horiz-adv-x="778" 
d="M389 -12q-75 0 -140.5 28t-115.5 78t-78 115.5t-28 140.5t28 140.5t78 115.5t115.5 78t140.5 28t140.5 -28t115.5 -78t78 -115.5t28 -140.5t-28 -140.5t-78 -115.5t-115.5 -78t-140.5 -28zM389 66q63 0 115 20.5t90 58.5t58.5 90t20.5 115t-20.5 115t-58.5 90t-90 58.5
t-115 20.5t-114.5 -20.5t-89.5 -58.5t-58.5 -90t-20.5 -115t20.5 -115t58.5 -90t89.5 -58.5t114.5 -20.5zM390 158q-57 0 -95.5 31.5t-36.5 88.5h84q0 -20 13.5 -31t34.5 -11q23 0 35.5 11.5t12.5 32.5t-14.5 32.5t-33.5 11.5q-7 0 -15 -2.5t-22 -11.5l-48 56l90 78h-128v78
h243v-69l-73 -60q41 -12 63 -41t22 -70q0 -55 -35.5 -89.5t-96.5 -34.5z" />
    <glyph glyph-name="uni2783" unicode="&#x28;&#x34;&#x29;" horiz-adv-x="778" 
d="M389 -12q-75 0 -140.5 28t-115.5 78t-78 115.5t-28 140.5t28 140.5t78 115.5t115.5 78t140.5 28t140.5 -28t115.5 -78t78 -115.5t28 -140.5t-28 -140.5t-78 -115.5t-115.5 -78t-140.5 -28zM398 176v56h-164v74l116 227h88l-109 -224h76v83h84v-83h30v-77h-30v-56h-91z
M389 66q63 0 115 20.5t90 58.5t58.5 90t20.5 115t-20.5 115t-58.5 90t-90 58.5t-115 20.5t-114.5 -20.5t-89.5 -58.5t-58.5 -90t-20.5 -115t20.5 -115t58.5 -90t89.5 -58.5t114.5 -20.5z" />
    <glyph glyph-name="uni2784" unicode="&#x28;&#x35;&#x29;" horiz-adv-x="778" 
d="M389 -12q-75 0 -140.5 28t-115.5 78t-78 115.5t-28 140.5t28 140.5t78 115.5t115.5 78t140.5 28t140.5 -28t115.5 -78t78 -115.5t28 -140.5t-28 -140.5t-78 -115.5t-115.5 -78t-140.5 -28zM389 66q63 0 115 20.5t90 58.5t58.5 90t20.5 115t-20.5 115t-58.5 90t-90 58.5
t-115 20.5t-114.5 -20.5t-89.5 -58.5t-58.5 -90t-20.5 -115t20.5 -115t58.5 -90t89.5 -58.5t114.5 -20.5zM391 160q-55 0 -92 27.5t-43 88.5h87q3 -18 16.5 -28t31.5 -10q20 0 34 15t14 40q0 23 -13 37t-34 14q-17 0 -29 -7.5t-22 -28.5h-82l33 216h208v-78h-141l-9 -44
q11 7 24.5 10.5t32.5 3.5q37 0 62.5 -16.5t39.5 -44t14 -62.5q0 -57 -36.5 -95t-95.5 -38z" />
    <glyph glyph-name="uni2785" unicode="&#x28;&#x36;&#x29;" horiz-adv-x="778" 
d="M389 -12q-75 0 -140.5 28t-115.5 78t-78 115.5t-28 140.5t28 140.5t78 115.5t115.5 78t140.5 28t140.5 -28t115.5 -78t78 -115.5t28 -140.5t-28 -140.5t-78 -115.5t-115.5 -78t-140.5 -28zM389 66q63 0 115 20.5t90 58.5t58.5 90t20.5 115t-20.5 115t-58.5 90t-90 58.5
t-115 20.5t-114.5 -20.5t-89.5 -58.5t-58.5 -90t-20.5 -115t20.5 -115t58.5 -90t89.5 -58.5t114.5 -20.5zM394 243q18 0 30.5 12.5t12.5 32.5t-12 33t-32 13q-19 0 -31.5 -12.5t-12.5 -32.5q0 -19 13 -32.5t32 -13.5zM396 165q-49 0 -80 24.5t-45.5 64t-14.5 84.5
q0 46 13 91.5t43.5 75.5t81.5 30q37 0 62 -14t39.5 -38.5t17.5 -55.5h-82q-3 17 -12 24.5t-24 7.5q-16 0 -27.5 -10.5t-18 -27.5t-9.5 -38q14 14 30.5 20t34.5 6q22 0 48.5 -10.5t45.5 -36.5t19 -73q0 -34 -15 -62t-42 -45t-65 -17z" />
    <glyph glyph-name="uni2786" unicode="&#x28;&#x37;&#x29;" horiz-adv-x="778" 
d="M389 -12q-75 0 -140.5 28t-115.5 78t-78 115.5t-28 140.5t28 140.5t78 115.5t115.5 78t140.5 28t140.5 -28t115.5 -78t78 -115.5t28 -140.5t-28 -140.5t-78 -115.5t-115.5 -78t-140.5 -28zM301 167l130 280h-177v77h275v-63l-135 -294h-93zM389 66q63 0 115 20.5t90 58.5
t58.5 90t20.5 115t-20.5 115t-58.5 90t-90 58.5t-115 20.5t-114.5 -20.5t-89.5 -58.5t-58.5 -90t-20.5 -115t20.5 -115t58.5 -90t89.5 -58.5t114.5 -20.5z" />
    <glyph glyph-name="uni2787" unicode="&#x28;&#x38;&#x29;" horiz-adv-x="778" 
d="M389 -12q-75 0 -140.5 28t-115.5 78t-78 115.5t-28 140.5t28 140.5t78 115.5t115.5 78t140.5 28t140.5 -28t115.5 -78t78 -115.5t28 -140.5t-28 -140.5t-78 -115.5t-115.5 -78t-140.5 -28zM389 242q20 0 32 9.5t12 29.5t-10.5 30.5t-33.5 10.5q-20 0 -30.5 -10.5
t-10.5 -30.5t11.5 -29.5t29.5 -9.5zM389 66q63 0 115 20.5t90 58.5t58.5 90t20.5 115t-20.5 115t-58.5 90t-90 58.5t-115 20.5t-114.5 -20.5t-89.5 -58.5t-58.5 -90t-20.5 -115t20.5 -115t58.5 -90t89.5 -58.5t114.5 -20.5zM390 165q-35 0 -65 13.5t-48.5 37.5t-18.5 57
q0 31 11 53t39 39q-20 15 -29.5 32t-9.5 42q0 47 34.5 71.5t86.5 24.5q25 0 52.5 -8t47.5 -29t20 -59q0 -33 -15 -50.5t-26 -23.5q31 -17 42 -39t11 -53q0 -35 -18.5 -59t-48.5 -36.5t-65 -12.5zM389 393q17 0 26 9.5t9 22.5q0 16 -8.5 25.5t-26.5 9.5q-34 0 -34 -35
q0 -13 9 -22.5t25 -9.5z" />
    <glyph glyph-name="uni2788" unicode="&#x28;&#x39;&#x29;" horiz-adv-x="778" 
d="M389 -12q-75 0 -140.5 28t-115.5 78t-78 115.5t-28 140.5t28 140.5t78 115.5t115.5 78t140.5 28t140.5 -28t115.5 -78t78 -115.5t28 -140.5t-28 -140.5t-78 -115.5t-115.5 -78t-140.5 -28zM389 66q63 0 115 20.5t90 58.5t58.5 90t20.5 115t-20.5 115t-58.5 90t-90 58.5
t-115 20.5t-114.5 -20.5t-89.5 -58.5t-58.5 -90t-20.5 -115t20.5 -115t58.5 -90t89.5 -58.5t114.5 -20.5zM386 165q-36 0 -61.5 14t-39.5 38.5t-18 55.5h82q3 -16 12 -24t24 -8q17 0 28 10.5t18 27.5t9 38q-14 -13 -30.5 -19.5t-34.5 -6.5q-22 0 -48.5 10.5t-45.5 37
t-19 72.5q0 34 15 62t42.5 45t64.5 17q50 0 80.5 -24.5t45 -64t14.5 -84.5q0 -46 -13 -91.5t-43.5 -75.5t-81.5 -30zM387 366q19 0 31.5 12.5t12.5 32.5t-12.5 33t-32.5 13q-18 0 -30.5 -12.5t-12.5 -32.5t12.5 -33t31.5 -13z" />
    <glyph glyph-name="uni278A" unicode="&#x7b;&#x31;&#x7d;" horiz-adv-x="778" 
d="M389 -12q-75 0 -140.5 28t-115.5 78t-78 115.5t-28 140.5t28 140.5t78 115.5t115.5 78t140.5 28t140.5 -28t115.5 -78t78 -115.5t28 -140.5t-28 -140.5t-78 -115.5t-115.5 -78t-140.5 -28zM278 176h244v80h-79v277h-47l-113 -39v-72l76 11v-177h-81v-80z" />
    <glyph glyph-name="uni278B" unicode="&#x7b;&#x32;&#x7d;" horiz-adv-x="778" 
d="M389 -12q-75 0 -140.5 28t-115.5 78t-78 115.5t-28 140.5t28 140.5t78 115.5t115.5 78t140.5 28t140.5 -28t115.5 -78t78 -115.5t28 -140.5t-28 -140.5t-78 -115.5t-115.5 -78t-140.5 -28zM261 176h260v80h-131l24 21q22 22 45 45.5t39 50.5t16 59q0 38 -17.5 61.5
t-45 35t-59.5 11.5q-33 0 -63 -11t-48.5 -38t-19.5 -75h86q0 16 9 32t33 16q20 0 29 -9.5t9 -28.5q0 -13 -12 -30t-28 -33l-27 -27l-99 -101v-59z" />
    <glyph glyph-name="uni278C" unicode="&#x7b;&#x33;&#x7d;" horiz-adv-x="778" 
d="M389 -12q-75 0 -140.5 28t-115.5 78t-78 115.5t-28 140.5t28 140.5t78 115.5t115.5 78t140.5 28t140.5 -28t115.5 -78t78 -115.5t28 -140.5t-28 -140.5t-78 -115.5t-115.5 -78t-140.5 -28zM390 158q61 0 96.5 34.5t35.5 89.5q0 41 -22 70t-63 41l73 60v69h-243v-78h128
l-90 -78l48 -56q14 9 22 11.5t15 2.5q19 0 33.5 -11.5t14.5 -32.5t-12.5 -32.5t-35.5 -11.5q-21 0 -34.5 11t-13.5 31h-84q-2 -57 36.5 -88.5t95.5 -31.5z" />
    <glyph glyph-name="uni278D" unicode="&#x7b;&#x34;&#x7d;" horiz-adv-x="778" 
d="M389 -12q-75 0 -140.5 28t-115.5 78t-78 115.5t-28 140.5t28 140.5t78 115.5t115.5 78t140.5 28t140.5 -28t115.5 -78t78 -115.5t28 -140.5t-28 -140.5t-78 -115.5t-115.5 -78t-140.5 -28zM398 176h91v56h30v77h-30v83h-84v-83h-76l109 224h-88l-116 -227v-74h164v-56z
" />
    <glyph glyph-name="uni278E" unicode="&#x7b;&#x35;&#x7d;" horiz-adv-x="778" 
d="M389 -12q-75 0 -141 28t-115.5 78t-77.5 115.5t-28 140.5t28 140.5t77.5 115.5t115.5 78t141 28t140.5 -28t115.5 -78t78 -115.5t28 -140.5t-28 -140.5t-78 -115.5t-115.5 -78t-140.5 -28zM391 160q59 0 95.5 38t36.5 95q0 35 -14 62.5t-39.5 44t-62.5 16.5
q-19 0 -32.5 -3.5t-24.5 -10.5l9 44h141v78h-208l-33 -216h82q10 21 22 28.5t29 7.5q21 0 34 -14t13 -37q0 -25 -14 -40t-34 -15q-18 0 -31.5 10t-16.5 28h-87q6 -61 43 -88.5t92 -27.5z" />
    <glyph glyph-name="uni278F" unicode="&#x7b;&#x36;&#x7d;" horiz-adv-x="778" 
d="M389 -12q-75 0 -140.5 28t-115.5 78t-78 115.5t-28 140.5t28 140.5t78 115.5t115.5 78t140.5 28t140.5 -28t115.5 -78t78 -115.5t28 -140.5t-28 -140.5t-78 -115.5t-115.5 -78t-140.5 -28zM394 243q-19 0 -32 13.5t-13 32.5q0 20 12.5 32.5t31.5 12.5q20 0 32 -13t12 -33
t-12.5 -32.5t-30.5 -12.5zM396 165q38 0 65 17t42 45t15 62q0 47 -19 73t-45.5 36.5t-48.5 10.5q-18 0 -34.5 -6t-30.5 -20q3 21 9.5 38t18 27.5t27.5 10.5q15 0 24 -7.5t12 -24.5h82q-3 31 -17.5 55.5t-39.5 38.5t-62 14q-51 0 -81.5 -30t-43.5 -75.5t-13 -91.5
q0 -45 14.5 -84.5t45.5 -64t80 -24.5z" />
    <glyph glyph-name="uni2790" unicode="&#x7b;&#x37;&#x7d;" horiz-adv-x="778" 
d="M389 -12q-75 0 -140.5 28t-115.5 78t-78 115.5t-28 140.5t28 140.5t78 115.5t115.5 78t140.5 28t140.5 -28t115.5 -78t78 -115.5t28 -140.5t-28 -140.5t-78 -115.5t-115.5 -78t-140.5 -28zM301 167h93l135 294v63h-275v-77h177z" />
    <glyph glyph-name="uni2791" unicode="&#x7b;&#x38;&#x7d;" horiz-adv-x="778" 
d="M389 -12q-75 0 -140.5 28t-115.5 78t-78 115.5t-28 140.5t28 140.5t78 115.5t115.5 78t140.5 28t140.5 -28t115.5 -78t78 -115.5t28 -140.5t-28 -140.5t-78 -115.5t-115.5 -78t-140.5 -28zM390 165q35 0 65 12.5t48.5 36.5t18.5 59q0 31 -11 53t-42 39q11 6 26 23.5
t15 50.5q0 38 -20 59t-47.5 29t-52.5 8q-52 0 -86.5 -24.5t-34.5 -71.5q0 -25 9.5 -42t29.5 -32q-28 -17 -39 -39t-11 -53q0 -33 18.5 -57t48.5 -37.5t65 -13.5zM389 242q-18 0 -29.5 9.5t-11.5 29.5t10.5 30.5t30.5 10.5q23 0 33.5 -10.5t10.5 -30.5t-12 -29.5t-32 -9.5z
M389 393q-16 0 -25 9.5t-9 22.5q0 35 34 35q18 0 26.5 -9.5t8.5 -25.5q0 -13 -9 -22.5t-26 -9.5z" />
    <glyph glyph-name="uni2792" unicode="&#x7b;&#x39;&#x7d;" horiz-adv-x="778" 
d="M389 -12q-75 0 -140.5 28t-115.5 78t-78 115.5t-28 140.5t28 140.5t78 115.5t115.5 78t140.5 28t140.5 -28t115.5 -78t78 -115.5t28 -140.5t-28 -140.5t-78 -115.5t-115.5 -78t-140.5 -28zM386 165q51 0 81.5 30t43.5 75.5t13 91.5q0 45 -14.5 84.5t-45 64t-80.5 24.5
q-37 0 -64.5 -17t-42.5 -45t-15 -62q0 -46 19 -72.5t45.5 -37t48.5 -10.5q18 0 34.5 6.5t30.5 19.5q-2 -21 -9 -38t-18 -27.5t-28 -10.5q-15 0 -24 8t-12 24h-82q4 -31 18 -55.5t39.5 -38.5t61.5 -14zM387 366q-19 0 -31.5 13t-12.5 33t12.5 32.5t30.5 12.5q20 0 32.5 -13
t12.5 -33t-12.5 -32.5t-31.5 -12.5z" />
    <glyph glyph-name="fi" unicode="fi" horiz-adv-x="542" 
d="M63 0v367h-56v129h56v19q0 102 51.5 143.5t135.5 41.5h51v-134h-28q-29 0 -42 -11.5t-13 -37.5v-21h83v-129h-83v-367h-155zM356 0v496h154v-496h-154zM433 540q-39 0 -67 28t-28 67t28 67t67 28q41 0 68 -28t27 -67t-27 -67t-68 -28z" />
    <glyph glyph-name="fl" unicode="fl" horiz-adv-x="542" 
d="M63 0v367h-56v129h56v19q0 102 51.5 143.5t135.5 41.5h51v-134h-28q-29 0 -42 -11.5t-13 -37.5v-21h83v-129h-83v-367h-155zM360 0v700h154v-700h-154z" />
    <glyph glyph-name="zero.circled.solid" unicode="&#x7b;&#x30;&#x7d;" horiz-adv-x="778" 
d="M389 -12q-75 0 -140.5 28t-115.5 78t-78 115.5t-28 140.5t28 140.5t78 115.5t115.5 78t140.5 28t140.5 -28t115.5 -78t78 -115.5t28 -140.5t-28 -140.5t-78 -115.5t-115.5 -78t-140.5 -28zM391 165q67 0 102 50q31 51 31 135t-31 135q-35 50 -102 50q-71 0 -104 -51
q-16 -25 -23.5 -58.5t-7.5 -75.5t7.5 -75.5t23.5 -58.5q33 -51 104 -51zM391 245q-23 0 -35 28q-10 26 -10 77t10 77q11 27 35 27q22 0 32 -27q5 -13 8 -32.5t3 -44.5t-3 -44t-8 -33q-10 -28 -32 -28z" />
    <glyph glyph-name="registered.case" unicode="&#xae;&#x2b;" horiz-adv-x="377" 
d="M189 629q-39 0 -72 19.5t-52.5 52t-19.5 71.5q0 40 19.5 72.5t52.5 52t72 19.5q40 0 72 -19.5t51.5 -52t19.5 -72.5q0 -39 -19.5 -71.5t-51.5 -52t-72 -19.5zM122 700q1 2 7 13t14 24.5t14 24l6 10.5q-29 10 -29 39q0 15 10 29.5t38 14.5h54v-155h-28v65h-18l-5 -9.5
t-12 -22t-12.5 -22.5t-5.5 -11h-33zM189 652q33 0 60.5 16.5t43.5 43.5t16 60t-16 60.5t-43.5 43.5t-60.5 16t-60 -16t-43.5 -43.5t-16.5 -60.5t16.5 -60t43.5 -43.5t60 -16.5zM189 789h19v43h-22q-25 0 -25 -21q0 -11 8 -16.5t20 -5.5z" />
    <glyph glyph-name="REbackwards" unicode="RE&#x3c;" horiz-adv-x="1150" 
d="M3 0l191 309q-66 20 -104.5 67t-38.5 117q0 64 31 110.5t86.5 71.5t126.5 25h267v-700h-157v285h-53l-166 -285h-183zM299 419h106v146h-106q-37 0 -56 -11t-25.5 -27.5t-6.5 -33.5t6.5 -34t25.5 -28.5t56 -11.5zM643 0v136h303v165h-255v136h255v127h-303v136h460v-700
h-460z" />
    <glyph glyph-name="RethinkWordmark" unicode="R&#x3e;" horiz-adv-x="4877" 
d="M3130 0v700h128l329 -489v489h128v-700h-128l-329 488v-488h-128zM22 0l195 316q-71 17 -110 63q-39 47 -39 119q0 96 65 149q67 53 175 53h243v-700h-128v295h-78l-172 -295h-151zM311 404h112v187h-112q-62 0 -87 -25q-26 -24 -26 -68q0 -43 25 -70q26 -24 88 -24z
M736 0v109h321v206h-275v109h275v167h-321v109h449v-700h-449zM1552 0v591h-204v109h537v-109h-205v-591h-128zM2042 0v700h128v-275h314v275h128v-700h-128v316h-314v-316h-128zM2807 0v700h128v-700h-128zM3909 0v700h128v-269l240 269h161l-244 -267l267 -433h-151
l-202 339l-71 -78v-261h-128zM4611 700l41 72q-29 11 -29 39q0 16 10 30t38 14h54v-155h-28v65h-18l-35 -65h-33zM4678 629q-41 0 -73.5 20t-51.5 52.5t-19 70.5q0 35 17.5 68t50 54.5t76.5 21.5q40 0 72.5 -19.5t51.5 -52t19 -72.5q0 -39 -19 -71.5t-51 -52t-73 -19.5z
M4678 652q33 0 60.5 16.5t43.5 43.5t16 60q0 34 -16 61t-43 43t-61 16q-33 0 -60 -16t-43.5 -43.5t-16.5 -60.5q0 -32 16.5 -59.5t44 -44t59.5 -16.5zM4678 789h19v43h-22q-25 0 -25 -21q0 -11 8.5 -16.5t19.5 -5.5z" />
    <glyph glyph-name="Rlogobig" unicode="&#x28;R&#x29;" horiz-adv-x="806" 
d="M403 -12q-75 0 -140.5 28t-115.5 78t-78 115.5t-28 140.5t28 140.5t78 115.5t115.5 78t140.5 28t140.5 -28t115.5 -78t78 -115.5t28 -140.5t-28 -140.5t-78 -115.5t-115.5 -78t-140.5 -28zM234 168q2 3 12.5 22t25.5 45.5t30 52.5t25 43.5l10 17.5q-33 11 -53.5 36
t-20.5 62q0 26 11 51.5t37.5 43t74.5 17.5h137v-391h-73v165h-45l-8.5 -16.5t-21.5 -40.5t-26 -48.5t-22 -41.5t-9 -18h-84zM403 47q63 0 117.5 23.5t96 65.5t65 96.5t23.5 117.5t-23.5 117.5t-65 96t-96 65t-117.5 23.5t-117.5 -23.5t-96.5 -65t-65.5 -96t-23.5 -117.5
t23.5 -117.5t65.5 -96.5t96.5 -65.5t117.5 -23.5zM404 392h46v109h-55q-27 0 -45 -14t-18 -40q0 -28 20.5 -41.5t51.5 -13.5z" />
    <glyph glyph-name=".notdef" horiz-adv-x="529" 
d="M64 0v700h401v-700h-401zM134 57h261v586h-261v-586z" />
    <glyph glyph-name=".null" 
 />
    <glyph glyph-name="nonmarkingreturn" horiz-adv-x="333" 
 />
    <glyph glyph-name="CR" unicode="&#xd;" horiz-adv-x="600" 
 />
    <glyph glyph-name="space" unicode=" " horiz-adv-x="210" 
 />
    <glyph glyph-name="exclam" unicode="!" horiz-adv-x="301" 
d="M82 239l-17 461h168l-18 -461h-133zM150 -17q-40 0 -67.5 28t-27.5 67t27.5 67t67.5 28q39 0 67 -28t28 -67t-28 -67t-67 -28z" />
    <glyph glyph-name="quotedbl" unicode="&#x22;" horiz-adv-x="513" 
d="M262 440l53 261h162l-110 -261h-105zM45 440l54 261h161l-110 -261h-105z" />
    <glyph glyph-name="numbersign" unicode="#" horiz-adv-x="891" 
d="M137 0l33 160h-146v142h177l29 135h-145v142h176l33 155h147l-34 -155h174l33 155h148l-32 -155h124v-142h-155l-29 -135h125v-142h-156l-33 -160h-149l35 160h-173l-34 -160h-148zM348 302h173l30 135h-173z" />
    <glyph glyph-name="dollar" unicode="$" horiz-adv-x="576" 
d="M250 -86v77q-62 7 -112 33.5t-80 73t-32 114.5h166q3 -26 17 -49t41 -34v159l-6 2q-80 27 -125 61.5t-63 74.5t-18 81q1 63 29 106.5t75.5 68t107.5 29.5v80h69v-81q60 -5 108 -30.5t77.5 -69t30.5 -105.5h-170q-1 20 -12 38.5t-34 28.5v-148l63 -22q41 -14 72.5 -32.5
t52.5 -43t32 -55.5t11 -70q0 -61 -29.5 -107.5t-81.5 -73.5t-120 -31v-75h-69zM319 123q31 5 46.5 23t15.5 44q0 14 -4 25.5t-17.5 23.5t-40.5 24v-140zM250 454v122q-21 -6 -34 -21.5t-13 -38.5q0 -19 12.5 -34t34.5 -28z" />
    <glyph glyph-name="percent" unicode="%" horiz-adv-x="938" 
d="M198 0l387 700h152l-387 -700h-152zM222 357q-49 0 -88 21.5t-63 61.5q-23 41 -23 95q0 55 23 94.5t62 61.5q39 21 90 21q48 0 86.5 -22t61.5 -60q12 -20 18.5 -43.5t6.5 -51.5q0 -55 -23.5 -95.5t-61.5 -60.5q-38 -22 -89 -22zM222 458q26 0 41.5 19.5t15.5 57.5t-16 58
t-42 20q-25 0 -40.5 -20t-15.5 -58t15.5 -57.5t41.5 -19.5zM712 -12q-49 0 -88 21.5t-63 61.5q-23 41 -23 95q0 55 23 94.5t62 61.5q39 21 90 21q48 0 86.5 -22t61.5 -60q12 -20 18.5 -43.5t6.5 -51.5q0 -55 -23.5 -95.5t-61.5 -60.5q-38 -22 -89 -22zM712 89
q26 0 41.5 19.5t15.5 57.5t-16 58t-42 20q-25 0 -40.5 -20t-15.5 -58t15.5 -57.5t41.5 -19.5z" />
    <glyph glyph-name="ampersand" unicode="&#x26;" horiz-adv-x="728" 
d="M291 -12q-45 0 -89 14t-80.5 41.5t-58 69.5t-21.5 98q0 39 9 71t26.5 57.5t41.5 42.5l11 8l-11 17q-16 26 -20.5 51t-4.5 49q0 63 30.5 109t82.5 71t116 25q65 0 116.5 -25t81 -72t29.5 -113h-157q0 10 -6 25.5t-21.5 28t-45.5 12.5q-25 0 -40 -10.5t-21.5 -25
t-6.5 -25.5q0 -29 22 -57.5t68 -74.5l111 -112l88 143h165l-153 -243l161 -163h-199l-50 50l-13 -11q-35 -29 -78 -40t-83 -11zM298 124q20 0 36.5 6.5t31.5 19.5l-140 141q-14 -13 -21.5 -30t-7.5 -36q0 -27 13.5 -50t36.5 -37t51 -14z" />
    <glyph glyph-name="quotesingle" unicode="'" horiz-adv-x="260" 
d="M30 439l53 261h162l-109 -261h-106z" />
    <glyph glyph-name="parenleft" unicode="(" horiz-adv-x="417" 
d="M233 -145q-58 59 -99 134t-66 161q-11 44 -17.5 89.5t-6.5 93.5q0 95 24.5 183t66.5 162q41 76 98 133h156v-15q-88 -98 -139.5 -216.5t-51.5 -246.5q0 -127 51 -246t140 -217v-15h-156z" />
    <glyph glyph-name="parenright" unicode=")" horiz-adv-x="417" 
d="M28 -145v15q89 98 140 217t51 246q0 128 -51 246.5t-140 216.5v15h156q29 -28 54 -61.5t46 -71.5q42 -74 65.5 -162t23.5 -183q0 -48 -5.5 -93.5t-17.5 -89.5q-24 -86 -66 -161t-100 -134h-156z" />
    <glyph glyph-name="asterisk" unicode="*" horiz-adv-x="513" 
d="M211 363v108l-95 -54l-45 81l93 54l-93 53l45 81l95 -55v109h92v-109l94 55l47 -81l-94 -53l94 -54l-47 -81l-94 54v-108h-92z" />
    <glyph glyph-name="plus" unicode="+" horiz-adv-x="600" 
d="M235 44v179h-186v131h186v180h132v-180h184v-131h-184v-179h-132z" />
    <glyph glyph-name="comma" unicode="," horiz-adv-x="265" 
d="M22 -114l56 268h149l-104 -268h-101z" />
    <glyph glyph-name="hyphen" unicode="-" horiz-adv-x="380" 
d="M51 223v131h277v-131h-277z" />
    <glyph glyph-name="period" unicode="." horiz-adv-x="230" 
d="M114 -12q-40 0 -67 28t-27 67t27 67t67 28t68 -28t28 -67t-28 -67t-68 -28z" />
    <glyph glyph-name="slash" unicode="/" horiz-adv-x="441" 
d="M20 -122l249 908h153l-251 -908h-151z" />
    <glyph glyph-name="zero" unicode="0" horiz-adv-x="560" 
d="M281 -12q-96 0 -154 48t-84 130t-26 184t26 184t84 130t154 48t153.5 -47t83.5 -129t26 -186t-26 -186t-83.5 -129t-153.5 -47zM281 128q54 0 79 59.5t25 162.5t-25 162.5t-79 59.5t-79.5 -59.5t-25.5 -162.5t25.5 -162.5t79.5 -59.5z" />
    <glyph glyph-name="one" unicode="1" horiz-adv-x="560" 
d="M69 0v136h170v390l-162 -31v124l227 81h83v-564h156v-136h-474z" />
    <glyph glyph-name="two" unicode="2" horiz-adv-x="560" 
d="M36 0v105l6 6.5t18 19t29.5 31t41 42.5t51.5 54q49 52 91 94t68 78.5t26 69.5q0 38 -26.5 59t-60.5 21q-33 0 -53.5 -15.5t-30 -39.5t-9.5 -51h-152q3 81 35 133.5t87 78.5t127 26q86 0 137.5 -31.5t74.5 -80t23 -99.5q0 -50 -20.5 -92t-60 -85.5t-96.5 -100.5l-9 -9
l-22 -22l-26 -26l-22 -22l-9 -9h278v-135h-496z" />
    <glyph glyph-name="three" unicode="3" horiz-adv-x="560" 
d="M281 -12q-77 0 -135 27.5t-90 82t-30 135.5h153q-7 -48 22 -79.5t80 -31.5q43 0 73.5 23t30.5 80q0 48 -30.5 73.5t-72.5 25.5q-22 0 -40.5 -6t-32.5 -14l-84 98l195 162h-278v136h472v-133l-151 -125q54 -10 88 -33t52.5 -54t25.5 -64.5t7 -64.5q0 -75 -32.5 -128.5
t-90 -81.5t-132.5 -28z" />
    <glyph glyph-name="four" unicode="4" horiz-adv-x="560" 
d="M326 0v117h-304v126l230 457h154l-218 -448h149v171h147v-171h67v-135h-67v-117h-158z" />
    <glyph glyph-name="five" unicode="5" horiz-adv-x="560" 
d="M286 -12q-75 0 -132.5 26t-91.5 74.5t-37 113.5h153q8 -32 37 -56t70 -24q30 0 53.5 16t37.5 43.5t14 61.5q0 53 -29.5 82.5t-73.5 29.5q-37 0 -64.5 -19.5t-38.5 -46.5h-151l60 411h402v-138h-286l-26 -128q20 20 55 33.5t78 13.5q79 0 127.5 -34.5t73.5 -87.5
q11 -28 17.5 -56.5t6.5 -58.5q0 -71 -31 -129.5t-88.5 -92.5t-135.5 -34z" />
    <glyph glyph-name="six" unicode="6" horiz-adv-x="560" 
d="M303 -12q-77 0 -130.5 29.5t-86.5 78.5q-31 50 -46 110.5t-15 123.5q0 118 32.5 203.5t92.5 131.5q30 24 67 35.5t80 11.5q74 0 124 -30.5t78 -77.5q14 -24 21.5 -49.5t8.5 -51.5h-143q-8 38 -28.5 59.5t-61.5 21.5q-39 0 -64.5 -25t-37.5 -73t-13 -118q23 37 62.5 62
t91.5 25q50 0 98.5 -28t76.5 -79q29 -51 29 -122q0 -65 -30 -119t-83 -87q-55 -32 -123 -32zM295 122q26 0 47.5 12t35 34t13.5 53q0 46 -28 74t-72 28q-25 0 -47 -12.5t-36 -34.5t-14 -51q0 -31 13.5 -54t36.5 -36t51 -13z" />
    <glyph glyph-name="seven" unicode="7" horiz-adv-x="560" 
d="M111 0l265 566h-358v134h526v-110l-271 -590h-162z" />
    <glyph glyph-name="eight" unicode="8" horiz-adv-x="560" 
d="M282 -12q-68 0 -125.5 25.5t-92 72.5t-34.5 112q0 60 25 107t80 73q-40 24 -64.5 61.5t-24.5 84.5q0 61 32.5 103t86 63.5t117.5 21.5q62 0 115 -20.5t85.5 -62.5t32.5 -105q0 -49 -25 -87.5t-63 -58.5q55 -25 80 -73t25 -107q0 -53 -21.5 -92.5t-57.5 -65.5t-80.5 -39
t-90.5 -13zM283 117q42 0 69 23.5t27 72.5q0 46 -23.5 71.5t-72.5 25.5t-74 -25.5t-25 -71.5q0 -41 23.5 -68.5t75.5 -27.5zM282 421q38 0 58.5 21t20.5 61q0 38 -19 61t-60 23q-43 0 -62 -22.5t-19 -61.5q0 -40 22 -61t59 -21z" />
    <glyph glyph-name="nine" unicode="9" horiz-adv-x="560" 
d="M262 -12q-73 0 -123.5 30.5t-78.5 77.5q-28 48 -30 101h143q8 -38 29 -59.5t61 -21.5t65 25t37 73.5t13 117.5q-22 -37 -62 -62t-92 -25q-50 0 -98.5 28t-76.5 79q-29 51 -29 122q0 65 30.5 119t82.5 87q55 32 123 32q77 0 130.5 -29.5t86.5 -78.5q32 -49 46.5 -110
t14.5 -124q0 -118 -32.5 -203.5t-92.5 -131.5q-30 -24 -67 -35.5t-80 -11.5zM268 377q25 0 47 12.5t36 34.5t14 51q0 31 -13.5 54t-36.5 36t-51 13q-25 0 -47 -12t-35.5 -34t-13.5 -53q0 -46 28 -74t72 -28z" />
    <glyph glyph-name="colon" unicode=":" horiz-adv-x="261" 
d="M130 325q-40 0 -67.5 28t-27.5 67t27.5 67t67.5 28q39 0 67 -28t28 -67t-28 -67t-67 -28zM130 -12q-40 0 -67.5 28t-27.5 67t27.5 67t67.5 28q39 0 67 -28t28 -67t-28 -67t-67 -28z" />
    <glyph glyph-name="semicolon" unicode=";" horiz-adv-x="290" 
d="M25 -114l56 268h149l-104 -268h-101zM158 325q-40 0 -67.5 28t-27.5 67t27.5 67t67.5 28q39 0 67 -28t28 -67t-28 -67t-67 -28z" />
    <glyph glyph-name="less" unicode="&#x3c;" horiz-adv-x="600" 
d="M305 130l-209 224l209 221h199l-212 -221l212 -224h-199z" />
    <glyph glyph-name="equal" unicode="=" horiz-adv-x="600" 
d="M80 336v138h441v-138h-441zM80 104v139h441v-139h-441z" />
    <glyph glyph-name="greater" unicode="&#x3e;" horiz-adv-x="600" 
d="M96 130l210 224l-210 221h197l211 -221l-211 -224h-197z" />
    <glyph glyph-name="question" unicode="?" horiz-adv-x="534" 
d="M128 233l-4 167h56q47 0 85 8t59 30q22 21 22 62q0 39 -22.5 61t-60.5 22q-41 0 -63 -22.5t-22 -61.5h-148q-1 60 25.5 108.5t79.5 76.5q26 14 58.5 21t70.5 7q68 0 121 -24.5t84 -71.5q14 -23 22 -52.5t8 -64.5q0 -66 -30 -110.5t-80 -66.5q-25 -12 -54.5 -17.5
t-64.5 -7.5l-3 -64h-139zM199 -17q-40 0 -67.5 28t-27.5 67t27.5 67t67.5 28q38 0 66.5 -28t28.5 -67t-28.5 -67t-66.5 -28z" />
    <glyph glyph-name="at" unicode="@" horiz-adv-x="1014" 
d="M516 -212q-106 0 -189.5 34t-140.5 94t-87 137.5t-30 164.5q0 95 33.5 174.5t94 138t143 91t180.5 32.5q96 0 176.5 -30t140 -85t92 -129.5t32.5 -163.5q0 -76 -24.5 -133.5t-69.5 -90t-108 -32.5q-50 0 -85 23t-52 65q-22 -42 -58.5 -66t-88.5 -24q-62 0 -107.5 33
t-70 86t-24.5 112q0 62 25.5 114t71 83.5t104.5 31.5q39 0 76 -16.5t59 -54.5v61h125v-286q0 -26 10 -36t29 -10q30 0 46 24t22 56.5t6 57.5q0 96 -43.5 163.5t-117.5 103t-166 35.5q-70 0 -131 -23t-107.5 -66.5t-72.5 -104t-26 -134.5q0 -61 21 -118.5t62.5 -103.5
t104 -72.5t145.5 -26.5q50 0 96.5 10.5t88.5 32.5l35 -103q-21 -12 -48 -21t-59 -16q-57 -12 -113 -12zM505 102q47 0 75 33.5t28 82.5q0 32 -13.5 58.5t-36.5 43t-53 16.5q-42 0 -74 -31t-32 -85q0 -47 28.5 -82.5t77.5 -35.5z" />
    <glyph glyph-name="A" unicode="A" horiz-adv-x="692" 
d="M2 0l254 700h181l255 -700h-167l-49 145h-260l-50 -145h-164zM260 271h173l-88 255z" />
    <glyph glyph-name="B" unicode="B" horiz-adv-x="617" 
d="M47 0v700h281q116 0 173.5 -49.5t57.5 -129.5q0 -58 -25.5 -92t-65.5 -55q28 -12 56 -38.5t47.5 -62.5t19.5 -77q0 -54 -28.5 -98.5t-81.5 -71t-125 -26.5h-309zM205 135h149q44 0 60.5 21.5t16.5 57.5q0 35 -16.5 56.5t-62.5 21.5h-147v-157zM205 429h109q47 0 65 15.5
t18 53.5q0 34 -17 50.5t-67 16.5h-108v-136z" />
    <glyph glyph-name="C" unicode="C" horiz-adv-x="715" 
d="M371 -12q-109 0 -186 46.5t-117.5 127.5t-40.5 186t39.5 187.5t116.5 129.5t188 47q130 0 214 -65.5t103 -185.5h-173q-10 51 -48.5 79t-98.5 28q-52 0 -93 -24.5t-64 -73t-23 -122.5q0 -72 22.5 -120.5t63.5 -73t94 -24.5q60 0 98.5 25.5t48.5 72.5h173
q-19 -112 -103 -176t-214 -64z" />
    <glyph glyph-name="D" unicode="D" horiz-adv-x="688" 
d="M47 0v700h255q126 0 205.5 -45.5t116.5 -124t37 -179.5q0 -115 -43.5 -193.5t-124 -118t-191.5 -39.5h-255zM205 137h89q82 0 126.5 27t62 75t17.5 112q0 113 -51.5 163.5t-154.5 50.5h-89v-428z" />
    <glyph glyph-name="E" unicode="E" horiz-adv-x="541" 
d="M47 0v700h460v-136h-302v-127h255v-136h-255v-165h302v-136h-460z" />
    <glyph glyph-name="F" unicode="F" horiz-adv-x="518" 
d="M47 0v700h451v-136h-293v-134h262v-136h-262v-294h-158z" />
    <glyph glyph-name="G" unicode="G" horiz-adv-x="750" 
d="M357 -12q-99 0 -173.5 44.5t-115.5 124.5t-41 187q0 103 40.5 186t120 132.5t196.5 49.5q126 0 208.5 -60t107.5 -167h-174q-16 39 -51 60.5t-91 21.5q-57 0 -101 -26.5t-69.5 -76.5t-25.5 -122q0 -70 25 -118t67.5 -72t94.5 -24q75 0 117 32.5t58 84.5h-203v136h366
v-381h-145l-12 77q-31 -43 -79.5 -66t-119.5 -23z" />
    <glyph glyph-name="H" unicode="H" horiz-adv-x="690" 
d="M47 0v700h158v-262h281v262h157v-700h-157v302h-281v-302h-158z" />
    <glyph glyph-name="I" unicode="I" horiz-adv-x="254" 
d="M48 0v700h158v-700h-158z" />
    <glyph glyph-name="J" unicode="J" horiz-adv-x="521" 
d="M248 -12q-106 0 -172.5 60.5t-66.5 174.5h156q2 -46 22 -70.5t57 -24.5q35 0 53.5 22.5t18.5 62.5v487h157v-487q0 -109 -61 -167t-164 -58z" />
    <glyph glyph-name="K" unicode="K" horiz-adv-x="645" 
d="M615 700l-245 -266l273 -434h-183l-194 323l-61 -67v-256h-158v700h158v-237l216 237h194z" />
    <glyph glyph-name="L" unicode="L" horiz-adv-x="522" 
d="M47 0v700h158v-563h286v-137h-444z" />
    <glyph glyph-name="M" unicode="M" horiz-adv-x="807" 
d="M47 0v700h188l171 -429l166 429h188v-700h-158v421l-135 -339h-127l-135 340v-422h-158z" />
    <glyph glyph-name="N" unicode="N" horiz-adv-x="709" 
d="M47 0v700h158l299 -441v441h158v-700h-158l-299 439v-439h-158z" />
    <glyph glyph-name="O" unicode="O" horiz-adv-x="786" 
d="M392 -12q-72 0 -137.5 25t-117 72t-81 114t-29.5 151t29.5 151t81 114t117 72t137.5 25t138 -25t117.5 -72t81.5 -114t30 -151t-30 -151t-81.5 -114t-117.5 -72t-138 -25zM392 131q49 0 96 24t77.5 72.5t30.5 122.5q0 75 -31 123.5t-78 72t-95 23.5t-94.5 -23.5t-77 -72
t-30.5 -123.5q0 -74 30 -122.5t76.5 -72.5t95.5 -24z" />
    <glyph glyph-name="P" unicode="P" horiz-adv-x="592" 
d="M47 0v700h278q72 0 130 -26t91.5 -75t33.5 -117q0 -67 -32.5 -116.5t-90 -76.5t-132.5 -27h-120v-262h-158zM205 397h116q56 0 77.5 25.5t21.5 59.5q0 32 -21.5 57.5t-77.5 25.5h-116v-168z" />
    <glyph glyph-name="Q" unicode="Q" horiz-adv-x="788" 
d="M669 -13l-66 65q-45 -31 -99 -47.5t-112 -16.5q-72 0 -137.5 25t-117 72t-81 114t-29.5 151t29.5 151t81 114t117 72t137.5 25t138 -25t117.5 -72t81.5 -114t30 -151q0 -56 -15 -105.5t-41 -90.5l67 -62zM190 351q0 -74 30 -122.5t76.5 -72.5t95.5 -24q27 0 53.5 6
t49.5 19l-110 105l100 105l99 -99q6 18 9 39t3 44q0 75 -31 123.5t-78 72t-95 23.5t-94.5 -23.5t-77 -72t-30.5 -123.5z" />
    <glyph glyph-name="R" unicode="R" horiz-adv-x="610" 
d="M47 0v700h267q72 0 127 -25t86 -71.5t31 -110.5q0 -70 -38 -117t-105 -67l191 -309h-182l-167 285h-52v-285h-158zM205 419h106q37 0 55.5 11.5t25.5 28.5t7 34t-7 33.5t-25.5 27.5t-55.5 11h-106v-146z" />
    <glyph glyph-name="S" unicode="S" horiz-adv-x="576" 
d="M297 -12q-74 0 -134.5 24.5t-97 74t-39.5 125.5h166q4 -35 28.5 -63t74.5 -28q43 0 64.5 19t21.5 50q0 14 -4.5 26t-17.5 23.5t-39.5 23.5t-70.5 26q-82 26 -128 61t-64.5 75t-18.5 82q1 68 34 113.5t88 68.5t123 23t124.5 -23.5t91.5 -69.5t36 -114h-170q-1 27 -23 51
t-65 24q-31 -1 -52.5 -17.5t-21.5 -46.5q0 -26 22 -45t62.5 -35t94.5 -34q41 -14 72.5 -32.5t52.5 -43t32 -55.5t11 -70q0 -64 -32.5 -112t-89.5 -74.5t-131 -26.5z" />
    <glyph glyph-name="T" unicode="T" horiz-adv-x="580" 
d="M210 0v564h-201v136h560v-136h-202v-564h-157z" />
    <glyph glyph-name="U" unicode="U" horiz-adv-x="664" 
d="M329 -12q-98 0 -161 39t-93 104t-30 144v425h157v-426q0 -68 33 -104.5t97 -36.5q63 0 97.5 36.5t34.5 104.5v426h157v-425q0 -82 -27 -137t-70.5 -88t-95 -47.5t-99.5 -14.5z" />
    <glyph glyph-name="V" unicode="V" horiz-adv-x="686" 
d="M245 0l-251 700h167l183 -541l183 541h166l-252 -700h-196z" />
    <glyph glyph-name="W" unicode="W" horiz-adv-x="997" 
d="M243 0l-238 700h161l173 -551l54 187l-128 364h158l77 -243l75 243h159l-129 -364l53 -187l174 551h161l-238 -700h-190l-65 211l-68 -211h-189z" />
    <glyph glyph-name="X" unicode="X" horiz-adv-x="664" 
d="M18 0l222 384l-187 316h179l102 -172l95 172h178l-184 -316l228 -384h-179l-142 240l-135 -240h-177z" />
    <glyph glyph-name="Y" unicode="Y" horiz-adv-x="622" 
d="M233 0v291l-240 409h179l141 -249l140 249h176l-239 -409v-291h-157z" />
    <glyph glyph-name="Z" unicode="Z" horiz-adv-x="553" 
d="M32 0v119l305 450h-303v131h486v-119l-307 -448h308v-133h-489z" />
    <glyph glyph-name="bracketleft" unicode="[" horiz-adv-x="395" 
d="M64 -183v994h281v-127h-134v-738h134v-129h-281z" />
    <glyph glyph-name="backslash" unicode="\" horiz-adv-x="441" 
d="M268 -122l-248 908h152l250 -908h-154z" />
    <glyph glyph-name="bracketright" unicode="]" horiz-adv-x="395" 
d="M51 -183v129h133v738h-133v127h280v-994h-280z" />
    <glyph glyph-name="asciicircum" unicode="^" horiz-adv-x="695" 
d="M30 165l242 535h152l240 -535h-159l-157 352l-158 -352h-160z" />
    <glyph glyph-name="underscore" unicode="_" horiz-adv-x="707" 
d="M51 -190v151h605v-151h-605z" />
    <glyph glyph-name="grave" unicode="`" 
d="M119 527l-237 102v125l237 -119v-108z" />
    <glyph glyph-name="a" unicode="a" horiz-adv-x="548" 
d="M180 -12q-43 0 -80 17.5t-59.5 51t-22.5 81.5q0 55 29 89.5t77.5 50.5t106.5 16h112q0 26 -9 46t-27 31.5t-45 11.5q-28 0 -51 -12t-29 -41h-149q4 55 37 94.5t84.5 61.5t110.5 22q69 0 121.5 -25.5t81.5 -73t29 -114.5v-127q0 -22 6.5 -34t34.5 -12v-122q-48 0 -80 6
t-54 22.5t-40 48.5q-33 -44 -78 -66.5t-106 -22.5zM234 106q29 0 53.5 12.5t39.5 35.5t15 52v6h-95q-20 0 -37 -5.5t-27 -17t-10 -31.5q0 -29 19 -40.5t42 -11.5z" />
    <glyph glyph-name="b" unicode="b" horiz-adv-x="579" 
d="M340 -12q-47 0 -89 19t-67 59v-66h-155v700h155v-271q24 39 66.5 59t89.5 20q66 0 116 -33.5t78.5 -92t28.5 -133.5q0 -72 -27 -131.5t-77 -94.5t-119 -35zM294 123q33 0 58 16t39 44.5t14 65.5q0 41 -15.5 68.5t-40.5 41.5t-55 14q-31 0 -56 -15t-40 -43t-15 -67
q0 -36 14 -64.5t39.5 -44.5t57.5 -16z" />
    <glyph glyph-name="c" unicode="c" horiz-adv-x="530" 
d="M270 -12q-75 0 -132 32t-89.5 90.5t-32.5 137.5q0 76 31 134.5t88 92t135 33.5q88 0 154 -45.5t89 -144.5h-165q-10 29 -30.5 43.5t-50.5 14.5q-33 0 -53.5 -18t-30 -47t-9.5 -63q0 -33 9.5 -62.5t30 -47.5t53.5 -18q30 0 50.5 15t30.5 43h165q-14 -61 -48 -103
t-83.5 -64.5t-111.5 -22.5z" />
    <glyph glyph-name="d" unicode="d" horiz-adv-x="580" 
d="M239 -12q-70 0 -120 36t-76.5 95.5t-26.5 129.5t27 129t77 94.5t119 35.5q47 0 89 -19.5t67 -57.5v269h155v-700h-155v68q-25 -41 -66 -60.5t-90 -19.5zM284 123q31 0 56 15t40 43.5t15 66.5q0 37 -14 65t-39 44t-58 16q-25 0 -50.5 -12t-42.5 -39.5t-17 -72.5
q0 -35 13.5 -63.5t38 -45.5t58.5 -17z" />
    <glyph glyph-name="e" unicode="e" horiz-adv-x="537" 
d="M271 -12q-69 0 -127 29.5t-93 87.5t-35 143t34 143t92 87.5t129 29.5q74 0 130.5 -30.5t89 -87t32.5 -134.5q0 -10 -0.5 -21.5t-2.5 -23.5h-350q3 -36 17.5 -57t36 -30.5t42.5 -9.5q29 0 49 12t31 37h165q-11 -47 -44 -87t-82.5 -64t-113.5 -24zM170 297h194q0 41 -27 64
t-68 23q-40 0 -66 -23.5t-33 -63.5z" />
    <glyph glyph-name="f" unicode="f" horiz-adv-x="329" 
d="M63 0v369h-56v127h56v19q0 102 51.5 143.5t135.5 41.5h51v-134h-28q-29 0 -42 -11.5t-13 -37.5v-21h83v-127h-83v-369h-155z" />
    <glyph glyph-name="g" unicode="g" horiz-adv-x="514" 
d="M252 -232q-68 0 -122 15t-85.5 48.5t-31.5 87.5q0 35 15 60.5t46 44.5q-26 15 -39 38t-13 53q0 66 60 100q-22 23 -33 51.5t-11 61.5q0 55 26.5 95.5t73.5 62.5t107 22q45 0 81 -12h178v-103h-63q5 -14 8.5 -30.5t3.5 -34.5q0 -54 -27.5 -94.5t-74.5 -63t-106 -22.5
q-22 0 -41.5 3.5t-37.5 10.5q-17 -8 -17 -26q0 -32 52 -32h102q60 0 104 -17t68 -52t24 -91q0 -60 -34.5 -99t-91 -58t-121.5 -19zM256 -119q41 0 71 13t30 41q0 51 -70 51h-62q-34 0 -52 -12.5t-18 -38.5q0 -20 14 -32t37 -17t50 -5zM245 260q33 0 54 19t21 49
q0 29 -21 48.5t-54 19.5q-34 0 -54 -19.5t-20 -48.5q0 -30 20 -49t54 -19z" />
    <glyph glyph-name="h" unicode="h" horiz-adv-x="542" 
d="M29 0v700h154v-264q27 38 64 55t83 17q93 0 141 -59.5t48 -154.5v-294h-153v275q0 47 -23 75.5t-69 28.5q-45 0 -68 -29.5t-23 -74.5v-275h-154z" />
    <glyph glyph-name="i" unicode="i" horiz-adv-x="219" 
d="M110 540q-39 0 -67 28t-28 67t28 67t67 28q41 0 68 -28t27 -67t-27 -67t-68 -28zM33 0v496h154v-496h-154z" />
    <glyph glyph-name="j" unicode="j" horiz-adv-x="219" 
d="M-50 -220v131h37q23 0 35 9.5t12 32.5v543h154v-541q0 -60 -20.5 -98.5t-60 -57.5t-97.5 -19h-60zM111 540q-40 0 -67.5 28t-27.5 67t27.5 67t67.5 28q39 0 67 -28t28 -67t-28 -67t-67 -28z" />
    <glyph glyph-name="k" unicode="k" horiz-adv-x="519" 
d="M29 0v700h154v-402l147 198h190l-204 -246l211 -250h-191l-153 211v-211h-154z" />
    <glyph glyph-name="l" unicode="l" horiz-adv-x="217" 
d="M31 0v700h154v-700h-154z" />
    <glyph glyph-name="m" unicode="m" horiz-adv-x="877" 
d="M29 0v496h154v-56q26 33 62.5 50.5t79.5 17.5q47 0 93 -23t73 -71q24 38 66 66t98 28q60 0 105 -24t69.5 -71.5t24.5 -117.5v-295h-153v275q0 47 -23 73.5t-68 26.5q-46 0 -68.5 -27t-22.5 -73v-275h-154v275q0 45 -22.5 72.5t-68.5 27.5q-45 0 -68 -26.5t-23 -73.5v-275
h-154z" />
    <glyph glyph-name="n" unicode="n" horiz-adv-x="543" 
d="M29 0v496h154v-60q27 38 64 55t83 17q93 0 141 -59.5t48 -154.5v-294h-153v275q0 47 -23 75.5t-69 28.5q-45 0 -68 -29.5t-23 -74.5v-275h-154z" />
    <glyph glyph-name="o" unicode="o" horiz-adv-x="560" 
d="M278 -12q-72 0 -131.5 30.5t-95 88.5t-35.5 141q0 79 34.5 137t94.5 90.5t135 32.5q80 0 139 -33.5t92 -92t33 -134.5q0 -79 -35 -137.5t-95 -90.5t-136 -32zM279 122q33 0 57 16t37.5 45t13.5 66q0 41 -14.5 68.5t-39 41.5t-54.5 14q-31 0 -55.5 -15t-38.5 -43t-14 -67
q0 -37 13.5 -65.5t37.5 -44.5t57 -16z" />
    <glyph glyph-name="p" unicode="p" horiz-adv-x="579" 
d="M29 -220v716h155v-67q24 39 66.5 59t89.5 20q66 0 116 -33.5t78.5 -92t28.5 -133.5q0 -72 -27 -131.5t-77 -94.5t-119 -35q-47 0 -89 19t-67 59v-286h-155zM294 123q33 0 58 16t39 44.5t14 65.5q0 41 -15.5 68.5t-40.5 41.5t-55 14q-31 0 -56 -15t-40 -43t-15 -67
q0 -36 14 -64.5t39.5 -44.5t57.5 -16z" />
    <glyph glyph-name="q" unicode="q" horiz-adv-x="580" 
d="M395 -220v288q-25 -41 -66 -60.5t-90 -19.5q-70 0 -120 36t-76.5 95.5t-26.5 129.5t27 129t77 94.5t119 35.5q47 0 89 -19.5t67 -57.5v65h155v-716h-155zM284 123q31 0 56 15t40 43.5t15 66.5q0 37 -14 65t-39 44t-58 16q-25 0 -50.5 -12t-42.5 -39.5t-17 -72.5
q0 -35 13.5 -63.5t38 -45.5t58.5 -17z" />
    <glyph glyph-name="r" unicode="r" horiz-adv-x="349" 
d="M29 0v496h154v-77q26 38 66 63.5t92 25.5v-163h-43q-58 0 -86.5 -26t-28.5 -86v-233h-154z" />
    <glyph glyph-name="s" unicode="s" horiz-adv-x="470" 
d="M249 -12q-54 0 -106.5 19.5t-87.5 58t-39 95.5h153q4 -28 26.5 -43.5t51.5 -15.5q24 0 42.5 9.5t18.5 31.5q0 18 -17 28.5t-39.5 16.5t-39.5 10q-47 12 -88 27t-66.5 44t-25.5 82q0 51 28 86t75 53t103 18q88 0 145.5 -43.5t67.5 -128.5h-143q-5 30 -25 43.5t-50 13.5
q-22 0 -39 -8.5t-17 -30.5q0 -18 16.5 -28.5t38.5 -15.5t40 -10q48 -12 88.5 -28t66.5 -45.5t27 -84.5q0 -49 -28.5 -83.5t-75 -52.5t-101.5 -18z" />
    <glyph glyph-name="t" unicode="t" horiz-adv-x="327" 
d="M230 0q-88 0 -132.5 43t-44.5 132v194h-52v127h52v123h154v-123h101v-127h-101v-196q0 -25 10.5 -33.5t35.5 -8.5h55v-131h-78z" />
    <glyph glyph-name="u" unicode="u" horiz-adv-x="543" 
d="M213 -12q-62 0 -104.5 27.5t-64 76t-21.5 110.5v294h153v-275q0 -46 23 -75t69 -29t69 29t23 75v275h154v-496h-154v62q-26 -37 -64 -55.5t-83 -18.5z" />
    <glyph glyph-name="v" unicode="v" horiz-adv-x="516" 
d="M164 0l-176 496h163l108 -354l107 354h162l-176 -496h-188z" />
    <glyph glyph-name="w" unicode="w" horiz-adv-x="734" 
d="M120 0l-135 496h152l70 -355l84 355h161l84 -353l69 353h144l-135 -496h-168l-78 322l-81 -322h-167z" />
    <glyph glyph-name="x" unicode="x" horiz-adv-x="489" 
d="M-9 0l164 253l-168 243h171l95 -137l80 137h164l-166 -250l171 -246h-171l-95 138l-80 -138h-165z" />
    <glyph glyph-name="y" unicode="y" horiz-adv-x="533" 
d="M80 -220l107 237l-202 479h170l115 -310l114 310h164l-304 -716h-164z" />
    <glyph glyph-name="z" unicode="z" horiz-adv-x="409" 
d="M12 0v121l206 250h-204v125h379v-121l-211 -250h215v-125h-385z" />
    <glyph glyph-name="braceleft" unicode="{" horiz-adv-x="487" 
d="M350 -187q-83 0 -133.5 45.5t-50.5 131.5q0 27 5 55.5t10.5 59t5.5 62.5t-22 56t-75 26v127q53 2 75 24t22 58t-5.5 64t-10.5 55t-5 59q0 85 50.5 130t133.5 45h70v-129h-40q-32 0 -47.5 -16.5t-15.5 -44.5q0 -23 2.5 -42t5.5 -37q3 -20 6 -41.5t3 -49.5q0 -53 -25.5 -90
t-81.5 -48v-2q56 -10 81.5 -47.5t25.5 -90.5q0 -29 -3 -52.5t-7 -44.5q-3 -18 -5 -35.5t-2 -37.5q0 -28 15.5 -44.5t47.5 -16.5h40v-129h-70z" />
    <glyph glyph-name="bar" unicode="|" horiz-adv-x="285" 
d="M64 -100v820h157v-820h-157z" />
    <glyph glyph-name="braceright" unicode="}" horiz-adv-x="487" 
d="M66 -187v129h40q32 0 47.5 16.5t15.5 44.5q0 20 -2 37.5t-5 35.5q-4 21 -7 44.5t-3 52.5q0 53 25.5 90.5t81.5 47.5v2q-56 11 -81.5 48t-25.5 90q0 28 3 49.5t6 41.5q3 18 5.5 37t2.5 42q0 28 -15.5 44.5t-47.5 16.5h-40v129h70q83 0 133.5 -45t50.5 -130q0 -32 -5 -59
t-10.5 -55t-5.5 -64t22 -58t75 -24v-127q-53 -2 -75 -26t-22 -56t5.5 -62.5t10.5 -59t5 -55.5q0 -86 -50.5 -131.5t-133.5 -45.5h-70z" />
    <glyph glyph-name="asciitilde" unicode="~" horiz-adv-x="600" 
d="M389 214q-29 0 -53.5 10t-46.5 23.5t-43.5 23.5t-44.5 10q-28 0 -43 -15.5t-21 -50.5h-116q18 108 68.5 156t120.5 48q30 0 54.5 -10t46.5 -23t43.5 -23t44.5 -10q26 0 42.5 16t20.5 50h118q-18 -108 -68 -156.5t-123 -48.5z" />
    <glyph glyph-name="uni00A0" unicode="&#xa0;" horiz-adv-x="220" 
 />
    <glyph glyph-name="exclamdown" unicode="&#xa1;" horiz-adv-x="328" 
d="M79 -136l16 461h133l18 -461h-167zM163 380q-42 0 -70.5 29.5t-28.5 70.5t28.5 70.5t70.5 29.5t71.5 -29.5t29.5 -70.5t-29.5 -70.5t-71.5 -29.5z" />
    <glyph glyph-name="cent" unicode="&#xa2;" horiz-adv-x="620" 
d="M242 -104v100q-58 15 -101.5 51t-67.5 87q-12 26 -17.5 54.5t-5.5 59.5q0 62 24 113.5t67 87.5q21 17 47 30t54 21v100h142v-98q73 -18 122 -66.5t64 -124.5h-167q-10 29 -33.5 46t-55.5 17q-23 0 -47 -12.5t-40 -40t-16 -73.5q0 -36 12 -64.5t35 -45t56 -16.5
q32 0 55.5 17t33.5 46h167q-15 -74 -64.5 -124t-121.5 -67v-98h-142z" />
    <glyph glyph-name="sterling" unicode="&#xa3;" horiz-adv-x="635" 
d="M69 0v89q25 23 42.5 49t27 60t9.5 80q0 1 1 5.5t2 6.5h-114v107h81q-7 22 -12 47t-5 50q0 72 30.5 120.5t84 73t121.5 24.5q64 0 109 -19t73.5 -51.5t42 -72t15.5 -80.5h-145q-1 41 -25 67t-67 26q-28 0 -48.5 -11.5t-31.5 -32t-11 -48.5q0 -19 6 -40.5t17 -52.5h183
v-107h-156q-1 -1 -1.5 -7l-0.5 -6q0 -36 -14.5 -77t-51.5 -76h350v-124h-512z" />
    <glyph glyph-name="currency" unicode="&#xa4;" horiz-adv-x="570" 
d="M123 74l-61 63l55 55q-33 44 -33 107q0 29 7.5 55.5t26.5 49.5l-56 59l61 61l64 -64q42 16 100 16q55 0 97 -16l63 64l62 -61l-55 -57q18 -23 26.5 -50t8.5 -57q0 -31 -8 -58t-26 -50l54 -54l-62 -63l-62 61q-46 -17 -99 -17q-56 0 -101 17zM286 211q17 0 35 8t30.5 27
t12.5 51q0 46 -24 66.5t-54 20.5q-31 0 -54 -20.5t-23 -66.5t23 -66t54 -20z" />
    <glyph glyph-name="yen" unicode="&#xa5;" horiz-adv-x="668" 
d="M256 0v139h-200v106h200v-7l-39 73h-161v106h106l-148 283h179l141 -319l143 319h176l-146 -283h106v-107h-161l-39 -72v7h200v-106h-200v-139h-157z" />
    <glyph glyph-name="brokenbar" unicode="&#xa6;" horiz-adv-x="285" 
d="M64 399v321h157v-321h-157zM64 -100v321h157v-321h-157z" />
    <glyph glyph-name="section" unicode="&#xa7;" horiz-adv-x="626" 
d="M309 -232q-69 0 -125.5 24.5t-90.5 70.5t-36 112h170q2 -21 12.5 -38t29 -27t41.5 -10q16 0 34 5.5t30.5 19.5t12.5 39q0 30 -16.5 45t-53.5 26q-17 5 -33 10t-42 13q-48 15 -94 41.5t-76 68.5t-30 102q0 82 56 140q-27 39 -27 97q-2 63 30.5 109t89 71t125.5 25
q65 0 121.5 -22.5t92.5 -68t38 -116.5h-170q-1 8 -6 26t-22 33.5t-56 15.5q-32 2 -55 -15t-23 -49q0 -28 19 -44q20 -15 53 -26q16 -6 34.5 -11.5t39.5 -12.5q27 -10 51.5 -20.5t47.5 -24.5q23 -13 41.5 -29.5t31.5 -36.5q28 -44 28 -101q0 -20 -3.5 -39.5t-10.5 -36.5
q-13 -36 -41 -64q27 -39 27 -97q-1 -68 -34.5 -114t-89 -68.5t-121.5 -22.5zM399 154q15 18 15 44q0 18 -6 32t-17 24t-26 16t-31.5 12.5t-32.5 13t-30 12t-25 10.5l-10 4l-10 4q-15 -18 -15 -44q0 -15 5.5 -29.5t17 -26.5t28.5 -20q15 -7 37.5 -15.5t45.5 -17t38.5 -14z
" />
    <glyph glyph-name="dieresis" unicode="&#xa8;" 
d="M-119 540q-40 0 -67.5 27.5t-27.5 67.5q0 41 27.5 68t67.5 27q41 0 68 -27t27 -68q0 -40 -27 -67.5t-68 -27.5zM119 540q-40 0 -67.5 27.5t-27.5 67.5q0 41 27.5 68t67.5 27q41 0 68 -27t27 -68q0 -40 -27 -67.5t-68 -27.5z" />
    <glyph glyph-name="copyright" unicode="&#xa9;" horiz-adv-x="781" 
d="M390 -7q-103 0 -181.5 46t-123.5 128q-46 79 -46 186q0 104 45.5 185.5t124.5 127.5q78 45 181 45q106 0 184 -46t123 -126q44 -83 44 -186q0 -106 -44 -187t-122 -127q-80 -46 -185 -46zM392 126q-64 0 -114 27.5t-78 79.5q-28 51 -28 120q0 70 27.5 120t78.5 78
q25 15 54 22t60 7q80 0 136 -44t72 -119h-135q-9 25 -28 40t-49 15q-40 0 -64.5 -30t-24.5 -89t24.5 -90t64.5 -31q31 0 49 16.5t28 39.5h135q-16 -73 -72 -117.5t-136 -44.5zM390 46q93 0 158.5 39t101.5 107q36 69 36 161t-36.5 161t-101.5 107q-33 18 -72 27.5t-86 9.5
q-91 0 -156.5 -38t-100.5 -106q-36 -68 -36 -161t36 -161.5t101 -106.5q66 -39 156 -39z" />
    <glyph glyph-name="ordfeminine" unicode="&#xaa;" horiz-adv-x="402" 
d="M133 347q-23 0 -48.5 11.5t-43 34t-17.5 54.5q0 40 19 64.5t51.5 36t70.5 11.5h76q-2 19 -12.5 39t-39.5 20q-16 0 -28 -9t-17 -24h-108q11 40 32 67.5t52.5 42.5t73.5 15q25 0 52.5 -7.5t51.5 -25t39 -48t15 -76.5v-76q0 -16 10.5 -24.5t25.5 -8.5v-90h-24
q-38 0 -66 11.5t-44 33.5q-22 -29 -52.5 -40.5t-68.5 -11.5zM171 433q14 0 30.5 5.5t28 19t11.5 37.5h-70q-13 0 -24.5 -8.5t-11.5 -23.5q0 -16 10 -23t26 -7z" />
    <glyph glyph-name="guillemotleft" unicode="&#xab;" horiz-adv-x="540" 
d="M344 120l-85 175l85 175h146l-88 -175l88 -175h-146zM128 120l-87 175l87 175h144l-88 -175l88 -175h-144z" />
    <glyph glyph-name="logicalnot" unicode="&#xac;" horiz-adv-x="600" 
d="M407 186v134h-371v120h528v-254h-157z" />
    <glyph glyph-name="registered" unicode="&#xae;" horiz-adv-x="347" 
d="M174 425q-39 0 -72 19.5t-52.5 52t-19.5 71.5q0 40 19.5 72.5t52.5 52t72 19.5q40 0 72 -19.5t51.5 -52t19.5 -72.5q0 -39 -19.5 -71.5t-51.5 -52t-72 -19.5zM107 496q1 2 7 13t14 24.5t14 24l6 10.5q-29 10 -29 39q0 15 10 29.5t38 14.5h54v-155h-28v65h-18l-5 -9.5
t-12 -22t-12.5 -22.5t-5.5 -11h-33zM174 448q33 0 60.5 16.5t43.5 43.5t16 60t-16 60.5t-43.5 43.5t-60.5 16t-60 -16t-43.5 -43.5t-16.5 -60.5t16.5 -60t43.5 -43.5t60 -16.5zM174 585h19v43h-22q-25 0 -25 -21q0 -11 8 -16.5t20 -5.5z" />
    <glyph glyph-name="macron" unicode="&#xaf;" 
d="M-186 580v110h372v-110h-372z" />
    <glyph glyph-name="degree" unicode="&#xb0;" horiz-adv-x="371" 
d="M186 414q-41 0 -75.5 18t-55.5 52t-21 80q0 47 21 80t55.5 50.5t74.5 17.5q68 0 111.5 -40t43.5 -108q0 -71 -44.5 -110.5t-109.5 -39.5zM186 509q26 0 40.5 16.5t14.5 37.5q0 23 -14.5 38.5t-40.5 15.5q-23 0 -38 -15.5t-15 -38.5q0 -21 15 -37.5t38 -16.5z" />
    <glyph glyph-name="plusminus" unicode="&#xb1;" horiz-adv-x="600" 
d="M234 173v120h-186v131h186v117h132v-117h187v-131h-187v-120h-132zM48 0v138h505v-138h-505z" />
    <glyph glyph-name="uni00B2" unicode="&#xb2;" horiz-adv-x="311" 
d="M28 347v60l11.5 12t28.5 29.5t35.5 37t33 34.5t19.5 20q11 11 21 24t10 29q0 17 -8.5 26.5t-25.5 9.5q-24 0 -32 -15t-8 -30h-83q2 57 35 89t88 32q49 0 83 -26.5t34 -85.5q0 -34 -18.5 -60t-47.5 -55l-53 -54h129v-77h-252z" />
    <glyph glyph-name="uni00B3" unicode="&#xb3;" horiz-adv-x="312" 
d="M156 342q-56 0 -94 31t-36 87h83q0 -20 13 -30.5t34 -10.5q23 0 35 11t12 32t-14 32t-33 11q-7 0 -15 -2.5t-21 -11.5l-48 56l89 76h-126v77h239v-68l-72 -59q40 -12 62 -40t22 -69q0 -54 -35 -88t-95 -34z" />
    <glyph glyph-name="acute" unicode="&#xb4;" 
d="M-118 527v108l237 119v-125z" />
    <glyph glyph-name="uni00B5" unicode="&#xb5;" horiz-adv-x="640" 
d="M62 -220v716h158v-259q0 -55 22.5 -86t71.5 -31q48 0 76 32.5t28 88.5v255h158v-496h-136l-14 81q-24 -43 -65 -68t-102 -25q-11 0 -21 1t-18 4v-213h-158z" />
    <glyph glyph-name="paragraph" unicode="&#xb6;" horiz-adv-x="678" 
d="M287 -100v375h-22q-84 0 -135.5 29.5t-76.5 78.5q-13 24 -19 50.5t-6 53.5q0 56 25 104t78 79q26 14 59.5 22t74.5 8h349v-800h-131v681h-65v-681h-131z" />
    <glyph glyph-name="periodcentered" unicode="&#xb7;" horiz-adv-x="250" 
d="M125 243q-40 0 -67.5 27.5t-27.5 67.5q0 38 27.5 66.5t67.5 28.5q39 0 67 -28.5t28 -66.5q0 -40 -28 -67.5t-67 -27.5z" />
    <glyph glyph-name="cedilla" unicode="&#xb8;" 
d="M-141 -266v88h125q43 0 43 28q0 29 -43 29h-69v138h96v-58q33 1 63 -11t49 -37t19 -63q0 -39 -20 -64t-51 -37.5t-65 -12.5h-147z" />
    <glyph glyph-name="uni00B9" unicode="&#xb9;" horiz-adv-x="316" 
d="M39 347v77h87v181l-84 -20v71l121 44h45v-276h78v-77h-247z" />
    <glyph glyph-name="ordmasculine" unicode="&#xba;" horiz-adv-x="410" 
d="M201 349q-52 0 -92 23.5t-62 65t-22 93.5q0 61 26 101t67.5 60t86.5 20q52 0 92 -24t63.5 -64.5t23.5 -92.5q0 -49 -21.5 -90.5t-62.5 -66.5t-99 -25zM201 441q30 0 46.5 14t23.5 35t7 41q0 32 -15.5 60t-58.5 28q-28 0 -44 -13.5t-23 -34t-7 -40.5q0 -32 17 -61t54 -29z
" />
    <glyph glyph-name="guillemotright" unicode="&#xbb;" horiz-adv-x="540" 
d="M268 120l88 175l-88 175h146l86 -175l-86 -175h-146zM50 120l88 175l-88 175h146l86 -175l-86 -175h-146z" />
    <glyph glyph-name="onequarter" unicode="&#xbc;" horiz-adv-x="769" 
d="M68 0l521 700h116l-520 -700h-117zM32 347v77h86v181l-83 -20v70l120 45h46v-276h78v-77h-247zM604 0v61h-165v64l114 228h87l-106 -214h74v86h82v-86h37v-78h-37v-61h-86z" />
    <glyph glyph-name="onehalf" unicode="&#xbd;" horiz-adv-x="773" 
d="M32 347v77h86v181l-83 -20v70l120 45h46v-276h78v-77h-247zM78 0l521 700h116l-520 -700h-117zM476 0v60l128 133q11 11 21 24t10 29q0 17 -8.5 26.5t-25.5 9.5q-24 0 -32 -15t-8 -30h-83q2 57 35 89t88 32q49 0 83 -26.5t34 -85.5q0 -34 -18.5 -60t-47.5 -55l-53 -54
h129v-77h-252z" />
    <glyph glyph-name="threequarters" unicode="&#xbe;" horiz-adv-x="786" 
d="M85 0l521 700h116l-520 -700h-117zM621 0v61h-165v64l114 228h87l-105 -214h73v86h82v-86h38v-78h-38v-61h-86zM170 342q-56 0 -94 31t-36 87h83q0 -20 13 -30.5t34 -10.5q23 0 35 11t12 32t-14 32t-33 11q-7 0 -15 -2.5t-21 -11.5l-48 56l89 76h-126v77h239v-68l-72 -59
q40 -12 62 -40t22 -69q0 -54 -35 -88t-95 -34z" />
    <glyph glyph-name="questiondown" unicode="&#xbf;" horiz-adv-x="534" 
d="M270 -151q-67 0 -120 25t-85 71q-29 50 -29 118q0 65 29.5 110t79.5 67q26 11 55.5 17t63.5 7l3 65h140l4 -168h-56q-48 0 -86 -7.5t-59 -29.5q-22 -22 -22 -63q0 -38 23 -60t61 -22q41 0 62.5 22t21.5 62h149q1 -60 -25.5 -108t-80.5 -77q-53 -29 -129 -29zM336 388
q-39 0 -67.5 28t-28.5 67t28.5 67t67.5 28q40 0 67 -28t27 -67t-27 -67t-67 -28z" />
    <glyph glyph-name="Agrave" unicode="&#xc0;" horiz-adv-x="692" 
d="M2 0l254 700h181l255 -700h-167l-49 145h-260l-50 -145h-164zM260 271h173l-88 255zM465 739l-237 102v125l237 -119v-108z" />
    <glyph glyph-name="Aacute" unicode="&#xc1;" horiz-adv-x="692" 
d="M2 0l254 700h181l255 -700h-167l-49 145h-260l-50 -145h-164zM260 271h173l-88 255zM227 739v108l237 119v-125z" />
    <glyph glyph-name="Acircumflex" unicode="&#xc2;" horiz-adv-x="692" 
d="M2 0l254 700h181l255 -700h-167l-49 145h-260l-50 -145h-164zM260 271h173l-88 255zM194 742v109l152 79l152 -79v-109l-152 80z" />
    <glyph glyph-name="Atilde" unicode="&#xc3;" horiz-adv-x="692" 
d="M2 0l254 700h181l255 -700h-167l-49 145h-260l-50 -145h-164zM260 271h173l-88 255zM406 749q-28 0 -47 11.5t-36 23t-41 11.5q-33 0 -41 -45h-77q11 72 43 105.5t80 33.5q29 0 47.5 -11.5t35.5 -22.5t40 -11q17 0 27.5 11t13.5 34h77q-10 -74 -42.5 -107t-79.5 -33z" />
    <glyph glyph-name="Adieresis" unicode="&#xc4;" horiz-adv-x="692" 
d="M2 0l254 700h181l255 -700h-167l-49 145h-260l-50 -145h-164zM260 271h173l-88 255zM227 759q-40 0 -67.5 27.5t-27.5 67.5q0 41 27.5 68t67.5 27q41 0 68 -27t27 -68q0 -40 -27 -67.5t-68 -27.5zM465 759q-40 0 -67.5 27.5t-27.5 67.5q0 41 27.5 68t67.5 27q41 0 68 -27
t27 -68q0 -40 -27 -67.5t-68 -27.5z" />
    <glyph glyph-name="Aring" unicode="&#xc5;" horiz-adv-x="692" 
d="M2 0l254 700h181l255 -700h-167l-49 145h-260l-50 -145h-164zM260 271h173l-88 255zM344 744q-47 0 -82.5 32t-35.5 86q0 55 35.5 86.5t82.5 31.5q51 0 86.5 -31.5t35.5 -86.5q0 -54 -35.5 -86t-86.5 -32zM344 812q23 0 37 14t14 36q0 23 -14 37t-37 14q-19 0 -33 -14
t-14 -37q0 -22 14 -36t33 -14z" />
    <glyph glyph-name="AE" unicode="&#xc6;" horiz-adv-x="924" 
d="M2 0l365 700h522v-136h-259v-127h212v-136h-212v-165h259v-136h-416v121h-238l-63 -121h-170zM300 244h173v339z" />
    <glyph glyph-name="Ccedilla" unicode="&#xc7;" horiz-adv-x="715" 
d="M371 -12q-109 0 -186 46.5t-117.5 127.5t-40.5 186t39.5 187.5t116.5 129.5t188 47q130 0 214 -65.5t103 -185.5h-173q-10 51 -48.5 79t-98.5 28q-52 0 -93 -24.5t-64 -73t-23 -122.5q0 -72 22.5 -120.5t63.5 -73t94 -24.5q60 0 98.5 25.5t48.5 72.5h173
q-19 -112 -103 -176t-214 -64zM266 -266v88h125q43 0 43 28q0 29 -43 29h-69v138h96v-58q33 1 63 -11t49 -37t19 -63q0 -39 -20 -64t-51 -37.5t-65 -12.5h-147z" />
    <glyph glyph-name="Egrave" unicode="&#xc8;" horiz-adv-x="541" 
d="M47 0v700h460v-136h-302v-127h255v-136h-255v-165h302v-136h-460zM390 739l-237 102v125l237 -119v-108z" />
    <glyph glyph-name="Eacute" unicode="&#xc9;" horiz-adv-x="541" 
d="M47 0v700h460v-136h-302v-127h255v-136h-255v-165h302v-136h-460zM152 739v108l237 119v-125z" />
    <glyph glyph-name="Ecircumflex" unicode="&#xca;" horiz-adv-x="541" 
d="M47 0v700h460v-136h-302v-127h255v-136h-255v-165h302v-136h-460zM119 742v109l152 79l152 -79v-109l-152 80z" />
    <glyph glyph-name="Edieresis" unicode="&#xcb;" horiz-adv-x="541" 
d="M47 0v700h460v-136h-302v-127h255v-136h-255v-165h302v-136h-460zM152 759q-40 0 -67.5 27.5t-27.5 67.5q0 41 27.5 68t67.5 27q41 0 68 -27t27 -68q0 -40 -27 -67.5t-68 -27.5zM390 759q-40 0 -67.5 27.5t-27.5 67.5q0 41 27.5 68t67.5 27q41 0 68 -27t27 -68
q0 -40 -27 -67.5t-68 -27.5z" />
    <glyph glyph-name="Igrave" unicode="&#xcc;" horiz-adv-x="254" 
d="M48 0v700h158v-700h-158zM246 739l-237 102v125l237 -119v-108z" />
    <glyph glyph-name="Iacute" unicode="&#xcd;" horiz-adv-x="254" 
d="M48 0v700h158v-700h-158zM8 739v108l237 119v-125z" />
    <glyph glyph-name="Icircumflex" unicode="&#xce;" horiz-adv-x="254" 
d="M48 0v700h158v-700h-158zM-25 742v109l152 79l152 -79v-109l-152 80z" />
    <glyph glyph-name="Idieresis" unicode="&#xcf;" horiz-adv-x="254" 
d="M48 0v700h158v-700h-158zM8 759q-40 0 -67.5 27.5t-27.5 67.5q0 41 27.5 68t67.5 27q41 0 68 -27t27 -68q0 -40 -27 -67.5t-68 -27.5zM246 759q-40 0 -67.5 27.5t-27.5 67.5q0 41 27.5 68t67.5 27q41 0 68 -27t27 -68q0 -40 -27 -67.5t-68 -27.5z" />
    <glyph glyph-name="Eth" unicode="&#xd0;" horiz-adv-x="695" 
d="M55 0v284h-67v133h67v283h255q126 0 205 -45.5t116 -124t37 -179.5q0 -115 -43 -193.5t-123.5 -118t-191.5 -39.5h-255zM212 137h89q78 0 123 25t64 73t19 116q0 114 -51 164t-155 50h-89v-148h161v-133h-161v-147z" />
    <glyph glyph-name="Ntilde" unicode="&#xd1;" horiz-adv-x="709" 
d="M47 0v700h158l299 -441v441h158v-700h-158l-299 439v-439h-158zM415 749q-28 0 -47 11.5t-36 23t-41 11.5q-33 0 -41 -45h-77q11 72 43 105.5t80 33.5q29 0 47.5 -11.5t35.5 -22.5t40 -11q17 0 27.5 11t13.5 34h77q-10 -74 -42.5 -107t-79.5 -33z" />
    <glyph glyph-name="Ograve" unicode="&#xd2;" horiz-adv-x="786" 
d="M392 -12q-72 0 -137.5 25t-117 72t-81 114t-29.5 151t29.5 151t81 114t117 72t137.5 25t138 -25t117.5 -72t81.5 -114t30 -151t-30 -151t-81.5 -114t-117.5 -72t-138 -25zM392 131q49 0 96 24t77.5 72.5t30.5 122.5q0 75 -31 123.5t-78 72t-95 23.5t-94.5 -23.5t-77 -72
t-30.5 -123.5q0 -74 30 -122.5t76.5 -72.5t95.5 -24zM512 739l-237 102v125l237 -119v-108z" />
    <glyph glyph-name="Oacute" unicode="&#xd3;" horiz-adv-x="786" 
d="M392 -12q-72 0 -137.5 25t-117 72t-81 114t-29.5 151t29.5 151t81 114t117 72t137.5 25t138 -25t117.5 -72t81.5 -114t30 -151t-30 -151t-81.5 -114t-117.5 -72t-138 -25zM392 131q49 0 96 24t77.5 72.5t30.5 122.5q0 75 -31 123.5t-78 72t-95 23.5t-94.5 -23.5t-77 -72
t-30.5 -123.5q0 -74 30 -122.5t76.5 -72.5t95.5 -24zM274 739v108l237 119v-125z" />
    <glyph glyph-name="Ocircumflex" unicode="&#xd4;" horiz-adv-x="786" 
d="M392 -12q-72 0 -137.5 25t-117 72t-81 114t-29.5 151t29.5 151t81 114t117 72t137.5 25t138 -25t117.5 -72t81.5 -114t30 -151t-30 -151t-81.5 -114t-117.5 -72t-138 -25zM392 131q49 0 96 24t77.5 72.5t30.5 122.5q0 75 -31 123.5t-78 72t-95 23.5t-94.5 -23.5t-77 -72
t-30.5 -123.5q0 -74 30 -122.5t76.5 -72.5t95.5 -24zM241 742v109l152 79l152 -79v-109l-152 80z" />
    <glyph glyph-name="Otilde" unicode="&#xd5;" horiz-adv-x="786" 
d="M392 -12q-72 0 -137.5 25t-117 72t-81 114t-29.5 151t29.5 151t81 114t117 72t137.5 25t138 -25t117.5 -72t81.5 -114t30 -151t-30 -151t-81.5 -114t-117.5 -72t-138 -25zM392 131q49 0 96 24t77.5 72.5t30.5 122.5q0 75 -31 123.5t-78 72t-95 23.5t-94.5 -23.5t-77 -72
t-30.5 -123.5q0 -74 30 -122.5t76.5 -72.5t95.5 -24zM453 749q-28 0 -47 11.5t-36 23t-41 11.5q-33 0 -41 -45h-77q11 72 43 105.5t80 33.5q29 0 47.5 -11.5t35.5 -22.5t40 -11q17 0 27.5 11t13.5 34h77q-10 -74 -42.5 -107t-79.5 -33z" />
    <glyph glyph-name="Odieresis" unicode="&#xd6;" horiz-adv-x="786" 
d="M392 -12q-72 0 -137.5 25t-117 72t-81 114t-29.5 151t29.5 151t81 114t117 72t137.5 25t138 -25t117.5 -72t81.5 -114t30 -151t-30 -151t-81.5 -114t-117.5 -72t-138 -25zM392 131q49 0 96 24t77.5 72.5t30.5 122.5q0 75 -31 123.5t-78 72t-95 23.5t-94.5 -23.5t-77 -72
t-30.5 -123.5q0 -74 30 -122.5t76.5 -72.5t95.5 -24zM274 759q-40 0 -67.5 27.5t-27.5 67.5q0 41 27.5 68t67.5 27q41 0 68 -27t27 -68q0 -40 -27 -67.5t-68 -27.5zM512 759q-40 0 -67.5 27.5t-27.5 67.5q0 41 27.5 68t67.5 27q41 0 68 -27t27 -68q0 -40 -27 -67.5
t-68 -27.5z" />
    <glyph glyph-name="multiply" unicode="&#xd7;" horiz-adv-x="600" 
d="M183 78l-94 91l119 120l-117 118l93 93l117 -119l119 120l92 -93l-119 -119l119 -119l-93 -91l-117 119z" />
    <glyph glyph-name="Oslash" unicode="&#xd8;" horiz-adv-x="749" 
d="M380 -12q-56 0 -104.5 13.5t-89.5 37.5l-34 -39h-143l94 114q-37 44 -56.5 105t-19.5 131q0 107 44 188.5t123.5 127.5t185.5 46q53 0 100.5 -12t88.5 -35l29 35h144l-90 -106q40 -47 61 -108.5t21 -135.5q0 -105 -43.5 -186.5t-123 -128.5t-187.5 -47zM380 130
q57 0 100.5 25.5t68.5 74.5t25 120q0 34 -6 64t-20 58l-267 -319q46 -23 99 -23zM207 236l265 315q-41 19 -92 19q-56 0 -100 -25t-69 -74t-25 -121q0 -31 5 -59.5t16 -54.5z" />
    <glyph glyph-name="Ugrave" unicode="&#xd9;" horiz-adv-x="664" 
d="M329 -12q-98 0 -161 39t-93 104t-30 144v425h157v-426q0 -68 33 -104.5t97 -36.5q63 0 97.5 36.5t34.5 104.5v426h157v-425q0 -82 -27 -137t-70.5 -88t-95 -47.5t-99.5 -14.5zM451 739l-237 102v125l237 -119v-108z" />
    <glyph glyph-name="Uacute" unicode="&#xda;" horiz-adv-x="664" 
d="M329 -12q-98 0 -161 39t-93 104t-30 144v425h157v-426q0 -68 33 -104.5t97 -36.5q63 0 97.5 36.5t34.5 104.5v426h157v-425q0 -82 -27 -137t-70.5 -88t-95 -47.5t-99.5 -14.5zM213 739v108l237 119v-125z" />
    <glyph glyph-name="Ucircumflex" unicode="&#xdb;" horiz-adv-x="664" 
d="M329 -12q-98 0 -161 39t-93 104t-30 144v425h157v-426q0 -68 33 -104.5t97 -36.5q63 0 97.5 36.5t34.5 104.5v426h157v-425q0 -82 -27 -137t-70.5 -88t-95 -47.5t-99.5 -14.5zM180 742v109l152 79l152 -79v-109l-152 80z" />
    <glyph glyph-name="Udieresis" unicode="&#xdc;" horiz-adv-x="664" 
d="M329 -12q-98 0 -161 39t-93 104t-30 144v425h157v-426q0 -68 33 -104.5t97 -36.5q63 0 97.5 36.5t34.5 104.5v426h157v-425q0 -82 -27 -137t-70.5 -88t-95 -47.5t-99.5 -14.5zM213 759q-40 0 -67.5 27.5t-27.5 67.5q0 41 27.5 68t67.5 27q41 0 68 -27t27 -68
q0 -40 -27 -67.5t-68 -27.5zM451 759q-40 0 -67.5 27.5t-27.5 67.5q0 41 27.5 68t67.5 27q41 0 68 -27t27 -68q0 -40 -27 -67.5t-68 -27.5z" />
    <glyph glyph-name="Yacute" unicode="&#xdd;" horiz-adv-x="622" 
d="M233 0v291l-240 409h179l141 -249l140 249h176l-239 -409v-291h-157zM192 739v108l237 119v-125z" />
    <glyph glyph-name="Thorn" unicode="&#xde;" horiz-adv-x="592" 
d="M47 0v700h158v-128h121q86 0 141.5 -29.5t83.5 -79.5q29 -52 29 -115q0 -57 -27 -106.5t-83 -80.5q-55 -32 -144 -32h-121v-129h-158zM205 254h109q55 0 80.5 25.5t25.5 68.5q0 44 -25.5 70t-80.5 26h-109v-190z" />
    <glyph glyph-name="germandbls" unicode="&#xdf;" horiz-adv-x="682" 
d="M461 -10q-94 0 -155.5 48t-72.5 141h146q4 -33 24 -54t55 -21q27 0 45.5 12.5t18.5 39.5q0 22 -13 36t-32.5 23.5t-40.5 17.5q-36 13 -72.5 29t-61 41t-24.5 64q0 26 12 45t29 32q9 7 17.5 13t16.5 13q14 11 28 25.5t14 34.5q0 38 -30 54.5t-69 16.5q-37 0 -62 -12
t-37 -36.5t-12 -62.5v-490h-155v502q0 77 36.5 128t98.5 76.5t138 25.5q66 0 122.5 -21.5t91 -62.5t34.5 -101q0 -26 -11.5 -45.5t-29 -34t-35.5 -26.5q-10 -7 -24.5 -19t-14.5 -29q0 -13 10 -22.5t31 -19t53 -21.5q62 -23 103 -60t41 -105q0 -57 -29 -96t-77.5 -59
t-106.5 -20z" />
    <glyph glyph-name="agrave" unicode="&#xe0;" horiz-adv-x="548" 
d="M180 -12q-43 0 -80 17.5t-59.5 51t-22.5 81.5q0 55 29 89.5t77.5 50.5t106.5 16h112q0 26 -9 46t-27 31.5t-45 11.5q-28 0 -51 -12t-29 -41h-149q4 55 37 94.5t84.5 61.5t110.5 22q69 0 121.5 -25.5t81.5 -73t29 -114.5v-127q0 -22 6.5 -34t34.5 -12v-122q-48 0 -80 6
t-54 22.5t-40 48.5q-33 -44 -78 -66.5t-106 -22.5zM234 106q29 0 53.5 12.5t39.5 35.5t15 52v6h-95q-20 0 -37 -5.5t-27 -17t-10 -31.5q0 -29 19 -40.5t42 -11.5zM383 527l-237 102v125l237 -119v-108z" />
    <glyph glyph-name="aacute" unicode="&#xe1;" horiz-adv-x="548" 
d="M180 -12q-43 0 -80 17.5t-59.5 51t-22.5 81.5q0 55 29 89.5t77.5 50.5t106.5 16h112q0 26 -9 46t-27 31.5t-45 11.5q-28 0 -51 -12t-29 -41h-149q4 55 37 94.5t84.5 61.5t110.5 22q69 0 121.5 -25.5t81.5 -73t29 -114.5v-127q0 -22 6.5 -34t34.5 -12v-122q-48 0 -80 6
t-54 22.5t-40 48.5q-33 -44 -78 -66.5t-106 -22.5zM234 106q29 0 53.5 12.5t39.5 35.5t15 52v6h-95q-20 0 -37 -5.5t-27 -17t-10 -31.5q0 -29 19 -40.5t42 -11.5zM146 527v108l237 119v-125z" />
    <glyph glyph-name="acircumflex" unicode="&#xe2;" horiz-adv-x="548" 
d="M180 -12q-43 0 -80 17.5t-59.5 51t-22.5 81.5q0 55 29 89.5t77.5 50.5t106.5 16h112q0 26 -9 46t-27 31.5t-45 11.5q-28 0 -51 -12t-29 -41h-149q4 55 37 94.5t84.5 61.5t110.5 22q69 0 121.5 -25.5t81.5 -73t29 -114.5v-127q0 -22 6.5 -34t34.5 -12v-122q-48 0 -80 6
t-54 22.5t-40 48.5q-33 -44 -78 -66.5t-106 -22.5zM234 106q29 0 53.5 12.5t39.5 35.5t15 52v6h-95q-20 0 -37 -5.5t-27 -17t-10 -31.5q0 -29 19 -40.5t42 -11.5zM113 538v109l152 79l152 -79v-109l-152 80z" />
    <glyph glyph-name="atilde" unicode="&#xe3;" horiz-adv-x="548" 
d="M180 -12q-43 0 -80 17.5t-59.5 51t-22.5 81.5q0 55 29 89.5t77.5 50.5t106.5 16h112q0 26 -9 46t-27 31.5t-45 11.5q-28 0 -51 -12t-29 -41h-149q4 55 37 94.5t84.5 61.5t110.5 22q69 0 121.5 -25.5t81.5 -73t29 -114.5v-127q0 -22 6.5 -34t34.5 -12v-122q-48 0 -80 6
t-54 22.5t-40 48.5q-33 -44 -78 -66.5t-106 -22.5zM234 106q29 0 53.5 12.5t39.5 35.5t15 52v6h-95q-20 0 -37 -5.5t-27 -17t-10 -31.5q0 -29 19 -40.5t42 -11.5zM325 563q-28 0 -47 11.5t-36 23t-41 11.5q-17 0 -27 -11t-14 -34h-77q11 72 43 105.5t80 33.5
q29 0 47.5 -11.5t35.5 -22.5t40 -11q17 0 27.5 11t13.5 34h77q-10 -74 -42.5 -107t-79.5 -33z" />
    <glyph glyph-name="adieresis" unicode="&#xe4;" horiz-adv-x="548" 
d="M180 -12q-43 0 -80 17.5t-59.5 51t-22.5 81.5q0 55 29 89.5t77.5 50.5t106.5 16h112q0 26 -9 46t-27 31.5t-45 11.5q-28 0 -51 -12t-29 -41h-149q4 55 37 94.5t84.5 61.5t110.5 22q69 0 121.5 -25.5t81.5 -73t29 -114.5v-127q0 -22 6.5 -34t34.5 -12v-122q-48 0 -80 6
t-54 22.5t-40 48.5q-33 -44 -78 -66.5t-106 -22.5zM234 106q29 0 53.5 12.5t39.5 35.5t15 52v6h-95q-20 0 -37 -5.5t-27 -17t-10 -31.5q0 -29 19 -40.5t42 -11.5zM146 540q-40 0 -67.5 27.5t-27.5 67.5q0 41 27.5 68t67.5 27q41 0 68 -27t27 -68q0 -40 -27 -67.5t-68 -27.5z
M384 540q-40 0 -67.5 27.5t-27.5 67.5q0 41 27.5 68t67.5 27q41 0 68 -27t27 -68q0 -40 -27 -67.5t-68 -27.5z" />
    <glyph glyph-name="aring" unicode="&#xe5;" horiz-adv-x="548" 
d="M180 -12q-43 0 -80 17.5t-59.5 51t-22.5 81.5q0 55 29 89.5t77.5 50.5t106.5 16h112q0 26 -9 46t-27 31.5t-45 11.5q-28 0 -51 -12t-29 -41h-149q4 55 37 94.5t84.5 61.5t110.5 22q69 0 121.5 -25.5t81.5 -73t29 -114.5v-127q0 -22 6.5 -34t34.5 -12v-122q-48 0 -80 6
t-54 22.5t-40 48.5q-33 -44 -78 -66.5t-106 -22.5zM234 106q29 0 53.5 12.5t39.5 35.5t15 52v6h-95q-20 0 -37 -5.5t-27 -17t-10 -31.5q0 -29 19 -40.5t42 -11.5zM263 540q-47 0 -82.5 32t-35.5 86q0 55 35.5 86.5t82.5 31.5q51 0 86.5 -31.5t35.5 -86.5q0 -54 -35.5 -86
t-86.5 -32zM263 608q23 0 37 14t14 36q0 23 -14 37t-37 14q-19 0 -33 -14t-14 -37q0 -22 14 -36t33 -14z" />
    <glyph glyph-name="ae" unicode="&#xe6;" horiz-adv-x="863" 
d="M202 -12q-56 0 -97.5 17t-64.5 50t-23 81q0 55 29.5 89.5t78 50.5t106.5 16h112q0 41 -20 66t-61 25q-28 0 -51 -12t-29 -41h-149q4 55 37 94.5t84.5 61.5t110.5 22q50 0 92 -14t73 -40q34 26 76 40t91 14q74 0 130.5 -30.5t89 -87t32.5 -134.5q0 -10 -0.5 -21.5
t-2.5 -23.5h-350q3 -36 17.5 -57t36 -30.5t42.5 -9.5q29 0 49 12t31 37h165q-11 -47 -44 -87t-82.5 -64t-113.5 -24q-58 0 -108.5 20.5t-85.5 60.5q-36 -42 -87.5 -61.5t-113.5 -19.5zM234 104q29 0 53.5 12.5t39.5 35.5t15 52v6h-95q-31 0 -52.5 -12.5t-21.5 -41.5
t19 -40.5t42 -11.5zM496 297h194q0 41 -27 64t-68 23q-40 0 -66 -23.5t-33 -63.5z" />
    <glyph glyph-name="ccedilla" unicode="&#xe7;" horiz-adv-x="530" 
d="M270 -12q-75 0 -132 32t-89.5 90.5t-32.5 137.5q0 76 31 134.5t88 92t135 33.5q88 0 154 -45.5t89 -144.5h-165q-10 29 -30.5 43.5t-50.5 14.5q-33 0 -53.5 -18t-30 -47t-9.5 -63q0 -33 9.5 -62.5t30 -47.5t53.5 -18q30 0 50.5 15t30.5 43h165q-14 -61 -48 -103
t-83.5 -64.5t-111.5 -22.5zM162 -266v88h125q43 0 43 28q0 29 -43 29h-69v138h96v-58q33 1 63 -11t49 -37t19 -63q0 -39 -20 -64t-51 -37.5t-65 -12.5h-147z" />
    <glyph glyph-name="egrave" unicode="&#xe8;" horiz-adv-x="537" 
d="M271 -12q-69 0 -127 29.5t-93 87.5t-35 143t34 143t92 87.5t129 29.5q74 0 130.5 -30.5t89 -87t32.5 -134.5q0 -10 -0.5 -21.5t-2.5 -23.5h-350q3 -36 17.5 -57t36 -30.5t42.5 -9.5q29 0 49 12t31 37h165q-11 -47 -44 -87t-82.5 -64t-113.5 -24zM170 297h194q0 41 -27 64
t-68 23q-40 0 -66 -23.5t-33 -63.5zM387 527l-237 102v125l237 -119v-108z" />
    <glyph glyph-name="eacute" unicode="&#xe9;" horiz-adv-x="537" 
d="M271 -12q-69 0 -127 29.5t-93 87.5t-35 143t34 143t92 87.5t129 29.5q74 0 130.5 -30.5t89 -87t32.5 -134.5q0 -10 -0.5 -21.5t-2.5 -23.5h-350q3 -36 17.5 -57t36 -30.5t42.5 -9.5q29 0 49 12t31 37h165q-11 -47 -44 -87t-82.5 -64t-113.5 -24zM170 297h194q0 41 -27 64
t-68 23q-40 0 -66 -23.5t-33 -63.5zM150 527v108l237 119v-125z" />
    <glyph glyph-name="ecircumflex" unicode="&#xea;" horiz-adv-x="537" 
d="M271 -12q-69 0 -127 29.5t-93 87.5t-35 143t34 143t92 87.5t129 29.5q74 0 130.5 -30.5t89 -87t32.5 -134.5q0 -10 -0.5 -21.5t-2.5 -23.5h-350q3 -36 17.5 -57t36 -30.5t42.5 -9.5q29 0 49 12t31 37h165q-11 -47 -44 -87t-82.5 -64t-113.5 -24zM170 297h194q0 41 -27 64
t-68 23q-40 0 -66 -23.5t-33 -63.5zM117 538v109l152 79l152 -79v-109l-152 80z" />
    <glyph glyph-name="edieresis" unicode="&#xeb;" horiz-adv-x="537" 
d="M271 -12q-69 0 -127 29.5t-93 87.5t-35 143t34 143t92 87.5t129 29.5q74 0 130.5 -30.5t89 -87t32.5 -134.5q0 -10 -0.5 -21.5t-2.5 -23.5h-350q3 -36 17.5 -57t36 -30.5t42.5 -9.5q29 0 49 12t31 37h165q-11 -47 -44 -87t-82.5 -64t-113.5 -24zM170 297h194q0 41 -27 64
t-68 23q-40 0 -66 -23.5t-33 -63.5zM150 540q-40 0 -67.5 27.5t-27.5 67.5q0 41 27.5 68t67.5 27q41 0 68 -27t27 -68q0 -40 -27 -67.5t-68 -27.5zM388 540q-40 0 -67.5 27.5t-27.5 67.5q0 41 27.5 68t67.5 27q41 0 68 -27t27 -68q0 -40 -27 -67.5t-68 -27.5z" />
    <glyph glyph-name="igrave" unicode="&#xec;" horiz-adv-x="214" 
d="M29 0v496h154v-496h-154zM225 527l-237 102v125l237 -119v-108z" />
    <glyph glyph-name="iacute" unicode="&#xed;" horiz-adv-x="214" 
d="M29 0v496h154v-496h-154zM-12 527v108l237 119v-125z" />
    <glyph glyph-name="icircumflex" unicode="&#xee;" horiz-adv-x="214" 
d="M29 0v496h154v-496h-154zM-45 538v109l152 79l152 -79v-109l-152 80z" />
    <glyph glyph-name="idieresis" unicode="&#xef;" horiz-adv-x="214" 
d="M29 0v496h154v-496h-154zM3 540q-39 0 -65 27.5t-26 67.5q0 41 26 68t65 27t65 -27t26 -68q0 -40 -26 -67.5t-65 -27.5zM211 540q-38 0 -64 27.5t-26 67.5q0 41 26 68t64 27q39 0 65 -27t26 -68q0 -40 -26 -67.5t-65 -27.5z" />
    <glyph glyph-name="eth" unicode="&#xf0;" horiz-adv-x="591" 
d="M291 -12q-79 0 -141.5 34t-97.5 92q-17 29 -26.5 61.5t-9.5 69.5q0 74 35.5 131t93.5 91q59 33 135 33q34 0 62 -7t59 -19q-8 22 -19.5 45.5t-22.5 45.5l-120 -37v90l65 20q-14 17 -29.5 32.5t-31.5 29.5h146q6 -7 13 -13t14 -14l116 37v-91l-56 -17q50 -74 74.5 -155
t24.5 -147q0 -97 -38 -167t-103 -107q-63 -38 -143 -38zM296 126q35 0 61.5 14t42 41t15.5 65q0 49 -20.5 75.5t-48.5 36.5t-51 10q-32 0 -58.5 -14t-42 -40.5t-15.5 -63.5q0 -31 13.5 -59.5t40 -46.5t63.5 -18z" />
    <glyph glyph-name="ntilde" unicode="&#xf1;" horiz-adv-x="543" 
d="M29 0v496h154v-60q27 38 64 55t83 17q93 0 141 -59.5t48 -154.5v-294h-153v275q0 47 -23 75.5t-69 28.5q-45 0 -68 -29.5t-23 -74.5v-275h-154zM331 563q-28 0 -47 11.5t-36 23t-41 11.5q-17 0 -27 -11t-14 -34h-77q11 72 43 105.5t80 33.5q29 0 47.5 -11.5t35.5 -22.5
t40 -11q17 0 27.5 11t13.5 34h77q-10 -74 -42.5 -107t-79.5 -33z" />
    <glyph glyph-name="ograve" unicode="&#xf2;" horiz-adv-x="560" 
d="M278 -12q-72 0 -131.5 30.5t-95 88.5t-35.5 141q0 79 34.5 137t94.5 90.5t135 32.5q80 0 139 -33.5t92 -92t33 -134.5q0 -79 -35 -137.5t-95 -90.5t-136 -32zM279 122q33 0 57 16t37.5 45t13.5 66q0 41 -14.5 68.5t-39 41.5t-54.5 14q-31 0 -55.5 -15t-38.5 -43t-14 -67
q0 -37 13.5 -65.5t37.5 -44.5t57 -16zM398 527l-237 102v125l237 -119v-108z" />
    <glyph glyph-name="oacute" unicode="&#xf3;" horiz-adv-x="560" 
d="M278 -12q-72 0 -131.5 30.5t-95 88.5t-35.5 141q0 79 34.5 137t94.5 90.5t135 32.5q80 0 139 -33.5t92 -92t33 -134.5q0 -79 -35 -137.5t-95 -90.5t-136 -32zM279 122q33 0 57 16t37.5 45t13.5 66q0 41 -14.5 68.5t-39 41.5t-54.5 14q-31 0 -55.5 -15t-38.5 -43t-14 -67
q0 -37 13.5 -65.5t37.5 -44.5t57 -16zM161 527v108l237 119v-125z" />
    <glyph glyph-name="ocircumflex" unicode="&#xf4;" horiz-adv-x="560" 
d="M278 -12q-72 0 -131.5 30.5t-95 88.5t-35.5 141q0 79 34.5 137t94.5 90.5t135 32.5q80 0 139 -33.5t92 -92t33 -134.5q0 -79 -35 -137.5t-95 -90.5t-136 -32zM279 122q33 0 57 16t37.5 45t13.5 66q0 41 -14.5 68.5t-39 41.5t-54.5 14q-31 0 -55.5 -15t-38.5 -43t-14 -67
q0 -37 13.5 -65.5t37.5 -44.5t57 -16zM128 538v109l152 79l152 -79v-109l-152 80z" />
    <glyph glyph-name="otilde" unicode="&#xf5;" horiz-adv-x="560" 
d="M278 -12q-72 0 -131.5 30.5t-95 88.5t-35.5 141q0 79 34.5 137t94.5 90.5t135 32.5q80 0 139 -33.5t92 -92t33 -134.5q0 -79 -35 -137.5t-95 -90.5t-136 -32zM279 122q33 0 57 16t37.5 45t13.5 66q0 41 -14.5 68.5t-39 41.5t-54.5 14q-31 0 -55.5 -15t-38.5 -43t-14 -67
q0 -37 13.5 -65.5t37.5 -44.5t57 -16zM340 563q-28 0 -47 11.5t-36 23t-41 11.5q-17 0 -27 -11t-14 -34h-77q11 72 43 105.5t80 33.5q29 0 47.5 -11.5t35.5 -22.5t40 -11q17 0 27.5 11t13.5 34h77q-10 -74 -42.5 -107t-79.5 -33z" />
    <glyph glyph-name="odieresis" unicode="&#xf6;" horiz-adv-x="560" 
d="M278 -12q-72 0 -131.5 30.5t-95 88.5t-35.5 141q0 79 34.5 137t94.5 90.5t135 32.5q80 0 139 -33.5t92 -92t33 -134.5q0 -79 -35 -137.5t-95 -90.5t-136 -32zM279 122q33 0 57 16t37.5 45t13.5 66q0 41 -14.5 68.5t-39 41.5t-54.5 14q-31 0 -55.5 -15t-38.5 -43t-14 -67
q0 -37 13.5 -65.5t37.5 -44.5t57 -16zM161 540q-40 0 -67.5 27.5t-27.5 67.5q0 41 27.5 68t67.5 27q41 0 68 -27t27 -68q0 -40 -27 -67.5t-68 -27.5zM399 540q-40 0 -67.5 27.5t-27.5 67.5q0 41 27.5 68t67.5 27q41 0 68 -27t27 -68q0 -40 -27 -67.5t-68 -27.5z" />
    <glyph glyph-name="divide" unicode="&#xf7;" horiz-adv-x="600" 
d="M58 223v131h484v-131h-484zM300 -12q-43 0 -69 28.5t-26 66.5q0 42 26 68.5t69 26.5t69 -26.5t26 -68.5q0 -38 -26 -66.5t-69 -28.5zM300 401q-43 0 -69 28.5t-26 66.5q0 42 26 68.5t69 26.5t69 -26.5t26 -68.5q0 -38 -26 -66.5t-69 -28.5z" />
    <glyph glyph-name="oslash" unicode="&#xf8;" horiz-adv-x="566" 
d="M281 -12q-87 0 -155 43l-29 -31h-86l67 72q-29 33 -45.5 77t-16.5 99q0 79 35.5 137t96 90.5t135.5 32.5q46 0 85.5 -11.5t71.5 -32.5l29 32h86l-68 -73q30 -34 46.5 -78.5t16.5 -96.5q0 -79 -35.5 -137.5t-96.5 -90.5t-137 -32zM282 122q33 0 58 16t39 45t14 66
q0 17 -3 32t-8 27l-157 -170q26 -16 57 -16zM183 187l158 170q-26 16 -59 16q-31 0 -56 -15t-40 -43t-15 -67q0 -17 3 -32.5t9 -28.5z" />
    <glyph glyph-name="ugrave" unicode="&#xf9;" horiz-adv-x="543" 
d="M213 -12q-62 0 -104.5 27.5t-64 76t-21.5 110.5v294h153v-275q0 -46 23 -75t69 -29t69 29t23 75v275h154v-496h-154v62q-26 -37 -64 -55.5t-83 -18.5zM382 527l-237 102v125l237 -119v-108z" />
    <glyph glyph-name="uacute" unicode="&#xfa;" horiz-adv-x="543" 
d="M213 -12q-62 0 -104.5 27.5t-64 76t-21.5 110.5v294h153v-275q0 -46 23 -75t69 -29t69 29t23 75v275h154v-496h-154v62q-26 -37 -64 -55.5t-83 -18.5zM145 527v108l237 119v-125z" />
    <glyph glyph-name="ucircumflex" unicode="&#xfb;" horiz-adv-x="543" 
d="M213 -12q-62 0 -104.5 27.5t-64 76t-21.5 110.5v294h153v-275q0 -46 23 -75t69 -29t69 29t23 75v275h154v-496h-154v62q-26 -37 -64 -55.5t-83 -18.5zM112 538v109l152 79l152 -79v-109l-152 80z" />
    <glyph glyph-name="udieresis" unicode="&#xfc;" horiz-adv-x="543" 
d="M213 -12q-62 0 -104.5 27.5t-64 76t-21.5 110.5v294h153v-275q0 -46 23 -75t69 -29t69 29t23 75v275h154v-496h-154v62q-26 -37 -64 -55.5t-83 -18.5zM145 540q-40 0 -67.5 27.5t-27.5 67.5q0 41 27.5 68t67.5 27q41 0 68 -27t27 -68q0 -40 -27 -67.5t-68 -27.5zM383 540
q-40 0 -67.5 27.5t-27.5 67.5q0 41 27.5 68t67.5 27q41 0 68 -27t27 -68q0 -40 -27 -67.5t-68 -27.5z" />
    <glyph glyph-name="yacute" unicode="&#xfd;" horiz-adv-x="533" 
d="M80 -220l107 237l-202 479h170l115 -310l114 310h164l-304 -716h-164zM148 527v108l237 119v-125z" />
    <glyph glyph-name="thorn" unicode="&#xfe;" horiz-adv-x="579" 
d="M29 -220v920h155v-271q24 39 66.5 59t89.5 20q66 0 116 -33.5t78.5 -92t28.5 -133.5q0 -72 -27 -131.5t-77 -94.5t-119 -35q-47 0 -89 19t-67 59v-286h-155zM294 123q33 0 58 16t39 44.5t14 65.5q0 41 -15.5 68.5t-40.5 41.5t-55 14q-31 0 -56 -15t-40 -43t-15 -67
q0 -36 14 -64.5t39.5 -44.5t57.5 -16z" />
    <glyph glyph-name="ydieresis" unicode="&#xff;" horiz-adv-x="533" 
d="M80 -220l107 237l-202 479h170l115 -310l114 310h164l-304 -716h-164zM148 540q-40 0 -67.5 27.5t-27.5 67.5q0 41 27.5 68t67.5 27q41 0 68 -27t27 -68q0 -40 -27 -67.5t-68 -27.5zM386 540q-40 0 -67.5 27.5t-27.5 67.5q0 41 27.5 68t67.5 27q41 0 68 -27t27 -68
q0 -40 -27 -67.5t-68 -27.5z" />
    <glyph glyph-name="Amacron" unicode="&#x100;" horiz-adv-x="692" 
d="M2 0l254 700h181l255 -700h-167l-49 145h-260l-50 -145h-164zM260 271h173l-88 255zM160 774v110h372v-110h-372z" />
    <glyph glyph-name="amacron" unicode="&#x101;" horiz-adv-x="548" 
d="M180 -12q-43 0 -80 17.5t-59.5 51t-22.5 81.5q0 55 29 89.5t77.5 50.5t106.5 16h112q0 26 -9 46t-27 31.5t-45 11.5q-28 0 -51 -12t-29 -41h-149q4 55 37 94.5t84.5 61.5t110.5 22q69 0 121.5 -25.5t81.5 -73t29 -114.5v-127q0 -22 6.5 -34t34.5 -12v-122q-48 0 -80 6
t-54 22.5t-40 48.5q-33 -44 -78 -66.5t-106 -22.5zM234 106q29 0 53.5 12.5t39.5 35.5t15 52v6h-95q-20 0 -37 -5.5t-27 -17t-10 -31.5q0 -29 19 -40.5t42 -11.5zM79 580v110h372v-110h-372z" />
    <glyph glyph-name="Abreve" unicode="&#x102;" horiz-adv-x="692" 
d="M2 0l254 700h181l255 -700h-167l-49 145h-260l-50 -145h-164zM260 271h173l-88 255zM345 746q-74 0 -119.5 42.5t-45.5 121.5v18h80q0 -32 18.5 -50t66.5 -18q50 0 68.5 18t18.5 50h79v-19q0 -79 -46 -121t-120 -42z" />
    <glyph glyph-name="abreve" unicode="&#x103;" horiz-adv-x="548" 
d="M180 -12q-43 0 -80 17.5t-59.5 51t-22.5 81.5q0 55 29 89.5t77.5 50.5t106.5 16h112q0 26 -9 46t-27 31.5t-45 11.5q-28 0 -51 -12t-29 -41h-149q4 55 37 94.5t84.5 61.5t110.5 22q69 0 121.5 -25.5t81.5 -73t29 -114.5v-127q0 -22 6.5 -34t34.5 -12v-122q-48 0 -80 6
t-54 22.5t-40 48.5q-33 -44 -78 -66.5t-106 -22.5zM234 106q29 0 53.5 12.5t39.5 35.5t15 52v6h-95q-20 0 -37 -5.5t-27 -17t-10 -31.5q0 -29 19 -40.5t42 -11.5zM264 540q-74 0 -119.5 42.5t-45.5 121.5v18h80q0 -32 18.5 -50t66.5 -18q50 0 68.5 18t18.5 50h79v-19
q0 -79 -46 -121t-120 -42z" />
    <glyph glyph-name="Aogonek" unicode="&#x104;" horiz-adv-x="692" 
d="M2 0l254 700h181l255 -700h-167l-49 145h-260l-50 -145h-164zM260 271h173l-88 255zM603 -215q-59 0 -101 26.5t-42 83.5q0 43 33.5 81t122.5 77l41 18l35 -71l-48 -25q-36 -19 -52 -33.5t-16 -31.5q0 -16 12.5 -26t34.5 -10q33 0 75 15v-89q-19 -5 -44 -10t-51 -5z" />
    <glyph glyph-name="aogonek" unicode="&#x105;" horiz-adv-x="548" 
d="M180 -12q-43 0 -80 17.5t-59.5 51t-22.5 81.5q0 55 29 89.5t77.5 50.5t106.5 16h112q0 26 -9 46t-27 31.5t-45 11.5q-28 0 -51 -12t-29 -41h-149q4 55 37 94.5t84.5 61.5t110.5 22q69 0 121.5 -25.5t81.5 -73t29 -114.5v-127q0 -22 6.5 -34t34.5 -12v-122q-48 0 -80 6
t-54 22.5t-40 48.5q-33 -44 -78 -66.5t-106 -22.5zM234 106q29 0 53.5 12.5t39.5 35.5t15 52v6h-95q-20 0 -37 -5.5t-27 -17t-10 -31.5q0 -29 19 -40.5t42 -11.5zM449 -215q-59 0 -101 26.5t-42 83.5q0 43 33.5 81t122.5 77l41 18l35 -71l-48 -25q-36 -19 -52 -33.5
t-16 -31.5q0 -16 12.5 -26t34.5 -10q33 0 75 15v-89q-19 -5 -44 -10t-51 -5z" />
    <glyph glyph-name="Cacute" unicode="&#x106;" horiz-adv-x="715" 
d="M371 -12q-109 0 -186 46.5t-117.5 127.5t-40.5 186t39.5 187.5t116.5 129.5t188 47q130 0 214 -65.5t103 -185.5h-173q-10 51 -48.5 79t-98.5 28q-52 0 -93 -24.5t-64 -73t-23 -122.5q0 -72 22.5 -120.5t63.5 -73t94 -24.5q60 0 98.5 25.5t48.5 72.5h173
q-19 -112 -103 -176t-214 -64zM250 739v108l237 119v-125z" />
    <glyph glyph-name="cacute" unicode="&#x107;" horiz-adv-x="530" 
d="M270 -12q-75 0 -132 32t-89.5 90.5t-32.5 137.5q0 76 31 134.5t88 92t135 33.5q88 0 154 -45.5t89 -144.5h-165q-10 29 -30.5 43.5t-50.5 14.5q-33 0 -53.5 -18t-30 -47t-9.5 -63q0 -33 9.5 -62.5t30 -47.5t53.5 -18q30 0 50.5 15t30.5 43h165q-14 -61 -48 -103
t-83.5 -64.5t-111.5 -22.5zM147 527v108l237 119v-125z" />
    <glyph glyph-name="Cdotaccent" unicode="&#x10a;" horiz-adv-x="715" 
d="M371 -12q-109 0 -186 46.5t-117.5 127.5t-40.5 186t39.5 187.5t116.5 129.5t188 47q130 0 214 -65.5t103 -185.5h-173q-10 51 -48.5 79t-98.5 28q-52 0 -93 -24.5t-64 -73t-23 -122.5q0 -72 22.5 -120.5t63.5 -73t94 -24.5q60 0 98.5 25.5t48.5 72.5h173
q-19 -112 -103 -176t-214 -64zM369 759q-37 0 -65.5 27.5t-28.5 67.5q0 41 28.5 68t65.5 27q41 0 69 -27t28 -68q0 -40 -28 -67.5t-69 -27.5z" />
    <glyph glyph-name="cdotaccent" unicode="&#x10b;" horiz-adv-x="530" 
d="M270 -12q-75 0 -132 32t-89.5 90.5t-32.5 137.5q0 76 31 134.5t88 92t135 33.5q88 0 154 -45.5t89 -144.5h-165q-10 29 -30.5 43.5t-50.5 14.5q-33 0 -53.5 -18t-30 -47t-9.5 -63q0 -33 9.5 -62.5t30 -47.5t53.5 -18q30 0 50.5 15t30.5 43h165q-14 -61 -48 -103
t-83.5 -64.5t-111.5 -22.5zM264 540q-37 0 -65.5 27.5t-28.5 67.5q0 41 28.5 68t65.5 27q41 0 69 -27t28 -68q0 -40 -28 -67.5t-69 -27.5z" />
    <glyph glyph-name="Ccaron" unicode="&#x10c;" horiz-adv-x="715" 
d="M371 -12q-109 0 -186 46.5t-117.5 127.5t-40.5 186t39.5 187.5t116.5 129.5t188 47q130 0 214 -65.5t103 -185.5h-173q-10 51 -48.5 79t-98.5 28q-52 0 -93 -24.5t-64 -73t-23 -122.5q0 -72 22.5 -120.5t63.5 -73t94 -24.5q60 0 98.5 25.5t48.5 72.5h173
q-19 -112 -103 -176t-214 -64zM369 741l-152 78v110l152 -85l152 85v-110z" />
    <glyph glyph-name="ccaron" unicode="&#x10d;" horiz-adv-x="530" 
d="M270 -12q-75 0 -132 32t-89.5 90.5t-32.5 137.5q0 76 31 134.5t88 92t135 33.5q88 0 154 -45.5t89 -144.5h-165q-10 29 -30.5 43.5t-50.5 14.5q-33 0 -53.5 -18t-30 -47t-9.5 -63q0 -33 9.5 -62.5t30 -47.5t53.5 -18q30 0 50.5 15t30.5 43h165q-14 -61 -48 -103
t-83.5 -64.5t-111.5 -22.5zM266 538l-152 78v110l152 -85l152 85v-110z" />
    <glyph glyph-name="Dcaron" unicode="&#x10e;" horiz-adv-x="688" 
d="M47 0v700h255q126 0 205.5 -45.5t116.5 -124t37 -179.5q0 -115 -43.5 -193.5t-124 -118t-191.5 -39.5h-255zM205 137h89q82 0 126.5 27t62 75t17.5 112q0 113 -51.5 163.5t-154.5 50.5h-89v-428zM334 741l-152 78v110l152 -85l152 85v-110z" />
    <glyph glyph-name="dcaron" unicode="&#x10f;" horiz-adv-x="580" 
d="M239 -12q-70 0 -120 36t-76.5 95.5t-26.5 129.5t27 129t77 94.5t119 35.5q47 0 89 -19.5t67 -57.5v269h155v-700h-155v68q-25 -41 -66 -60.5t-90 -19.5zM284 123q31 0 56 15t40 43.5t15 66.5q0 37 -14 65t-39 44t-58 16q-25 0 -50.5 -12t-42.5 -39.5t-17 -72.5
q0 -35 13.5 -63.5t38 -45.5t58.5 -17zM585 546l48 154h143l-92 -154h-99z" />
    <glyph glyph-name="Dcroat" unicode="&#x110;" horiz-adv-x="695" 
d="M55 0v284h-67v133h67v283h255q126 0 205 -45.5t116 -124t37 -179.5q0 -115 -43 -193.5t-123.5 -118t-191.5 -39.5h-255zM212 137h89q78 0 123 25t64 73t19 116q0 114 -51 164t-155 50h-89v-148h161v-133h-161v-147z" />
    <glyph glyph-name="dcroat" unicode="&#x111;" horiz-adv-x="579" 
d="M239 -12q-70 0 -120 36t-76.5 95.5t-26.5 129.5t27 129t77 94.5t119 35.5q47 0 89 -19.5t67 -57.5v117h-151v110h151v42h155v-42h38v-110h-38v-548h-155v68q-25 -41 -66 -60.5t-90 -19.5zM174 249q0 -35 13.5 -63.5t38 -45.5t58.5 -17q31 0 56 15t40 43.5t15 66.5
q0 37 -14 65t-39 44t-58 16q-25 0 -50.5 -12t-42.5 -39.5t-17 -72.5z" />
    <glyph glyph-name="Emacron" unicode="&#x112;" horiz-adv-x="541" 
d="M47 0v700h460v-136h-302v-127h255v-136h-255v-165h302v-136h-460zM85 774v110h372v-110h-372z" />
    <glyph glyph-name="emacron" unicode="&#x113;" horiz-adv-x="537" 
d="M271 -12q-69 0 -127 29.5t-93 87.5t-35 143t34 143t92 87.5t129 29.5q74 0 130.5 -30.5t89 -87t32.5 -134.5q0 -10 -0.5 -21.5t-2.5 -23.5h-350q3 -36 17.5 -57t36 -30.5t42.5 -9.5q29 0 49 12t31 37h165q-11 -47 -44 -87t-82.5 -64t-113.5 -24zM170 297h194q0 41 -27 64
t-68 23q-40 0 -66 -23.5t-33 -63.5zM83 580v110h372v-110h-372z" />
    <glyph glyph-name="Ebreve" unicode="&#x114;" horiz-adv-x="541" 
d="M47 0v700h460v-136h-302v-127h255v-136h-255v-165h302v-136h-460zM270 746q-74 0 -119.5 42.5t-45.5 121.5v18h80q0 -32 18.5 -50t66.5 -18q50 0 68.5 18t18.5 50h79v-19q0 -79 -46 -121t-120 -42z" />
    <glyph glyph-name="ebreve" unicode="&#x115;" horiz-adv-x="537" 
d="M271 -12q-69 0 -127 29.5t-93 87.5t-35 143t34 143t92 87.5t129 29.5q74 0 130.5 -30.5t89 -87t32.5 -134.5q0 -10 -0.5 -21.5t-2.5 -23.5h-350q3 -36 17.5 -57t36 -30.5t42.5 -9.5q29 0 49 12t31 37h165q-11 -47 -44 -87t-82.5 -64t-113.5 -24zM170 297h194q0 41 -27 64
t-68 23q-40 0 -66 -23.5t-33 -63.5zM268 540q-74 0 -119.5 42.5t-45.5 121.5v18h80q0 -32 18.5 -50t66.5 -18q50 0 68.5 18t18.5 50h79v-19q0 -79 -46 -121t-120 -42z" />
    <glyph glyph-name="Edotaccent" unicode="&#x116;" horiz-adv-x="541" 
d="M47 0v700h460v-136h-302v-127h255v-136h-255v-165h302v-136h-460zM271 759q-37 0 -65.5 27.5t-28.5 67.5q0 41 28.5 68t65.5 27q41 0 69 -27t28 -68q0 -40 -28 -67.5t-69 -27.5z" />
    <glyph glyph-name="edotaccent" unicode="&#x117;" horiz-adv-x="537" 
d="M271 -12q-69 0 -127 29.5t-93 87.5t-35 143t34 143t92 87.5t129 29.5q74 0 130.5 -30.5t89 -87t32.5 -134.5q0 -10 -0.5 -21.5t-2.5 -23.5h-350q3 -36 17.5 -57t36 -30.5t42.5 -9.5q29 0 49 12t31 37h165q-11 -47 -44 -87t-82.5 -64t-113.5 -24zM170 297h194q0 41 -27 64
t-68 23q-40 0 -66 -23.5t-33 -63.5zM267 540q-37 0 -65.5 27.5t-28.5 67.5q0 41 28.5 68t65.5 27q41 0 69 -27t28 -68q0 -40 -28 -67.5t-69 -27.5z" />
    <glyph glyph-name="Eogonek" unicode="&#x118;" horiz-adv-x="541" 
d="M47 0v700h460v-136h-302v-127h255v-136h-255v-165h302v-136h-460zM418 -215q-59 0 -101 26.5t-42 83.5q0 43 33.5 81t122.5 77l41 18l35 -71l-48 -25q-36 -19 -52 -33.5t-16 -31.5q0 -16 12.5 -26t34.5 -10q33 0 75 15v-89q-19 -5 -44 -10t-51 -5z" />
    <glyph glyph-name="eogonek" unicode="&#x119;" horiz-adv-x="537" 
d="M271 -12q-69 0 -127 29.5t-93 87.5t-35 143t34 143t92 87.5t129 29.5q74 0 130.5 -30.5t89 -87t32.5 -134.5q0 -10 -0.5 -21.5t-2.5 -23.5h-350q3 -36 17.5 -57t36 -30.5t42.5 -9.5q29 0 49 12t31 37h165q-11 -47 -44 -87t-82.5 -64t-113.5 -24zM170 297h194q0 41 -27 64
t-68 23q-40 0 -66 -23.5t-33 -63.5zM290 -205q-59 0 -101 26.5t-42 83.5q0 43 33.5 81t122.5 77l41 18l35 -71l-48 -25q-36 -19 -52 -33.5t-16 -31.5q0 -16 12.5 -26t34.5 -10q33 0 75 15v-89q-19 -5 -44 -10t-51 -5z" />
    <glyph glyph-name="Ecaron" unicode="&#x11a;" horiz-adv-x="541" 
d="M47 0v700h460v-136h-302v-127h255v-136h-255v-165h302v-136h-460zM271 741l-152 78v110l152 -85l152 85v-110z" />
    <glyph glyph-name="ecaron" unicode="&#x11b;" horiz-adv-x="537" 
d="M271 -12q-69 0 -127 29.5t-93 87.5t-35 143t34 143t92 87.5t129 29.5q74 0 130.5 -30.5t89 -87t32.5 -134.5q0 -10 -0.5 -21.5t-2.5 -23.5h-350q3 -36 17.5 -57t36 -30.5t42.5 -9.5q29 0 49 12t31 37h165q-11 -47 -44 -87t-82.5 -64t-113.5 -24zM170 297h194q0 41 -27 64
t-68 23q-40 0 -66 -23.5t-33 -63.5zM269 538l-152 78v110l152 -85l152 85v-110z" />
    <glyph glyph-name="Gbreve" unicode="&#x11e;" horiz-adv-x="750" 
d="M357 -12q-99 0 -173.5 44.5t-115.5 124.5t-41 187q0 103 40.5 186t120 132.5t196.5 49.5q126 0 208.5 -60t107.5 -167h-174q-16 39 -51 60.5t-91 21.5q-57 0 -101 -26.5t-69.5 -76.5t-25.5 -122q0 -70 25 -118t67.5 -72t94.5 -24q75 0 117 32.5t58 84.5h-203v136h366
v-381h-145l-12 77q-31 -43 -79.5 -66t-119.5 -23zM374 746q-74 0 -119.5 42.5t-45.5 121.5v18h80q0 -32 18.5 -50t66.5 -18q50 0 68.5 18t18.5 50h79v-19q0 -79 -46 -121t-120 -42z" />
    <glyph glyph-name="gbreve" unicode="&#x11f;" horiz-adv-x="514" 
d="M252 -232q-68 0 -122 15t-85.5 48.5t-31.5 87.5q0 35 15 60.5t46 44.5q-26 15 -39 38t-13 53q0 66 60 100q-22 23 -33 51.5t-11 61.5q0 55 26.5 95.5t73.5 62.5t107 22q45 0 81 -12h178v-103h-63q5 -14 8.5 -30.5t3.5 -34.5q0 -54 -27.5 -94.5t-74.5 -63t-106 -22.5
q-22 0 -41.5 3.5t-37.5 10.5q-17 -8 -17 -26q0 -32 52 -32h102q60 0 104 -17t68 -52t24 -91q0 -60 -34.5 -99t-91 -58t-121.5 -19zM256 -119q41 0 71 13t30 41q0 51 -70 51h-62q-34 0 -52 -12.5t-18 -38.5q0 -20 14 -32t37 -17t50 -5zM245 260q33 0 54 19t21 49
q0 29 -21 48.5t-54 19.5q-34 0 -54 -19.5t-20 -48.5q0 -30 20 -49t54 -19zM243 540q-74 0 -119.5 42.5t-45.5 121.5v18h80q0 -32 18.5 -50t66.5 -18q50 0 68.5 18t18.5 50h79v-19q0 -79 -46 -121t-120 -42z" />
    <glyph glyph-name="Gdotaccent" unicode="&#x120;" horiz-adv-x="750" 
d="M357 -12q-99 0 -173.5 44.5t-115.5 124.5t-41 187q0 103 40.5 186t120 132.5t196.5 49.5q126 0 208.5 -60t107.5 -167h-174q-16 39 -51 60.5t-91 21.5q-57 0 -101 -26.5t-69.5 -76.5t-25.5 -122q0 -70 25 -118t67.5 -72t94.5 -24q75 0 117 32.5t58 84.5h-203v136h366
v-381h-145l-12 77q-31 -43 -79.5 -66t-119.5 -23zM375 759q-37 0 -65.5 27.5t-28.5 67.5q0 41 28.5 68t65.5 27q41 0 69 -27t28 -68q0 -40 -28 -67.5t-69 -27.5z" />
    <glyph glyph-name="gdotaccent" unicode="&#x121;" horiz-adv-x="514" 
d="M252 -232q-68 0 -122 15t-85.5 48.5t-31.5 87.5q0 35 15 60.5t46 44.5q-26 15 -39 38t-13 53q0 66 60 100q-22 23 -33 51.5t-11 61.5q0 55 26.5 95.5t73.5 62.5t107 22q45 0 81 -12h178v-103h-63q5 -14 8.5 -30.5t3.5 -34.5q0 -54 -27.5 -94.5t-74.5 -63t-106 -22.5
q-22 0 -41.5 3.5t-37.5 10.5q-17 -8 -17 -26q0 -32 52 -32h102q60 0 104 -17t68 -52t24 -91q0 -60 -34.5 -99t-91 -58t-121.5 -19zM256 -119q41 0 71 13t30 41q0 51 -70 51h-62q-34 0 -52 -12.5t-18 -38.5q0 -20 14 -32t37 -17t50 -5zM245 260q33 0 54 19t21 49
q0 29 -21 48.5t-54 19.5q-34 0 -54 -19.5t-20 -48.5q0 -30 20 -49t54 -19zM242 540q-37 0 -65.5 27.5t-28.5 67.5q0 41 28.5 68t65.5 27q41 0 69 -27t28 -68q0 -40 -28 -67.5t-69 -27.5z" />
    <glyph glyph-name="uni0122" unicode="&#x122;" horiz-adv-x="750" 
d="M357 -12q-99 0 -173.5 44.5t-115.5 124.5t-41 187q0 103 40.5 186t120 132.5t196.5 49.5q126 0 208.5 -60t107.5 -167h-174q-16 39 -51 60.5t-91 21.5q-57 0 -101 -26.5t-69.5 -76.5t-25.5 -122q0 -70 25 -118t67.5 -72t94.5 -24q75 0 117 32.5t58 84.5h-203v136h366
v-381h-145l-12 77q-31 -43 -79.5 -66t-119.5 -23zM313 -298v60q52 0 52 65v16h-62v115h124q11 -30 15 -58t4 -52q0 -67 -33 -106.5t-100 -39.5z" />
    <glyph glyph-name="uni0123" unicode="&#x123;" horiz-adv-x="514" 
d="M252 -232q-68 0 -122 15t-85.5 48.5t-31.5 87.5q0 35 15 60.5t46 44.5q-26 15 -39 38t-13 53q0 66 60 100q-22 23 -33 51.5t-11 61.5q0 55 26.5 95.5t73.5 62.5t107 22q45 0 81 -12h178v-103h-63q5 -14 8.5 -30.5t3.5 -34.5q0 -54 -27.5 -94.5t-74.5 -63t-106 -22.5
q-22 0 -41.5 3.5t-37.5 10.5q-17 -8 -17 -26q0 -32 52 -32h102q60 0 104 -17t68 -52t24 -91q0 -60 -34.5 -99t-91 -58t-121.5 -19zM256 -119q41 0 71 13t30 41q0 51 -70 51h-62q-34 0 -52 -12.5t-18 -38.5q0 -20 14 -32t37 -17t50 -5zM245 260q33 0 54 19t21 49
q0 29 -21 48.5t-54 19.5q-34 0 -54 -19.5t-20 -48.5q0 -30 20 -49t54 -19zM300 851v-60q-52 0 -52 -65v-16h62v-115h-124q-11 30 -15 58t-4 52q0 67 33 106.5t100 39.5z" />
    <glyph glyph-name="Hbar" unicode="&#x126;" horiz-adv-x="691" 
d="M48 0v479h-38v137h38v84h158v-84h281v84h157v-84h37v-137h-37v-479h-157v302h-281v-302h-158zM206 438h281v41h-281v-41z" />
    <glyph glyph-name="hbar" unicode="&#x127;" horiz-adv-x="542" 
d="M29 0v548h-38v110h38v42h154v-42h152v-110h-152v-112q27 38 64 55t83 17q93 0 141 -59.5t48 -154.5v-294h-153v275q0 47 -23 75.5t-69 28.5q-45 0 -68 -29.5t-23 -74.5v-275h-154z" />
    <glyph glyph-name="Itilde" unicode="&#x128;" horiz-adv-x="254" 
d="M48 0v700h158v-700h-158zM187 749q-28 0 -47 11.5t-36 23t-41 11.5q-33 0 -41 -45h-77q11 72 43 105.5t80 33.5q29 0 47.5 -11.5t35.5 -22.5t40 -11q17 0 27.5 11t13.5 34h77q-10 -74 -42.5 -107t-79.5 -33z" />
    <glyph glyph-name="itilde" unicode="&#x129;" horiz-adv-x="214" 
d="M29 0v496h154v-496h-154zM167 563q-28 0 -47 11.5t-36 23t-41 11.5q-17 0 -27 -11t-14 -34h-77q11 72 43 105.5t80 33.5q29 0 47.5 -11.5t35.5 -22.5t40 -11q17 0 27.5 11t13.5 34h77q-10 -74 -42.5 -107t-79.5 -33z" />
    <glyph glyph-name="Imacron" unicode="&#x12a;" horiz-adv-x="254" 
d="M48 0v700h158v-700h-158zM-59 774v110h372v-110h-372z" />
    <glyph glyph-name="imacron" unicode="&#x12b;" horiz-adv-x="214" 
d="M29 0v496h154v-496h-154zM-79 580v110h372v-110h-372z" />
    <glyph glyph-name="Ibreve" unicode="&#x12c;" horiz-adv-x="254" 
d="M48 0v700h158v-700h-158zM126 746q-74 0 -119.5 42.5t-45.5 121.5v18h80q0 -32 18.5 -50t66.5 -18q50 0 68.5 18t18.5 50h79v-19q0 -79 -46 -121t-120 -42z" />
    <glyph glyph-name="ibreve" unicode="&#x12d;" horiz-adv-x="214" 
d="M29 0v496h154v-496h-154zM106 540q-74 0 -119.5 42.5t-45.5 121.5v18h80q0 -32 18.5 -50t66.5 -18q50 0 68.5 18t18.5 50h79v-19q0 -79 -46 -121t-120 -42z" />
    <glyph glyph-name="Iogonek" unicode="&#x12e;" horiz-adv-x="254" 
d="M48 0v700h158v-700h-158zM117 -215q-59 0 -101 26.5t-42 83.5q0 43 33.5 81t122.5 77l41 18l35 -71l-48 -25q-36 -19 -52 -33.5t-16 -31.5q0 -16 12.5 -26t34.5 -10q33 0 75 15v-89q-19 -5 -44 -10t-51 -5z" />
    <glyph glyph-name="iogonek" unicode="&#x12f;" horiz-adv-x="214" 
d="M29 0v496h154v-496h-154zM105 540q-37 0 -65.5 27.5t-28.5 67.5q0 41 28.5 68t65.5 27q41 0 69 -27t28 -68q0 -40 -28 -67.5t-69 -27.5zM94 -215q-59 0 -101 26.5t-42 83.5q0 43 33.5 81t122.5 77l41 18l35 -71l-48 -25q-36 -19 -52 -33.5t-16 -31.5q0 -16 12.5 -26
t34.5 -10q33 0 75 15v-89q-19 -5 -44 -10t-51 -5z" />
    <glyph glyph-name="Idotaccent" unicode="&#x130;" horiz-adv-x="254" 
d="M48 0v700h158v-700h-158zM127 759q-37 0 -65.5 27.5t-28.5 67.5q0 41 28.5 68t65.5 27q41 0 69 -27t28 -68q0 -40 -28 -67.5t-69 -27.5z" />
    <glyph glyph-name="dotlessi" unicode="&#x131;" horiz-adv-x="214" 
d="M29 0v496h154v-496h-154z" />
    <glyph glyph-name="IJ" unicode="&#x132;" horiz-adv-x="775" 
d="M48 0v700h158v-700h-158zM502 -12q-106 0 -172.5 60.5t-66.5 174.5h156q2 -46 22 -70.5t57 -24.5q35 0 53.5 22.5t18.5 62.5v487h157v-487q0 -109 -61 -167t-164 -58z" />
    <glyph glyph-name="ij" unicode="&#x133;" horiz-adv-x="438" 
d="M110 540q-39 0 -67 28t-28 67t28 67t67 28q41 0 68 -28t27 -67t-27 -67t-68 -28zM33 0v496h154v-496h-154zM169 -220v131h37q23 0 35 9.5t12 32.5v543h154v-541q0 -60 -20.5 -98.5t-60 -57.5t-97.5 -19h-60zM330 540q-40 0 -67.5 28t-27.5 67t27.5 67t67.5 28
q39 0 67 -28t28 -67t-28 -67t-67 -28z" />
    <glyph glyph-name="uni0136" unicode="&#x136;" horiz-adv-x="645" 
d="M615 700l-245 -266l273 -434h-183l-194 323l-61 -67v-256h-158v700h158v-237l216 237h194zM261 -298v60q52 0 52 65v16h-62v115h124q11 -30 15 -58t4 -52q0 -67 -33 -106.5t-100 -39.5z" />
    <glyph glyph-name="uni0137" unicode="&#x137;" horiz-adv-x="519" 
d="M29 0v700h154v-402l147 198h190l-204 -246l211 -250h-191l-153 211v-211h-154zM198 -298v60q52 0 52 65v16h-62v115h124q11 -30 15 -58t4 -52q0 -67 -33 -106.5t-100 -39.5z" />
    <glyph glyph-name="Lacute" unicode="&#x139;" horiz-adv-x="522" 
d="M47 0v700h158v-563h286v-137h-444zM45 739v108l237 119v-125z" />
    <glyph glyph-name="lacute" unicode="&#x13a;" horiz-adv-x="217" 
d="M31 0v700h154v-700h-154zM-10 731v108l237 119v-125z" />
    <glyph glyph-name="uni013B" unicode="&#x13b;" horiz-adv-x="522" 
d="M47 0v700h158v-563h286v-137h-444zM199 -298v60q52 0 52 65v16h-62v115h124q11 -30 15 -58t4 -52q0 -67 -33 -106.5t-100 -39.5z" />
    <glyph glyph-name="uni013C" unicode="&#x13c;" horiz-adv-x="217" 
d="M31 0v700h154v-700h-154zM47 -298v60q52 0 52 65v16h-62v115h124q11 -30 15 -58t4 -52q0 -67 -33 -106.5t-100 -39.5z" />
    <glyph glyph-name="Lcaron" unicode="&#x13d;" horiz-adv-x="522" 
d="M47 0v700h158v-563h286v-137h-444zM273 546l48 154h143l-92 -154h-99z" />
    <glyph glyph-name="lcaron" unicode="&#x13e;" horiz-adv-x="217" 
d="M31 0v700h154v-700h-154zM214 546l48 154h143l-92 -154h-99z" />
    <glyph glyph-name="Ldot" unicode="&#x13f;" horiz-adv-x="522" 
d="M47 0v700h158v-563h286v-137h-444zM367 255q-40 0 -67.5 28t-27.5 67t27.5 67t67.5 28q39 0 67 -28t28 -67t-28 -67t-67 -28z" />
    <glyph glyph-name="ldot" unicode="&#x140;" horiz-adv-x="359" 
d="M33 0v700h154v-700h-154zM293 295q-30 0 -50 19t-20 50q0 29 20 50t50 21q29 0 49.5 -21t20.5 -50q0 -31 -20.5 -50t-49.5 -19z" />
    <glyph glyph-name="Lslash" unicode="&#x141;" horiz-adv-x="544" 
d="M70 0v279l-67 -22v132l67 22v289h157v-240l91 27v-132l-91 -27v-191h286v-137h-443z" />
    <glyph glyph-name="lslash" unicode="&#x142;" horiz-adv-x="350" 
d="M88 0v288l-68 -20v133l68 20v279h154v-229l68 21v-133l-68 -20v-339h-154z" />
    <glyph glyph-name="Nacute" unicode="&#x143;" horiz-adv-x="709" 
d="M47 0v700h158l299 -441v441h158v-700h-158l-299 439v-439h-158zM236 739v108l237 119v-125z" />
    <glyph glyph-name="nacute" unicode="&#x144;" horiz-adv-x="543" 
d="M29 0v496h154v-60q27 38 64 55t83 17q93 0 141 -59.5t48 -154.5v-294h-153v275q0 47 -23 75.5t-69 28.5q-45 0 -68 -29.5t-23 -74.5v-275h-154zM152 527v108l237 119v-125z" />
    <glyph glyph-name="uni0145" unicode="&#x145;" horiz-adv-x="709" 
d="M47 0v700h158l299 -441v441h158v-700h-158l-299 439v-439h-158zM293 -298v60q52 0 52 65v16h-62v115h124q11 -30 15 -58t4 -52q0 -67 -33 -106.5t-100 -39.5z" />
    <glyph glyph-name="uni0146" unicode="&#x146;" horiz-adv-x="543" 
d="M29 0v496h154v-60q27 38 64 55t83 17q93 0 141 -59.5t48 -154.5v-294h-153v275q0 47 -23 75.5t-69 28.5q-45 0 -68 -29.5t-23 -74.5v-275h-154zM209 -298v60q52 0 52 65v16h-62v115h124q11 -30 15 -58t4 -52q0 -67 -33 -106.5t-100 -39.5z" />
    <glyph glyph-name="Ncaron" unicode="&#x147;" horiz-adv-x="709" 
d="M47 0v700h158l299 -441v441h158v-700h-158l-299 439v-439h-158zM355 741l-152 78v110l152 -85l152 85v-110z" />
    <glyph glyph-name="ncaron" unicode="&#x148;" horiz-adv-x="543" 
d="M29 0v496h154v-60q27 38 64 55t83 17q93 0 141 -59.5t48 -154.5v-294h-153v275q0 47 -23 75.5t-69 28.5q-45 0 -68 -29.5t-23 -74.5v-275h-154zM271 538l-152 78v110l152 -85l152 85v-110z" />
    <glyph glyph-name="Eng" unicode="&#x14a;" horiz-adv-x="709" 
d="M47 0v700h158l299 -441v441h158v-745q0 -60 -20.5 -98.5t-60 -57.5t-97.5 -19h-60v131h33q23 0 35 9.5t12 32.5v47l-299 439v-439h-158z" />
    <glyph glyph-name="eng" unicode="&#x14b;" horiz-adv-x="542" 
d="M281 -220v131h38q23 0 35 9.5t12 32.5v322q0 47 -23 75.5t-69 28.5q-45 0 -68 -29.5t-23 -74.5v-275h-154v496h154v-60q27 38 64 55t83 17q93 0 141 -59.5t48 -154.5v-339q0 -60 -20.5 -98.5t-60 -57.5t-97.5 -19h-60z" />
    <glyph glyph-name="Omacron" unicode="&#x14c;" horiz-adv-x="786" 
d="M392 -12q-72 0 -137.5 25t-117 72t-81 114t-29.5 151t29.5 151t81 114t117 72t137.5 25t138 -25t117.5 -72t81.5 -114t30 -151t-30 -151t-81.5 -114t-117.5 -72t-138 -25zM392 131q49 0 96 24t77.5 72.5t30.5 122.5q0 75 -31 123.5t-78 72t-95 23.5t-94.5 -23.5t-77 -72
t-30.5 -123.5q0 -74 30 -122.5t76.5 -72.5t95.5 -24zM207 774v110h372v-110h-372z" />
    <glyph glyph-name="omacron" unicode="&#x14d;" horiz-adv-x="560" 
d="M278 -12q-72 0 -131.5 30.5t-95 88.5t-35.5 141q0 79 34.5 137t94.5 90.5t135 32.5q80 0 139 -33.5t92 -92t33 -134.5q0 -79 -35 -137.5t-95 -90.5t-136 -32zM279 122q33 0 57 16t37.5 45t13.5 66q0 41 -14.5 68.5t-39 41.5t-54.5 14q-31 0 -55.5 -15t-38.5 -43t-14 -67
q0 -37 13.5 -65.5t37.5 -44.5t57 -16zM94 580v110h372v-110h-372z" />
    <glyph glyph-name="Obreve" unicode="&#x14e;" horiz-adv-x="786" 
d="M392 -12q-72 0 -137.5 25t-117 72t-81 114t-29.5 151t29.5 151t81 114t117 72t137.5 25t138 -25t117.5 -72t81.5 -114t30 -151t-30 -151t-81.5 -114t-117.5 -72t-138 -25zM392 131q49 0 96 24t77.5 72.5t30.5 122.5q0 75 -31 123.5t-78 72t-95 23.5t-94.5 -23.5t-77 -72
t-30.5 -123.5q0 -74 30 -122.5t76.5 -72.5t95.5 -24zM392 746q-74 0 -119.5 42.5t-45.5 121.5v18h80q0 -32 18.5 -50t66.5 -18q50 0 68.5 18t18.5 50h79v-19q0 -79 -46 -121t-120 -42z" />
    <glyph glyph-name="obreve" unicode="&#x14f;" horiz-adv-x="560" 
d="M278 -12q-72 0 -131.5 30.5t-95 88.5t-35.5 141q0 79 34.5 137t94.5 90.5t135 32.5q80 0 139 -33.5t92 -92t33 -134.5q0 -79 -35 -137.5t-95 -90.5t-136 -32zM279 122q33 0 57 16t37.5 45t13.5 66q0 41 -14.5 68.5t-39 41.5t-54.5 14q-31 0 -55.5 -15t-38.5 -43t-14 -67
q0 -37 13.5 -65.5t37.5 -44.5t57 -16zM279 540q-74 0 -119.5 42.5t-45.5 121.5v18h80q0 -32 18.5 -50t66.5 -18q50 0 68.5 18t18.5 50h79v-19q0 -79 -46 -121t-120 -42z" />
    <glyph glyph-name="Ohungarumlaut" unicode="&#x150;" horiz-adv-x="786" 
d="M392 -12q-72 0 -137.5 25t-117 72t-81 114t-29.5 151t29.5 151t81 114t117 72t137.5 25t138 -25t117.5 -72t81.5 -114t30 -151t-30 -151t-81.5 -114t-117.5 -72t-138 -25zM392 131q49 0 96 24t77.5 72.5t30.5 122.5q0 75 -31 123.5t-78 72t-95 23.5t-94.5 -23.5t-77 -72
t-30.5 -123.5q0 -74 30 -122.5t76.5 -72.5t95.5 -24zM379 745l87 199h126l-117 -199h-96zM193 745l74 199h125l-102 -199h-97z" />
    <glyph glyph-name="ohungarumlaut" unicode="&#x151;" horiz-adv-x="560" 
d="M278 -12q-72 0 -131.5 30.5t-95 88.5t-35.5 141q0 79 34.5 137t94.5 90.5t135 32.5q80 0 139 -33.5t92 -92t33 -134.5q0 -79 -35 -137.5t-95 -90.5t-136 -32zM279 122q33 0 57 16t37.5 45t13.5 66q0 41 -14.5 68.5t-39 41.5t-54.5 14q-31 0 -55.5 -15t-38.5 -43t-14 -67
q0 -37 13.5 -65.5t37.5 -44.5t57 -16zM303 541l87 199h126l-117 -199h-96zM117 541l74 199h125l-102 -199h-97z" />
    <glyph glyph-name="OE" unicode="&#x152;" horiz-adv-x="1060" 
d="M370 -12q-75 0 -138 27t-109 76t-71 115t-25 144q0 81 26 147t72.5 114.5t109 74.5t135.5 26q59 0 118.5 -24t93.5 -70v82h444v-136h-286v-127h239v-137h-239v-164h286v-136h-444v77q-34 -42 -93.5 -65.5t-118.5 -23.5zM385 130q50 0 87.5 19.5t62 51.5t37 71t12.5 78
q0 66 -26.5 115.5t-71.5 77t-101 27.5q-68 0 -111.5 -32.5t-64.5 -83t-21 -104.5q0 -51 15.5 -91.5t42.5 -69t63 -44t76 -15.5z" />
    <glyph glyph-name="oe" unicode="&#x153;" horiz-adv-x="909" 
d="M277 -12q-70 0 -130.5 30.5t-96.5 91.5q-16 30 -25 64t-9 74q0 72 32.5 133.5t96.5 94.5q61 32 134 32q51 0 100.5 -19t83.5 -57q35 38 82 57t99 19q67 0 125 -27.5t95 -91.5q32 -58 32 -132q0 -12 -1 -22.5t-3 -21.5h-350q2 -44 26 -71.5t68 -27.5q29 0 49.5 12t31.5 37
h165q-14 -57 -50 -96t-86 -59t-105 -20q-52 0 -98.5 18t-79.5 58q-35 -39 -83.5 -57.5t-102.5 -18.5zM277 121q26 0 50.5 13t40.5 41t16 73q0 37 -13 65.5t-36.5 45t-56.5 16.5t-56 -16.5t-35.5 -45t-12.5 -65.5q0 -36 12 -65t35.5 -45.5t55.5 -16.5zM543 290h194
q0 41 -26 67.5t-70 26.5q-27 0 -48 -12t-34 -33t-16 -49z" />
    <glyph glyph-name="Racute" unicode="&#x154;" horiz-adv-x="610" 
d="M47 0v700h267q72 0 127 -25t86 -71.5t31 -110.5q0 -70 -38 -117t-105 -67l191 -309h-182l-167 285h-52v-285h-158zM205 419h106q37 0 55.5 11.5t25.5 28.5t7 34t-7 33.5t-25.5 27.5t-55.5 11h-106v-146zM187 739v108l237 119v-125z" />
    <glyph glyph-name="racute" unicode="&#x155;" horiz-adv-x="349" 
d="M29 0v496h154v-77q26 38 66 63.5t92 25.5v-163h-43q-58 0 -86.5 -26t-28.5 -86v-233h-154zM56 527v108l237 119v-125z" />
    <glyph glyph-name="uni0156" unicode="&#x156;" horiz-adv-x="610" 
d="M47 0v700h267q72 0 127 -25t86 -71.5t31 -110.5q0 -70 -38 -117t-105 -67l191 -309h-182l-167 285h-52v-285h-158zM205 419h106q37 0 55.5 11.5t25.5 28.5t7 34t-7 33.5t-25.5 27.5t-55.5 11h-106v-146zM249 -298v60q52 0 52 65v16h-62v115h124q11 -30 15 -58t4 -52
q0 -67 -33 -106.5t-100 -39.5z" />
    <glyph glyph-name="uni0157" unicode="&#x157;" horiz-adv-x="349" 
d="M29 0v496h154v-77q26 38 66 63.5t92 25.5v-163h-43q-58 0 -86.5 -26t-28.5 -86v-233h-154zM51 -298v60q52 0 52 65v16h-62v115h124q11 -30 15 -58t4 -52q0 -67 -33 -106.5t-100 -39.5z" />
    <glyph glyph-name="Rcaron" unicode="&#x158;" horiz-adv-x="610" 
d="M47 0v700h267q72 0 127 -25t86 -71.5t31 -110.5q0 -70 -38 -117t-105 -67l191 -309h-182l-167 285h-52v-285h-158zM205 419h106q37 0 55.5 11.5t25.5 28.5t7 34t-7 33.5t-25.5 27.5t-55.5 11h-106v-146zM306 741l-152 78v110l152 -85l152 85v-110z" />
    <glyph glyph-name="rcaron" unicode="&#x159;" horiz-adv-x="349" 
d="M29 0v496h154v-77q26 38 66 63.5t92 25.5v-163h-43q-58 0 -86.5 -26t-28.5 -86v-233h-154zM175 538l-152 78v110l152 -85l152 85v-110z" />
    <glyph glyph-name="Sacute" unicode="&#x15a;" horiz-adv-x="576" 
d="M297 -12q-74 0 -134.5 24.5t-97 74t-39.5 125.5h166q4 -35 28.5 -63t74.5 -28q43 0 64.5 19t21.5 50q0 14 -4.5 26t-17.5 23.5t-39.5 23.5t-70.5 26q-82 26 -128 61t-64.5 75t-18.5 82q1 68 34 113.5t88 68.5t123 23t124.5 -23.5t91.5 -69.5t36 -114h-170q-1 27 -23 51
t-65 24q-31 -1 -52.5 -17.5t-21.5 -46.5q0 -26 22 -45t62.5 -35t94.5 -34q41 -14 72.5 -32.5t52.5 -43t32 -55.5t11 -70q0 -64 -32.5 -112t-89.5 -74.5t-131 -26.5zM169 739v108l237 119v-125z" />
    <glyph glyph-name="sacute" unicode="&#x15b;" horiz-adv-x="470" 
d="M249 -12q-54 0 -106.5 19.5t-87.5 58t-39 95.5h153q4 -28 26.5 -43.5t51.5 -15.5q24 0 42.5 9.5t18.5 31.5q0 18 -17 28.5t-39.5 16.5t-39.5 10q-47 12 -88 27t-66.5 44t-25.5 82q0 51 28 86t75 53t103 18q88 0 145.5 -43.5t67.5 -128.5h-143q-5 30 -25 43.5t-50 13.5
q-22 0 -39 -8.5t-17 -30.5q0 -18 16.5 -28.5t38.5 -15.5t40 -10q48 -12 88.5 -28t66.5 -45.5t27 -84.5q0 -49 -28.5 -83.5t-75 -52.5t-101.5 -18zM116 527v108l237 119v-125z" />
    <glyph glyph-name="Scedilla" unicode="&#x15e;" horiz-adv-x="576" 
d="M297 -12q-74 0 -134.5 24.5t-97 74t-39.5 125.5h166q4 -35 28.5 -63t74.5 -28q43 0 64.5 19t21.5 50q0 14 -4.5 26t-17.5 23.5t-39.5 23.5t-70.5 26q-82 26 -128 61t-64.5 75t-18.5 82q1 68 34 113.5t88 68.5t123 23t124.5 -23.5t91.5 -69.5t36 -114h-170q-1 27 -23 51
t-65 24q-31 -1 -52.5 -17.5t-21.5 -46.5q0 -26 22 -45t62.5 -35t94.5 -34q41 -14 72.5 -32.5t52.5 -43t32 -55.5t11 -70q0 -64 -32.5 -112t-89.5 -74.5t-131 -26.5zM183 -266v88h125q43 0 43 28q0 29 -43 29h-69v138h96v-58q33 1 63 -11t49 -37t19 -63q0 -39 -20 -64
t-51 -37.5t-65 -12.5h-147z" />
    <glyph glyph-name="scedilla" unicode="&#x15f;" horiz-adv-x="470" 
d="M249 -12q-54 0 -106.5 19.5t-87.5 58t-39 95.5h153q4 -28 26.5 -43.5t51.5 -15.5q24 0 42.5 9.5t18.5 31.5q0 18 -17 28.5t-39.5 16.5t-39.5 10q-47 12 -88 27t-66.5 44t-25.5 82q0 51 28 86t75 53t103 18q88 0 145.5 -43.5t67.5 -128.5h-143q-5 30 -25 43.5t-50 13.5
q-22 0 -39 -8.5t-17 -30.5q0 -18 16.5 -28.5t38.5 -15.5t40 -10q48 -12 88.5 -28t66.5 -45.5t27 -84.5q0 -49 -28.5 -83.5t-75 -52.5t-101.5 -18zM139 -266v88h125q43 0 43 28q0 29 -43 29h-69v138h96v-58q33 1 63 -11t49 -37t19 -63q0 -39 -20 -64t-51 -37.5t-65 -12.5
h-147z" />
    <glyph glyph-name="Scaron" unicode="&#x160;" horiz-adv-x="576" 
d="M297 -12q-74 0 -134.5 24.5t-97 74t-39.5 125.5h166q4 -35 28.5 -63t74.5 -28q43 0 64.5 19t21.5 50q0 14 -4.5 26t-17.5 23.5t-39.5 23.5t-70.5 26q-82 26 -128 61t-64.5 75t-18.5 82q1 68 34 113.5t88 68.5t123 23t124.5 -23.5t91.5 -69.5t36 -114h-170q-1 27 -23 51
t-65 24q-31 -1 -52.5 -17.5t-21.5 -46.5q0 -26 22 -45t62.5 -35t94.5 -34q41 -14 72.5 -32.5t52.5 -43t32 -55.5t11 -70q0 -64 -32.5 -112t-89.5 -74.5t-131 -26.5zM288 741l-152 78v110l152 -85l152 85v-110z" />
    <glyph glyph-name="scaron" unicode="&#x161;" horiz-adv-x="470" 
d="M249 -12q-54 0 -106.5 19.5t-87.5 58t-39 95.5h153q4 -28 26.5 -43.5t51.5 -15.5q24 0 42.5 9.5t18.5 31.5q0 18 -17 28.5t-39.5 16.5t-39.5 10q-47 12 -88 27t-66.5 44t-25.5 82q0 51 28 86t75 53t103 18q88 0 145.5 -43.5t67.5 -128.5h-143q-5 30 -25 43.5t-50 13.5
q-22 0 -39 -8.5t-17 -30.5q0 -18 16.5 -28.5t38.5 -15.5t40 -10q48 -12 88.5 -28t66.5 -45.5t27 -84.5q0 -49 -28.5 -83.5t-75 -52.5t-101.5 -18zM235 538l-152 78v110l152 -85l152 85v-110z" />
    <glyph glyph-name="uni0162" unicode="&#x162;" horiz-adv-x="580" 
d="M210 0v564h-201v136h560v-136h-202v-564h-157zM184 -266v88h125q43 0 43 28q0 29 -43 29h-69v138h96v-58q33 1 63 -11t49 -37t19 -63q0 -39 -20 -64t-51 -37.5t-65 -12.5h-147z" />
    <glyph glyph-name="uni0163" unicode="&#x163;" horiz-adv-x="327" 
d="M230 0q-88 0 -132.5 43t-44.5 132v194h-52v127h52v123h154v-123h101v-127h-101v-196q0 -25 10.5 -33.5t35.5 -8.5h55v-131h-78zM100 -266v88h125q43 0 43 28q0 29 -43 29h-69v138h96v-58q33 1 63 -11t49 -37t19 -63q0 -39 -20 -64t-51 -37.5t-65 -12.5h-147z" />
    <glyph glyph-name="Tcaron" unicode="&#x164;" horiz-adv-x="580" 
d="M210 0v564h-201v136h560v-136h-202v-564h-157zM289 741l-152 78v110l152 -85l152 85v-110z" />
    <glyph glyph-name="tcaron" unicode="&#x165;" horiz-adv-x="327" 
d="M230 0q-88 0 -132.5 43t-44.5 132v194h-52v127h52v123h154v-123h101v-127h-101v-196q0 -25 10.5 -33.5t35.5 -8.5h55v-131h-78zM251 546l48 154h143l-92 -154h-99z" />
    <glyph glyph-name="Utilde" unicode="&#x168;" horiz-adv-x="664" 
d="M329 -12q-98 0 -161 39t-93 104t-30 144v425h157v-426q0 -68 33 -104.5t97 -36.5q63 0 97.5 36.5t34.5 104.5v426h157v-425q0 -82 -27 -137t-70.5 -88t-95 -47.5t-99.5 -14.5zM392 749q-28 0 -47 11.5t-36 23t-41 11.5q-33 0 -41 -45h-77q11 72 43 105.5t80 33.5
q29 0 47.5 -11.5t35.5 -22.5t40 -11q17 0 27.5 11t13.5 34h77q-10 -74 -42.5 -107t-79.5 -33z" />
    <glyph glyph-name="utilde" unicode="&#x169;" horiz-adv-x="543" 
d="M213 -12q-62 0 -104.5 27.5t-64 76t-21.5 110.5v294h153v-275q0 -46 23 -75t69 -29t69 29t23 75v275h154v-496h-154v62q-26 -37 -64 -55.5t-83 -18.5zM324 563q-28 0 -47 11.5t-36 23t-41 11.5q-17 0 -27 -11t-14 -34h-77q11 72 43 105.5t80 33.5q29 0 47.5 -11.5
t35.5 -22.5t40 -11q17 0 27.5 11t13.5 34h77q-10 -74 -42.5 -107t-79.5 -33z" />
    <glyph glyph-name="Umacron" unicode="&#x16a;" horiz-adv-x="664" 
d="M329 -12q-98 0 -161 39t-93 104t-30 144v425h157v-426q0 -68 33 -104.5t97 -36.5q63 0 97.5 36.5t34.5 104.5v426h157v-425q0 -82 -27 -137t-70.5 -88t-95 -47.5t-99.5 -14.5zM146 774v110h372v-110h-372z" />
    <glyph glyph-name="umacron" unicode="&#x16b;" horiz-adv-x="543" 
d="M213 -12q-62 0 -104.5 27.5t-64 76t-21.5 110.5v294h153v-275q0 -46 23 -75t69 -29t69 29t23 75v275h154v-496h-154v62q-26 -37 -64 -55.5t-83 -18.5zM78 580v110h372v-110h-372z" />
    <glyph glyph-name="Ubreve" unicode="&#x16c;" horiz-adv-x="664" 
d="M329 -12q-98 0 -161 39t-93 104t-30 144v425h157v-426q0 -68 33 -104.5t97 -36.5q63 0 97.5 36.5t34.5 104.5v426h157v-425q0 -82 -27 -137t-70.5 -88t-95 -47.5t-99.5 -14.5zM331 746q-74 0 -119.5 42.5t-45.5 121.5v18h80q0 -32 18.5 -50t66.5 -18q50 0 68.5 18
t18.5 50h79v-19q0 -79 -46 -121t-120 -42z" />
    <glyph glyph-name="ubreve" unicode="&#x16d;" horiz-adv-x="543" 
d="M213 -12q-62 0 -104.5 27.5t-64 76t-21.5 110.5v294h153v-275q0 -46 23 -75t69 -29t69 29t23 75v275h154v-496h-154v62q-26 -37 -64 -55.5t-83 -18.5zM263 540q-74 0 -119.5 42.5t-45.5 121.5v18h80q0 -32 18.5 -50t66.5 -18q50 0 68.5 18t18.5 50h79v-19q0 -79 -46 -121
t-120 -42z" />
    <glyph glyph-name="Uring" unicode="&#x16e;" horiz-adv-x="664" 
d="M329 -12q-98 0 -161 39t-93 104t-30 144v425h157v-426q0 -68 33 -104.5t97 -36.5q63 0 97.5 36.5t34.5 104.5v426h157v-425q0 -82 -27 -137t-70.5 -88t-95 -47.5t-99.5 -14.5zM330 744q-47 0 -82.5 32t-35.5 86q0 55 35.5 86.5t82.5 31.5q51 0 86.5 -31.5t35.5 -86.5
q0 -54 -35.5 -86t-86.5 -32zM330 812q23 0 37 14t14 36q0 23 -14 37t-37 14q-19 0 -33 -14t-14 -37q0 -22 14 -36t33 -14z" />
    <glyph glyph-name="uring" unicode="&#x16f;" horiz-adv-x="543" 
d="M213 -12q-62 0 -104.5 27.5t-64 76t-21.5 110.5v294h153v-275q0 -46 23 -75t69 -29t69 29t23 75v275h154v-496h-154v62q-26 -37 -64 -55.5t-83 -18.5zM262 540q-47 0 -82.5 32t-35.5 86q0 55 35.5 86.5t82.5 31.5q51 0 86.5 -31.5t35.5 -86.5q0 -54 -35.5 -86t-86.5 -32z
M262 608q23 0 37 14t14 36q0 23 -14 37t-37 14q-19 0 -33 -14t-14 -37q0 -22 14 -36t33 -14z" />
    <glyph glyph-name="Uhungarumlaut" unicode="&#x170;" horiz-adv-x="664" 
d="M329 -12q-98 0 -161 39t-93 104t-30 144v425h157v-426q0 -68 33 -104.5t97 -36.5q63 0 97.5 36.5t34.5 104.5v426h157v-425q0 -82 -27 -137t-70.5 -88t-95 -47.5t-99.5 -14.5zM318 745l87 199h126l-117 -199h-96zM132 745l74 199h125l-102 -199h-97z" />
    <glyph glyph-name="uhungarumlaut" unicode="&#x171;" horiz-adv-x="543" 
d="M213 -12q-62 0 -104.5 27.5t-64 76t-21.5 110.5v294h153v-275q0 -46 23 -75t69 -29t69 29t23 75v275h154v-496h-154v62q-26 -37 -64 -55.5t-83 -18.5zM287 541l87 199h126l-117 -199h-96zM101 541l74 199h125l-102 -199h-97z" />
    <glyph glyph-name="Uogonek" unicode="&#x172;" horiz-adv-x="664" 
d="M329 -12q-98 0 -161 39t-93 104t-30 144v425h157v-426q0 -68 33 -104.5t97 -36.5q63 0 97.5 36.5t34.5 104.5v426h157v-425q0 -82 -27 -137t-70.5 -88t-95 -47.5t-99.5 -14.5zM333 -205q-59 0 -101 26.5t-42 83.5q0 43 33.5 81t122.5 77l41 18l35 -71l-48 -25
q-36 -19 -52 -33.5t-16 -31.5q0 -16 12.5 -26t34.5 -10q33 0 75 15v-89q-19 -5 -44 -10t-51 -5z" />
    <glyph glyph-name="uogonek" unicode="&#x173;" horiz-adv-x="543" 
d="M213 -12q-62 0 -104.5 27.5t-64 76t-21.5 110.5v294h153v-275q0 -46 23 -75t69 -29t69 29t23 75v275h154v-496h-154v62q-26 -37 -64 -55.5t-83 -18.5zM425 -215q-59 0 -101 26.5t-42 83.5q0 43 33.5 81t122.5 77l41 18l35 -71l-48 -25q-36 -19 -52 -33.5t-16 -31.5
q0 -16 12.5 -26t34.5 -10q33 0 75 15v-89q-19 -5 -44 -10t-51 -5z" />
    <glyph glyph-name="Wcircumflex" unicode="&#x174;" horiz-adv-x="997" 
d="M243 0l-238 700h161l173 -551l54 187l-128 364h158l77 -243l75 243h159l-129 -364l53 -187l174 551h161l-238 -700h-190l-65 211l-68 -211h-189zM347 742v109l152 79l152 -79v-109l-152 80z" />
    <glyph glyph-name="wcircumflex" unicode="&#x175;" horiz-adv-x="734" 
d="M120 0l-135 496h152l70 -355l84 355h161l84 -353l69 353h144l-135 -496h-168l-78 322l-81 -322h-167zM218 538v109l152 79l152 -79v-109l-152 80z" />
    <glyph glyph-name="Ycircumflex" unicode="&#x176;" horiz-adv-x="622" 
d="M233 0v291l-240 409h179l141 -249l140 249h176l-239 -409v-291h-157zM159 742v109l152 79l152 -79v-109l-152 80z" />
    <glyph glyph-name="ycircumflex" unicode="&#x177;" horiz-adv-x="533" 
d="M80 -220l107 237l-202 479h170l115 -310l114 310h164l-304 -716h-164zM115 538v109l152 79l152 -79v-109l-152 80z" />
    <glyph glyph-name="Ydieresis" unicode="&#x178;" horiz-adv-x="622" 
d="M233 0v291l-240 409h179l141 -249l140 249h176l-239 -409v-291h-157zM192 759q-40 0 -67.5 27.5t-27.5 67.5q0 41 27.5 68t67.5 27q41 0 68 -27t27 -68q0 -40 -27 -67.5t-68 -27.5zM430 759q-40 0 -67.5 27.5t-27.5 67.5q0 41 27.5 68t67.5 27q41 0 68 -27t27 -68
q0 -40 -27 -67.5t-68 -27.5z" />
    <glyph glyph-name="Zacute" unicode="&#x179;" horiz-adv-x="553" 
d="M32 0v119l305 450h-303v131h486v-119l-307 -448h308v-133h-489zM158 739v108l237 119v-125z" />
    <glyph glyph-name="zacute" unicode="&#x17a;" horiz-adv-x="409" 
d="M12 0v121l206 250h-204v125h379v-121l-211 -250h215v-125h-385zM86 527v108l237 119v-125z" />
    <glyph glyph-name="Zdotaccent" unicode="&#x17b;" horiz-adv-x="553" 
d="M32 0v119l305 450h-303v131h486v-119l-307 -448h308v-133h-489zM277 759q-37 0 -65.5 27.5t-28.5 67.5q0 41 28.5 68t65.5 27q41 0 69 -27t28 -68q0 -40 -28 -67.5t-69 -27.5z" />
    <glyph glyph-name="zdotaccent" unicode="&#x17c;" horiz-adv-x="409" 
d="M12 0v121l206 250h-204v125h379v-121l-211 -250h215v-125h-385zM203 540q-37 0 -65.5 27.5t-28.5 67.5q0 41 28.5 68t65.5 27q41 0 69 -27t28 -68q0 -40 -28 -67.5t-69 -27.5z" />
    <glyph glyph-name="Zcaron" unicode="&#x17d;" horiz-adv-x="553" 
d="M32 0v119l305 450h-303v131h486v-119l-307 -448h308v-133h-489zM277 741l-152 78v110l152 -85l152 85v-110z" />
    <glyph glyph-name="zcaron" unicode="&#x17e;" horiz-adv-x="409" 
d="M12 0v121l206 250h-204v125h379v-121l-211 -250h215v-125h-385zM205 538l-152 78v110l152 -85l152 85v-110z" />
    <glyph glyph-name="uni018F" unicode="&#x18f;" horiz-adv-x="740" 
d="M369 -12q-103 0 -179.5 41t-118.5 118q-44 75 -44 186q0 14 1 30t4 30h516q-3 56 -27.5 95.5t-63.5 59.5q-19 11 -41 16t-46 5q-57 0 -101 -26.5t-60 -71.5h-172q20 70 65.5 125t112.5 85q68 31 152 31q104 0 181.5 -45t120.5 -126q44 -81 44 -192q0 -108 -43.5 -189.5
t-120.5 -126.5q-76 -45 -180 -45zM365 132q47 0 87.5 18t65.5 52q25 33 30 83h-360q2 -46 25.5 -79.5t62.5 -53.5q40 -20 89 -20z" />
    <glyph glyph-name="florin" unicode="&#x192;" horiz-adv-x="335" 
d="M-61 -254l15 133h25q19 0 29 10.5t13 33.5l52 503h-55l13 130h57l2 27q10 101 73.5 148.5t183.5 47.5l-14 -132q-40 0 -61.5 -14.5t-24.5 -49.5l-2 -27h85l-12 -130h-87l-53 -503q-7 -68 -36 -106.5t-73.5 -54.5t-100.5 -16h-29z" />
    <glyph glyph-name="uni01CD" unicode="&#x1cd;" horiz-adv-x="692" 
d="M2 0l254 700h181l255 -700h-167l-49 145h-260l-50 -145h-164zM260 271h173l-88 255zM346 741l-152 78v110l152 -85l152 85v-110z" />
    <glyph glyph-name="uni01CE" unicode="&#x1ce;" horiz-adv-x="548" 
d="M180 -12q-43 0 -80 17.5t-59.5 51t-22.5 81.5q0 55 29 89.5t77.5 50.5t106.5 16h112q0 26 -9 46t-27 31.5t-45 11.5q-28 0 -51 -12t-29 -41h-149q4 55 37 94.5t84.5 61.5t110.5 22q69 0 121.5 -25.5t81.5 -73t29 -114.5v-127q0 -22 6.5 -34t34.5 -12v-122q-48 0 -80 6
t-54 22.5t-40 48.5q-33 -44 -78 -66.5t-106 -22.5zM234 106q29 0 53.5 12.5t39.5 35.5t15 52v6h-95q-20 0 -37 -5.5t-27 -17t-10 -31.5q0 -29 19 -40.5t42 -11.5zM265 538l-152 78v110l152 -85l152 85v-110z" />
    <glyph glyph-name="AEacute" unicode="&#x1fc;" horiz-adv-x="924" 
d="M2 0l365 700h522v-136h-259v-127h212v-136h-212v-165h259v-136h-416v121h-238l-63 -121h-170zM300 244h173v339zM439 739v108l237 119v-125z" />
    <glyph glyph-name="aeacute" unicode="&#x1fd;" horiz-adv-x="863" 
d="M202 -12q-56 0 -97.5 17t-64.5 50t-23 81q0 55 29.5 89.5t78 50.5t106.5 16h112q0 41 -20 66t-61 25q-28 0 -51 -12t-29 -41h-149q4 55 37 94.5t84.5 61.5t110.5 22q50 0 92 -14t73 -40q34 26 76 40t91 14q74 0 130.5 -30.5t89 -87t32.5 -134.5q0 -10 -0.5 -21.5
t-2.5 -23.5h-350q3 -36 17.5 -57t36 -30.5t42.5 -9.5q29 0 49 12t31 37h165q-11 -47 -44 -87t-82.5 -64t-113.5 -24q-58 0 -108.5 20.5t-85.5 60.5q-36 -42 -87.5 -61.5t-113.5 -19.5zM234 104q29 0 53.5 12.5t39.5 35.5t15 52v6h-95q-31 0 -52.5 -12.5t-21.5 -41.5
t19 -40.5t42 -11.5zM496 297h194q0 41 -27 64t-68 23q-40 0 -66 -23.5t-33 -63.5zM313 527v108l237 119v-125z" />
    <glyph glyph-name="uni0218" unicode="&#x218;" horiz-adv-x="576" 
d="M297 -12q-74 0 -134.5 24.5t-97 74t-39.5 125.5h166q4 -35 28.5 -63t74.5 -28q43 0 64.5 19t21.5 50q0 14 -4.5 26t-17.5 23.5t-39.5 23.5t-70.5 26q-82 26 -128 61t-64.5 75t-18.5 82q1 68 34 113.5t88 68.5t123 23t124.5 -23.5t91.5 -69.5t36 -114h-170q-1 27 -23 51
t-65 24q-31 -1 -52.5 -17.5t-21.5 -46.5q0 -26 22 -45t62.5 -35t94.5 -34q41 -14 72.5 -32.5t52.5 -43t32 -55.5t11 -70q0 -64 -32.5 -112t-89.5 -74.5t-131 -26.5zM226 -298v60q52 0 52 65v16h-62v115h124q11 -30 15 -58t4 -52q0 -67 -33 -106.5t-100 -39.5z" />
    <glyph glyph-name="uni0219" unicode="&#x219;" horiz-adv-x="470" 
d="M249 -12q-54 0 -106.5 19.5t-87.5 58t-39 95.5h153q4 -28 26.5 -43.5t51.5 -15.5q24 0 42.5 9.5t18.5 31.5q0 18 -17 28.5t-39.5 16.5t-39.5 10q-47 12 -88 27t-66.5 44t-25.5 82q0 51 28 86t75 53t103 18q88 0 145.5 -43.5t67.5 -128.5h-143q-5 30 -25 43.5t-50 13.5
q-22 0 -39 -8.5t-17 -30.5q0 -18 16.5 -28.5t38.5 -15.5t40 -10q48 -12 88.5 -28t66.5 -45.5t27 -84.5q0 -49 -28.5 -83.5t-75 -52.5t-101.5 -18zM183 -298v60q52 0 52 65v16h-62v115h124q11 -30 15 -58t4 -52q0 -67 -33 -106.5t-100 -39.5z" />
    <glyph glyph-name="uni021A" unicode="&#x21a;" horiz-adv-x="580" 
d="M210 0v564h-201v136h560v-136h-202v-564h-157zM227 -298v60q52 0 52 65v16h-62v115h124q11 -30 15 -58t4 -52q0 -67 -33 -106.5t-100 -39.5z" />
    <glyph glyph-name="uni021B" unicode="&#x21b;" horiz-adv-x="327" 
d="M230 0q-88 0 -132.5 43t-44.5 132v194h-52v127h52v123h154v-123h101v-127h-101v-196q0 -25 10.5 -33.5t35.5 -8.5h55v-131h-78zM144 -298v60q52 0 52 65v16h-62v115h124q11 -30 15 -58t4 -52q0 -67 -33 -106.5t-100 -39.5z" />
    <glyph glyph-name="uni0237" unicode="&#x237;" horiz-adv-x="219" 
d="M-50 -220v131h37q23 0 35 9.5t12 32.5v543h154v-541q0 -60 -20.5 -98.5t-60 -57.5t-97.5 -19h-60z" />
    <glyph glyph-name="uni0259" unicode="&#x259;" horiz-adv-x="542" 
d="M268 -12q-77 0 -134 32.5t-87.5 89.5t-30.5 130q0 11 1 22.5t2 22.5h350q-3 43 -28 70t-68 27q-28 0 -48.5 -12t-31.5 -37h-165q12 50 45.5 89.5t83.5 62.5t111 23q77 0 134.5 -32.5t89 -91t31.5 -136.5q0 -85 -34 -143t-92 -87.5t-129 -29.5zM270 112q36 0 64 22t34 65
h-193q0 -43 29 -65t66 -22z" />
    <glyph glyph-name="uni02B9" unicode="&#x2b9;" horiz-adv-x="210" 
d="M52 538l-12 217h132l-14 -217h-106z" />
    <glyph glyph-name="uni02BA" unicode="&#x2ba;" horiz-adv-x="391" 
d="M233 538l-13 217h131l-12 -217h-106zM51 538l-11 217h131l-13 -217h-107z" />
    <glyph glyph-name="circumflex" unicode="&#x2c6;" 
d="M-152 538v109l152 79l152 -79v-109l-152 80z" />
    <glyph glyph-name="caron" unicode="&#x2c7;" 
d="M0 538l-152 78v110l152 -85l152 85v-110z" />
    <glyph glyph-name="breve" unicode="&#x2d8;" 
d="M0 540q-74 0 -119.5 42.5t-45.5 121.5v18h80q0 -32 18.5 -50t66.5 -18q50 0 68.5 18t18.5 50h79v-19q0 -79 -46 -121t-120 -42z" />
    <glyph glyph-name="dotaccent" unicode="&#x2d9;" 
d="M-1 540q-37 0 -65.5 27.5t-28.5 67.5q0 41 28.5 68t65.5 27q41 0 69 -27t28 -68q0 -40 -28 -67.5t-69 -27.5z" />
    <glyph glyph-name="ring" unicode="&#x2da;" 
d="M-2 540q-47 0 -82.5 32t-35.5 86q0 55 35.5 86.5t82.5 31.5q51 0 86.5 -31.5t35.5 -86.5q0 -54 -35.5 -86t-86.5 -32zM-2 608q23 0 37 14t14 36q0 23 -14 37t-37 14q-19 0 -33 -14t-14 -37q0 -22 14 -36t33 -14z" />
    <glyph glyph-name="ogonek" unicode="&#x2db;" 
d="M24 -215q-59 0 -101 26.5t-42 83.5q0 43 33.5 81t122.5 77l41 18l35 -71l-48 -25q-36 -19 -52 -33.5t-16 -31.5q0 -16 12.5 -26t34.5 -10q33 0 75 15v-89q-19 -5 -44 -10t-51 -5z" />
    <glyph glyph-name="tilde" unicode="&#x2dc;" 
d="M61 563q-28 0 -47 11.5t-36 23t-41 11.5q-17 0 -27 -11t-14 -34h-77q11 72 43 105.5t80 33.5q29 0 47.5 -11.5t35.5 -22.5t40 -11q17 0 27.5 11t13.5 34h77q-10 -74 -42.5 -107t-79.5 -33z" />
    <glyph glyph-name="hungarumlaut" unicode="&#x2dd;" 
d="M-13 541l87 199h126l-117 -199h-96zM-199 541l74 199h125l-102 -199h-97z" />
    <glyph glyph-name="gravecomb" unicode="&#x300;" 
d="M237 527l-237 102v125l237 -119v-108z" />
    <glyph glyph-name="acutecomb" unicode="&#x301;" 
d="M0 527v108l237 119v-125z" />
    <glyph glyph-name="uni0302" unicode="&#x302;" 
d="M0 538v109l152 79l152 -79v-109l-152 80z" />
    <glyph glyph-name="tildecomb" unicode="&#x303;" 
d="M242 563q-28 0 -47 11.5t-36 23t-41 11.5q-17 0 -27 -11t-14 -34h-77q11 72 43 105.5t80 33.5q29 0 47.5 -11.5t35.5 -22.5t40 -11q17 0 27.5 11t13.5 34h77q-10 -74 -42.5 -107t-79.5 -33z" />
    <glyph glyph-name="uni0304" unicode="&#x304;" 
d="M0 580v110h372v-110h-372z" />
    <glyph glyph-name="uni0306" unicode="&#x306;" 
d="M165 540q-74 0 -119.5 42.5t-45.5 121.5v18h80q0 -32 18.5 -50t66.5 -18q50 0 68.5 18t18.5 50h79v-19q0 -79 -46 -121t-120 -42z" />
    <glyph glyph-name="uni0307" unicode="&#x307;" 
d="M94 540q-37 0 -65.5 27.5t-28.5 67.5q0 41 28.5 68t65.5 27q41 0 69 -27t28 -68q0 -40 -28 -67.5t-69 -27.5z" />
    <glyph glyph-name="uni0308" unicode="&#x308;" 
d="M95 540q-40 0 -67.5 27.5t-27.5 67.5q0 41 27.5 68t67.5 27q41 0 68 -27t27 -68q0 -40 -27 -67.5t-68 -27.5zM333 540q-40 0 -67.5 27.5t-27.5 67.5q0 41 27.5 68t67.5 27q41 0 68 -27t27 -68q0 -40 -27 -67.5t-68 -27.5z" />
    <glyph glyph-name="uni030A" unicode="&#x30a;" 
d="M118 540q-47 0 -82.5 32t-35.5 86q0 55 35.5 86.5t82.5 31.5q51 0 86.5 -31.5t35.5 -86.5q0 -54 -35.5 -86t-86.5 -32zM118 608q23 0 37 14t14 36q0 23 -14 37t-37 14q-19 0 -33 -14t-14 -37q0 -22 14 -36t33 -14z" />
    <glyph glyph-name="uni030B" unicode="&#x30b;" 
d="M186 541l87 199h126l-117 -199h-96zM0 541l74 199h125l-102 -199h-97z" />
    <glyph glyph-name="uni030C" unicode="&#x30c;" 
d="M152 538l-152 78v110l152 -85l152 85v-110z" />
    <glyph glyph-name="uni0312" unicode="&#x312;" 
d="M133 851v-60q-52 0 -52 -65v-16h62v-115h-124q-11 30 -15 58t-4 52q0 67 33 106.5t100 39.5z" />
    <glyph glyph-name="uni0326" unicode="&#x326;" 
d="M10 -298v60q52 0 52 65v16h-62v115h124q11 -30 15 -58t4 -52q0 -67 -33 -106.5t-100 -39.5z" />
    <glyph glyph-name="uni0327" unicode="&#x327;" 
d="M0 -266v88h125q43 0 43 28q0 29 -43 29h-69v138h96v-58q33 1 63 -11t49 -37t19 -63q0 -39 -20 -64t-51 -37.5t-65 -12.5h-147z" />
    <glyph glyph-name="uni0328" unicode="&#x328;" 
d="M143 -215q-59 0 -101 26.5t-42 83.5q0 43 33.5 81t122.5 77l41 18l35 -71l-48 -25q-36 -19 -52 -33.5t-16 -31.5q0 -16 12.5 -26t34.5 -10q33 0 75 15v-89q-19 -5 -44 -10t-51 -5z" />
    <glyph glyph-name="uni0394" unicode="&#x394;" horiz-adv-x="722" 
d="M18 0v120l279 580h128l278 -580v-120h-685zM180 120h362l-182 402z" />
    <glyph glyph-name="Pi" unicode="&#x3a0;" horiz-adv-x="648" 
d="M95 0v377h-71v119h599v-119h-72v-377h-157v377h-142v-377h-157z" />
    <glyph glyph-name="uni03A9" unicode="&#x3a9;" horiz-adv-x="787" 
d="M43 0v119h99q-57 49 -81.5 112t-24.5 136q0 78 27 141t76 109t114 70.5t141 24.5t141 -24.5t114 -70t76 -109t27 -141.5q0 -73 -24 -136t-83 -112h100v-119h-270v124q30 21 56.5 51.5t43.5 73.5t17 100q0 53 -14 93.5t-40.5 68.5t-62.5 42.5t-81 14.5q-52 0 -89.5 -18.5
t-61.5 -49.5t-35 -70t-11 -81q0 -54 15.5 -97t42 -74.5t58.5 -53.5v-124h-270z" />
    <glyph glyph-name="uni03BC" unicode="&#x3bc;" horiz-adv-x="640" 
d="M62 -220v716h158v-259q0 -55 22.5 -86t71.5 -31q48 0 76 32.5t28 88.5v255h158v-496h-136l-14 81q-24 -43 -65 -68t-102 -25q-11 0 -21 1t-18 4v-213h-158z" />
    <glyph glyph-name="Wgrave" unicode="&#x1e80;" horiz-adv-x="997" 
d="M243 0l-238 700h161l173 -551l54 187l-128 364h158l77 -243l75 243h159l-129 -364l53 -187l174 551h161l-238 -700h-190l-65 211l-68 -211h-189zM618 739l-237 102v125l237 -119v-108z" />
    <glyph glyph-name="wgrave" unicode="&#x1e81;" horiz-adv-x="734" 
d="M120 0l-135 496h152l70 -355l84 355h161l84 -353l69 353h144l-135 -496h-168l-78 322l-81 -322h-167zM488 527l-237 102v125l237 -119v-108z" />
    <glyph glyph-name="Wacute" unicode="&#x1e82;" horiz-adv-x="997" 
d="M243 0l-238 700h161l173 -551l54 187l-128 364h158l77 -243l75 243h159l-129 -364l53 -187l174 551h161l-238 -700h-190l-65 211l-68 -211h-189zM380 739v108l237 119v-125z" />
    <glyph glyph-name="wacute" unicode="&#x1e83;" horiz-adv-x="734" 
d="M120 0l-135 496h152l70 -355l84 355h161l84 -353l69 353h144l-135 -496h-168l-78 322l-81 -322h-167zM251 527v108l237 119v-125z" />
    <glyph glyph-name="Wdieresis" unicode="&#x1e84;" horiz-adv-x="997" 
d="M243 0l-238 700h161l173 -551l54 187l-128 364h158l77 -243l75 243h159l-129 -364l53 -187l174 551h161l-238 -700h-190l-65 211l-68 -211h-189zM380 759q-40 0 -67.5 27.5t-27.5 67.5q0 41 27.5 68t67.5 27q41 0 68 -27t27 -68q0 -40 -27 -67.5t-68 -27.5zM618 759
q-40 0 -67.5 27.5t-27.5 67.5q0 41 27.5 68t67.5 27q41 0 68 -27t27 -68q0 -40 -27 -67.5t-68 -27.5z" />
    <glyph glyph-name="wdieresis" unicode="&#x1e85;" horiz-adv-x="734" 
d="M120 0l-135 496h152l70 -355l84 355h161l84 -353l69 353h144l-135 -496h-168l-78 322l-81 -322h-167zM251 540q-40 0 -67.5 27.5t-27.5 67.5q0 41 27.5 68t67.5 27q41 0 68 -27t27 -68q0 -40 -27 -67.5t-68 -27.5zM489 540q-40 0 -67.5 27.5t-27.5 67.5q0 41 27.5 68
t67.5 27q41 0 68 -27t27 -68q0 -40 -27 -67.5t-68 -27.5z" />
    <glyph glyph-name="uni1E9E" unicode="&#x1e9e;" horiz-adv-x="682" 
d="M461 -10q-94 0 -155.5 48t-72.5 141h146q4 -33 24 -54t55 -21q27 0 45.5 12.5t18.5 39.5q0 22 -13 36t-32.5 23.5t-40.5 17.5q-36 13 -72.5 29t-61 41t-24.5 64q0 26 12 45t29 32q9 7 17.5 13t16.5 13q14 11 28 25.5t14 34.5q0 38 -30 54.5t-69 16.5q-37 0 -62 -12
t-37 -36.5t-12 -62.5v-490h-155v502q0 77 36.5 128t98.5 76.5t138 25.5q66 0 122.5 -21.5t91 -62.5t34.5 -101q0 -26 -11.5 -45.5t-29 -34t-35.5 -26.5q-10 -7 -24.5 -19t-14.5 -29q0 -13 10 -22.5t31 -19t53 -21.5q62 -23 103 -60t41 -105q0 -57 -29 -96t-77.5 -59
t-106.5 -20z" />
    <glyph glyph-name="uni1EBC" unicode="&#x1ebc;" horiz-adv-x="541" 
d="M47 0v700h460v-136h-302v-127h255v-136h-255v-165h302v-136h-460zM331 749q-28 0 -47 11.5t-36 23t-41 11.5q-33 0 -41 -45h-77q11 72 43 105.5t80 33.5q29 0 47.5 -11.5t35.5 -22.5t40 -11q17 0 27.5 11t13.5 34h77q-10 -74 -42.5 -107t-79.5 -33z" />
    <glyph glyph-name="uni1EBD" unicode="&#x1ebd;" horiz-adv-x="537" 
d="M271 -12q-69 0 -127 29.5t-93 87.5t-35 143t34 143t92 87.5t129 29.5q74 0 130.5 -30.5t89 -87t32.5 -134.5q0 -10 -0.5 -21.5t-2.5 -23.5h-350q3 -36 17.5 -57t36 -30.5t42.5 -9.5q29 0 49 12t31 37h165q-11 -47 -44 -87t-82.5 -64t-113.5 -24zM170 297h194q0 41 -27 64
t-68 23q-40 0 -66 -23.5t-33 -63.5zM329 563q-28 0 -47 11.5t-36 23t-41 11.5q-17 0 -27 -11t-14 -34h-77q11 72 43 105.5t80 33.5q29 0 47.5 -11.5t35.5 -22.5t40 -11q17 0 27.5 11t13.5 34h77q-10 -74 -42.5 -107t-79.5 -33z" />
    <glyph glyph-name="Ygrave" unicode="&#x1ef2;" horiz-adv-x="622" 
d="M233 0v291l-240 409h179l141 -249l140 249h176l-239 -409v-291h-157zM430 739l-237 102v125l237 -119v-108z" />
    <glyph glyph-name="ygrave" unicode="&#x1ef3;" horiz-adv-x="533" 
d="M80 -220l107 237l-202 479h170l115 -310l114 310h164l-304 -716h-164zM385 527l-237 102v125l237 -119v-108z" />
    <glyph glyph-name="uni1EF8" unicode="&#x1ef8;" horiz-adv-x="622" 
d="M233 0v291l-240 409h179l141 -249l140 249h176l-239 -409v-291h-157zM371 749q-28 0 -47 11.5t-36 23t-41 11.5q-33 0 -41 -45h-77q11 72 43 105.5t80 33.5q29 0 47.5 -11.5t35.5 -22.5t40 -11q17 0 27.5 11t13.5 34h77q-10 -74 -42.5 -107t-79.5 -33z" />
    <glyph glyph-name="uni1EF9" unicode="&#x1ef9;" horiz-adv-x="533" 
d="M80 -220l107 237l-202 479h170l115 -310l114 310h164l-304 -716h-164zM327 563q-28 0 -47 11.5t-36 23t-41 11.5q-17 0 -27 -11t-14 -34h-77q11 72 43 105.5t80 33.5q29 0 47.5 -11.5t35.5 -22.5t40 -11q17 0 27.5 11t13.5 34h77q-10 -74 -42.5 -107t-79.5 -33z" />
    <glyph glyph-name="endash" unicode="&#x2013;" horiz-adv-x="653" 
d="M51 223v131h550v-131h-550z" />
    <glyph glyph-name="emdash" unicode="&#x2014;" horiz-adv-x="883" 
d="M51 223v131h781v-131h-781z" />
    <glyph glyph-name="quoteleft" unicode="&#x2018;" horiz-adv-x="299" 
d="M36 439l110 261h105l-53 -261h-162z" />
    <glyph glyph-name="quoteright" unicode="&#x2019;" horiz-adv-x="298" 
d="M46 439l53 261h163l-109 -261h-107z" />
    <glyph glyph-name="quotesinglbase" unicode="&#x201a;" horiz-adv-x="277" 
d="M22 -108l54 262h162l-109 -262h-107z" />
    <glyph glyph-name="quotedblleft" unicode="&#x201c;" horiz-adv-x="513" 
d="M253 439l110 261h105l-54 -261h-161zM36 439l110 261h105l-53 -261h-162z" />
    <glyph glyph-name="quotedblright" unicode="&#x201d;" horiz-adv-x="513" 
d="M262 440l53 261h162l-110 -261h-105zM45 440l54 261h161l-110 -261h-105z" />
    <glyph glyph-name="quotedblbase" unicode="&#x201e;" horiz-adv-x="492" 
d="M22 -108l54 262h162l-109 -262h-107zM238 -108l54 262h161l-109 -262h-106z" />
    <glyph glyph-name="dagger" unicode="&#x2020;" horiz-adv-x="634" 
d="M237 -266l17 714l-205 -12v120l205 -13l-17 245h158l-16 -245l207 13v-120l-207 12l16 -714h-158z" />
    <glyph glyph-name="daggerdbl" unicode="&#x2021;" horiz-adv-x="635" 
d="M237 -266l18 245l-206 -13v120l206 -11v373l-206 -12v120l206 -13l-18 245h158l-14 -245l206 13v-120l-206 12v-373l206 11v-120l-206 13l14 -245h-158z" />
    <glyph glyph-name="bullet" unicode="&#x2022;" horiz-adv-x="395" 
d="M196 188q-39 0 -72 19.5t-53 52.5t-20 73q0 41 20 74t53 52.5t72 19.5q42 0 75 -19.5t52 -52.5t19 -74t-19 -74t-52 -52t-75 -19z" />
    <glyph glyph-name="ellipsis" unicode="&#x2026;" horiz-adv-x="732" 
d="M599 -17q-40 0 -67.5 28t-27.5 67t27.5 67t67.5 28q39 0 66.5 -28t27.5 -67t-27.5 -67t-66.5 -28zM134 -17q-40 0 -67 28t-27 67t27 67t67 28q39 0 67 -28t28 -67t-28 -67t-67 -28zM366 -17q-40 0 -67 28t-27 67t27 67t67 28t68 -28t28 -67t-28 -67t-68 -28z" />
    <glyph glyph-name="perthousand" unicode="&#x2030;" horiz-adv-x="1295" 
d="M190 0l387 700h152l-387 -700h-152zM214 357q-49 0 -88 21.5t-63 61.5q-23 41 -23 95q0 55 23 94.5t62 61.5q39 21 90 21q48 0 86.5 -22t61.5 -60q12 -20 18.5 -43.5t6.5 -51.5q0 -55 -23.5 -95.5t-61.5 -60.5q-38 -22 -89 -22zM214 458q26 0 41.5 19.5t15.5 57.5t-16 58
t-42 20q-25 0 -40.5 -20t-15.5 -58t15.5 -57.5t41.5 -19.5zM704 -12q-49 0 -88 21.5t-63 61.5q-23 41 -23 95q0 55 23 94.5t62 61.5q39 21 90 21q48 0 86.5 -22t61.5 -60q12 -20 18.5 -43.5t6.5 -51.5q0 -55 -23.5 -95.5t-61.5 -60.5q-38 -22 -89 -22zM704 89
q26 0 41.5 19.5t15.5 57.5t-16 58t-42 20q-25 0 -40.5 -20t-15.5 -58t15.5 -57.5t41.5 -19.5zM1081 -12q-49 0 -88 21.5t-63 61.5q-23 41 -23 96q0 54 23 93.5t62 61.5q39 21 90 21q48 0 86.5 -22t61.5 -60q12 -20 18.5 -43.5t6.5 -51.5q0 -55 -23.5 -95.5t-61.5 -60.5
q-38 -22 -89 -22zM1081 89q26 0 41.5 19.5t15.5 57.5t-16 58t-41 20q-26 0 -41.5 -20t-15.5 -58t15.5 -57.5t41.5 -19.5z" />
    <glyph glyph-name="guilsinglleft" unicode="&#x2039;" horiz-adv-x="322" 
d="M128 120l-87 175l87 175h144l-88 -175l88 -175h-144z" />
    <glyph glyph-name="guilsinglright" unicode="&#x203a;" horiz-adv-x="322" 
d="M50 120l88 175l-88 175h146l86 -175l-86 -175h-146z" />
    <glyph glyph-name="fraction" unicode="&#x2044;" horiz-adv-x="618" 
d="M-7 0l521 700h116l-520 -700h-117z" />
    <glyph glyph-name="uni2070" unicode="&#x2070;" horiz-adv-x="324" 
d="M162 342q-50 0 -80 25.5t-42.5 67t-12.5 89.5t13 89.5t43 66.5t79 25q51 0 80.5 -25t42 -66.5t12.5 -89.5t-12.5 -89.5t-42 -67t-80.5 -25.5zM162 421q18 0 28.5 11.5t14.5 29t5 34.5t1 28q0 15 -2 39t-12 43.5t-35 19.5q-6 0 -18 -4t-22 -25t-10 -73t10 -73.5t22 -25.5
t18 -4z" />
    <glyph glyph-name="uni2074" unicode="&#x2074;" horiz-adv-x="312" 
d="M175 347v61h-157v64l114 228h88l-106 -214h65v81h82v-81h37v-78h-37v-61h-86z" />
    <glyph glyph-name="uni2075" unicode="&#x2075;" horiz-adv-x="312" 
d="M156 342q-55 0 -91 27t-42 87h86q3 -18 16 -28t31 -10q20 0 33.5 14.5t13.5 39.5q0 23 -12.5 37t-33.5 14q-17 0 -28.5 -7.5t-21.5 -28.5h-81l33 213h204v-77h-138l-9 -43q10 6 23.5 9.5t32.5 3.5q54 0 84 -35t30 -86q0 -55 -36 -92.5t-94 -37.5z" />
    <glyph glyph-name="uni2076" unicode="&#x2076;" horiz-adv-x="312" 
d="M165 342q-49 0 -79 24t-44.5 63t-14.5 83q0 45 13 89.5t43 74t80 29.5q53 0 82.5 -30t34.5 -76h-81q-3 17 -12 24t-23 7q-25 0 -37.5 -21.5t-16.5 -52.5q14 14 30 19.5t34 5.5q22 0 47.5 -10.5t44.5 -35.5t19 -71q0 -33 -15 -61t-41.5 -44.5t-63.5 -16.5zM163 419
q17 0 29.5 12t12.5 32t-12 32.5t-31 12.5t-31 -12t-12 -32q0 -19 12.5 -32t31.5 -13z" />
    <glyph glyph-name="uni2077" unicode="&#x2077;" horiz-adv-x="318" 
d="M65 345l130 277h-168v76h264v-57l-136 -296h-90z" />
    <glyph glyph-name="uni2078" unicode="&#x2078;" horiz-adv-x="306" 
d="M153 342q-34 0 -64 13t-48 37t-18 56q0 30 11 52t39 38q-20 15 -29.5 31.5t-9.5 41.5q0 46 33.5 70t85.5 24q24 0 51.5 -8t47 -28.5t19.5 -57.5q0 -32 -15 -49.5t-25 -23.5q30 -16 41 -38t11 -52q0 -34 -18 -58t-47.5 -36t-64.5 -12zM152 418q20 0 31.5 9t11.5 29
q0 19 -10 29.5t-33 10.5q-19 0 -29.5 -10.5t-10.5 -29.5q0 -20 11 -29t29 -9zM152 566q17 0 25.5 9t8.5 22q0 16 -8 25t-26 9q-33 0 -33 -34q0 -13 8.5 -22t24.5 -9z" />
    <glyph glyph-name="uni2079" unicode="&#x2079;" horiz-adv-x="312" 
d="M149 342q-53 0 -82.5 30t-34.5 76h81q3 -16 12 -23.5t23 -7.5q25 0 37.5 21.5t16.5 52.5q-14 -13 -30 -19t-34 -6q-21 0 -47 10.5t-45 36t-19 70.5q0 34 15 61.5t42 44t63 16.5q49 0 79 -24t44.5 -62.5t14.5 -83.5t-13 -89.5t-43 -74t-80 -29.5zM150 539q19 0 31 12.5
t12 31.5q0 20 -12 32.5t-32 12.5q-17 0 -29.5 -12t-12.5 -32q0 -19 12 -32t31 -13z" />
    <glyph glyph-name="uni2080" unicode="&#x2080;" horiz-adv-x="324" 
d="M162 -5q-50 0 -80 25.5t-42.5 67t-12.5 89.5t13 89.5t43 66.5t79 25q51 0 80.5 -25t42 -66.5t12.5 -89.5t-12.5 -89.5t-42 -67t-80.5 -25.5zM162 74q18 0 28.5 11.5t14.5 29t5 34.5t1 28q0 15 -2 39t-12 43.5t-35 19.5q-6 0 -18 -4t-22 -25t-10 -73t10 -73.5t22 -25.5
t18 -4z" />
    <glyph glyph-name="uni2081" unicode="&#x2081;" horiz-adv-x="316" 
d="M39 0v77h86v181l-83 -20v71l120 44h46v-276h78v-77h-247z" />
    <glyph glyph-name="uni2082" unicode="&#x2082;" horiz-adv-x="311" 
d="M28 0v60l11.5 12t28.5 29.5t35.5 37t33 34.5t19.5 20q11 11 21 24t10 29q0 17 -8.5 26.5t-25.5 9.5q-24 0 -32 -15t-8 -30h-83q2 57 35 89t88 32q49 0 83 -26.5t34 -85.5q0 -34 -18.5 -60t-47.5 -55l-53 -54h129v-77h-252z" />
    <glyph glyph-name="uni2083" unicode="&#x2083;" horiz-adv-x="312" 
d="M156 -5q-56 0 -94 31t-36 87h83q0 -20 13 -30.5t34 -10.5q23 0 35 11t12 32t-14 32t-33 11q-7 0 -15 -2.5t-21 -11.5l-48 56l89 76h-126v77h239v-68l-72 -59q40 -12 62 -40t22 -69q0 -54 -35 -88t-95 -34z" />
    <glyph glyph-name="uni2084" unicode="&#x2084;" horiz-adv-x="312" 
d="M175 0v61h-157v64l114 228h88l-106 -214h65v81h82v-81h37v-78h-37v-61h-86z" />
    <glyph glyph-name="uni2085" unicode="&#x2085;" horiz-adv-x="312" 
d="M156 -5q-55 0 -91 27t-42 87h86q3 -18 16 -28t31 -10q20 0 33.5 14.5t13.5 39.5q0 23 -12.5 37t-33.5 14q-17 0 -28.5 -7.5t-21.5 -28.5h-81l33 213h204v-77h-138l-9 -43q10 6 23.5 9.5t32.5 3.5q54 0 84 -35t30 -86q0 -55 -36 -92.5t-94 -37.5z" />
    <glyph glyph-name="uni2086" unicode="&#x2086;" horiz-adv-x="312" 
d="M165 -5q-49 0 -79 24t-44.5 63t-14.5 83q0 45 13 89.5t43 74t80 29.5q53 0 82.5 -30t34.5 -76h-81q-3 17 -12 24t-23 7q-25 0 -37.5 -21.5t-16.5 -52.5q14 14 30 19.5t34 5.5q22 0 47.5 -10.5t44.5 -35.5t19 -71q0 -33 -15 -61t-41.5 -44.5t-63.5 -16.5zM163 72
q17 0 29.5 12t12.5 32t-12 32.5t-31 12.5t-31 -12t-12 -32q0 -19 12.5 -32t31.5 -13z" />
    <glyph glyph-name="uni2087" unicode="&#x2087;" horiz-adv-x="318" 
d="M65 -2l130 277h-168v76h264v-57l-136 -296h-90z" />
    <glyph glyph-name="uni2088" unicode="&#x2088;" horiz-adv-x="306" 
d="M153 -5q-34 0 -64 13t-48 37t-18 56q0 30 11 52t39 38q-20 15 -29.5 31.5t-9.5 41.5q0 46 33.5 70t85.5 24q24 0 51.5 -8t47 -28.5t19.5 -57.5q0 -32 -15 -49.5t-25 -23.5q30 -16 41 -38t11 -52q0 -34 -18 -58t-47.5 -36t-64.5 -12zM152 71q20 0 31.5 9t11.5 29
q0 19 -10 29.5t-33 10.5q-19 0 -29.5 -10.5t-10.5 -29.5q0 -20 11 -29t29 -9zM152 219q17 0 25.5 9t8.5 22q0 16 -8 25t-26 9q-33 0 -33 -34q0 -13 8.5 -22t24.5 -9z" />
    <glyph glyph-name="uni2089" unicode="&#x2089;" horiz-adv-x="312" 
d="M149 -5q-53 0 -82.5 30t-34.5 76h81q3 -16 12 -23.5t23 -7.5q25 0 37.5 21.5t16.5 52.5q-14 -13 -30 -19t-34 -6q-21 0 -47 10.5t-45 36t-19 70.5q0 34 15 61.5t42 44t63 16.5q49 0 79 -24t44.5 -62.5t14.5 -83.5t-13 -89.5t-43 -74t-80 -29.5zM150 192q19 0 31 12.5
t12 31.5q0 20 -12 32.5t-32 12.5q-17 0 -29.5 -12t-12.5 -32q0 -19 12 -32t31 -13z" />
    <glyph glyph-name="uni20A8" unicode="&#x20a8;" horiz-adv-x="1030" 
d="M47 0v700h267q72 0 127 -25t86 -71.5t31 -110.5q0 -70 -38 -117t-105 -67l191 -309h-182l-167 285h-52v-285h-158zM205 419h106q37 0 55.5 11.5t25.5 28.5t7 34t-7 33.5t-25.5 27.5t-55.5 11h-106v-146zM809 -12q-54 0 -106.5 19.5t-87.5 58t-39 95.5h153
q4 -28 26.5 -43.5t51.5 -15.5q24 0 42.5 9.5t18.5 31.5q0 18 -17 28.5t-39.5 16.5t-39.5 10q-47 12 -88 27t-66.5 44t-25.5 82q0 51 28 86t75 53t103 18q88 0 145.5 -43.5t67.5 -128.5h-143q-5 30 -25 43.5t-50 13.5q-22 0 -39 -8.5t-17 -30.5q0 -18 16.5 -28.5t38.5 -15.5
t40 -10q48 -12 88.5 -28t66.5 -45.5t27 -84.5q0 -49 -28.5 -83.5t-75 -52.5t-101.5 -18z" />
    <glyph glyph-name="Euro" unicode="&#x20ac;" horiz-adv-x="800" 
d="M438 -12q-130 0 -215.5 67t-114.5 179h-88v84h76q-1 8 -1.5 15.5t-0.5 14.5q0 9 0.5 16.5t1.5 14.5h-76v87h89q29 112 114 179t215 67t214 -65.5t103 -185.5h-173q-10 51 -48 79t-97 28q-61 0 -100.5 -27t-62.5 -75h178v-87h-197q-1 -7 -0.5 -15t0.5 -16t-0.5 -15.5
t0.5 -14.5h197v-84h-178q20 -50 61 -77t102 -27q59 0 97 25.5t48 72.5h173q-19 -112 -103 -176t-214 -64z" />
    <glyph glyph-name="uni20BD" unicode="&#x20bd;" horiz-adv-x="681" 
d="M114 0v86h-92v137h92v46h-92v136h92v296h285q72 0 129.5 -25.5t91 -73.5t33.5 -116q0 -67 -32.5 -115.5t-90 -75t-131.5 -26.5h-128v-46h166v-137h-166v-86h-157zM271 405h123q56 0 77.5 23t21.5 58q0 32 -21.5 54.5t-77.5 22.5h-123v-158z" />
    <glyph glyph-name="uni2113" unicode="&#x2113;" horiz-adv-x="285" 
d="M64 -100v820h157v-820h-157z" />
    <glyph glyph-name="trademark" unicode="&#x2122;" horiz-adv-x="766" 
d="M369 350v350h85l92 -198l87 198h88v-350h-85v176l-59 -135h-63l-58 135v-176h-87zM130 350v275h-103v75h292v-75h-105v-275h-84z" />
    <glyph glyph-name="uni2126" unicode="&#x2126;" horiz-adv-x="787" 
d="M43 0v119h99q-57 49 -81.5 112t-24.5 136q0 78 27 141t76 109t114 70.5t141 24.5t141 -24.5t114 -70t76 -109t27 -141.5q0 -73 -24 -136t-83 -112h100v-119h-270v124q30 21 56.5 51.5t43.5 73.5t17 100q0 53 -14 93.5t-40.5 68.5t-62.5 42.5t-81 14.5q-52 0 -89.5 -18.5
t-61.5 -49.5t-35 -70t-11 -81q0 -54 15.5 -97t42 -74.5t58.5 -53.5v-124h-270z" />
    <glyph glyph-name="estimated" unicode="&#x212e;" horiz-adv-x="750" 
d="M383 -12q-99 0 -177.5 40.5t-124.5 116.5q-48 76 -48 188q0 107 40 193.5t115 136.5q77 49 186 49q84 0 147.5 -27t106.5 -75q43 -47 65 -106.5t22 -123.5v-63h-498v-176q34 -29 75 -44.5t91 -15.5q76 0 134.5 30t113.5 85l56 -66q-64 -67 -139 -104.5t-165 -37.5z
M217 401h313v170q-29 26 -67 37.5t-89 11.5q-52 0 -90 -15t-67 -41v-163z" />
    <glyph glyph-name="oneeighth" unicode="&#x215b;" horiz-adv-x="767" 
d="M70 -2l520 700h116l-520 -700h-116zM32 347v77h86v181l-83 -20v70l120 45h46v-276h78v-77h-247zM595 71q20 0 31.5 9t11.5 29q0 19 -10 29.5t-33 10.5q-19 0 -29.5 -10.5t-10.5 -29.5q0 -20 11 -29t29 -9zM596 -5q-34 0 -64 13t-48 37t-18 56q0 30 11 52t39 38
q-20 15 -29.5 31.5t-9.5 41.5q0 46 33.5 70t85.5 24q24 0 51.5 -8t47 -28.5t19.5 -57.5q0 -32 -15 -49.5t-25 -23.5q30 -16 41 -38t11 -52q0 -34 -18 -58t-47.5 -36t-64.5 -12zM595 219q17 0 25.5 9t8.5 22q0 16 -8 25t-26 9q-33 0 -33 -34q0 -13 8.5 -22t24.5 -9z" />
    <glyph glyph-name="threeeighths" unicode="&#x215c;" horiz-adv-x="759" 
d="M66 -2l521 700h116l-520 -700h-117zM170 342q-56 0 -94 31t-36 87h83q0 -20 13 -30.5t34 -10.5q23 0 35 11t12 32t-14 32t-33 11q-7 0 -15 -2.5t-21 -11.5l-48 56l89 76h-126v77h239v-68l-72 -59q40 -12 62 -40t22 -69q0 -54 -35 -88t-95 -34zM593 71q20 0 31.5 9
t11.5 29q0 19 -10 29.5t-33 10.5q-19 0 -29.5 -10.5t-10.5 -29.5q0 -20 11 -29t29 -9zM594 -5q-34 0 -64 13t-48 37t-18 56q0 30 11 52t39 38q-20 15 -29.5 31.5t-9.5 41.5q0 46 33.5 70t85.5 24q24 0 51.5 -8t47 -28.5t19.5 -57.5q0 -32 -15 -49.5t-25 -23.5q30 -16 41 -38
t11 -52q0 -34 -18 -58t-47.5 -36t-64.5 -12zM593 219q17 0 25.5 9t8.5 22q0 16 -8 25t-26 9q-33 0 -33 -34q0 -13 8.5 -22t24.5 -9z" />
    <glyph glyph-name="fiveeighths" unicode="&#x215d;" horiz-adv-x="757" 
d="M63 -2l520 700h118l-520 -700h-118zM169 342q-55 0 -91 27t-42 87h86q3 -18 16 -28t31 -10q20 0 33.5 14.5t13.5 39.5q0 23 -12.5 37t-33.5 14q-17 0 -28.5 -7.5t-21.5 -28.5h-81l33 213h204v-77h-138l-9 -43q10 6 23.5 9.5t32.5 3.5q54 0 84 -35t30 -86q0 -55 -36 -92.5
t-94 -37.5zM594 71q20 0 31.5 9t11.5 29q0 19 -10 29.5t-33 10.5q-19 0 -29.5 -10.5t-10.5 -29.5q0 -20 11 -29t29 -9zM595 -5q-34 0 -64 13t-48 37t-18 56q0 30 11 52t39 38q-20 15 -29.5 31.5t-9.5 41.5q0 46 33.5 70t85.5 24q24 0 51.5 -8t47 -28.5t19.5 -57.5
q0 -32 -15 -49.5t-25 -23.5q30 -16 41 -38t11 -52q0 -34 -18 -58t-47.5 -36t-64.5 -12zM594 219q17 0 25.5 9t8.5 22q0 16 -8 25t-26 9q-33 0 -33 -34q0 -13 8.5 -22t24.5 -9z" />
    <glyph glyph-name="seveneighths" unicode="&#x215e;" horiz-adv-x="742" 
d="M35 -2l520 700h118l-520 -700h-118zM583 71q20 0 31.5 9t11.5 29q0 19 -10 29.5t-33 10.5q-19 0 -29.5 -10.5t-10.5 -29.5q0 -20 11 -29t29 -9zM84 345l130 277h-168v76h264v-57l-136 -296h-90zM584 -5q-34 0 -64 13t-48 37t-18 56q0 30 11 52t39 38q-20 15 -29.5 31.5
t-9.5 41.5q0 46 33.5 70t85.5 24q24 0 51.5 -8t47 -28.5t19.5 -57.5q0 -32 -15 -49.5t-25 -23.5q30 -16 41 -38t11 -52q0 -34 -18 -58t-47.5 -36t-64.5 -12zM583 219q17 0 25.5 9t8.5 22q0 16 -8 25t-26 9q-33 0 -33 -34q0 -13 8.5 -22t24.5 -9z" />
    <glyph glyph-name="partialdiff" unicode="&#x2202;" horiz-adv-x="607" 
d="M262 -7q-60 0 -112 27t-84 83q-30 56 -30 141q0 69 20.5 126.5t57.5 100t86 66t107 23.5q34 0 63.5 -12t50.5 -42q-5 44 -22.5 76t-49.5 50q-31 19 -78 19q-13 0 -31 -1.5t-37 -6.5v81q32 10 59.5 13t53.5 3q125 0 191 -89.5t66 -244.5q0 -130 -39 -222t-109 -142
q-72 -49 -163 -49zM279 127q38 0 66 25.5t44 68.5q14 44 14 97q0 56 -23 83.5t-62 27.5q-37 0 -65.5 -24.5t-42.5 -65.5q-16 -39 -16 -93q0 -63 24 -91t61 -28z" />
    <glyph glyph-name="uni2206" unicode="&#x2206;" horiz-adv-x="722" 
d="M18 0v120l279 580h128l278 -580v-120h-685zM180 120h362l-182 402z" />
    <glyph glyph-name="product" unicode="&#x220f;" horiz-adv-x="743" 
d="M94 0v581h-70v119h697v-119h-72v-581h-157v581h-241v-581h-157z" />
    <glyph glyph-name="summation" unicode="&#x2211;" horiz-adv-x="522" 
d="M44 -51l2 185l239 199l-239 184l2 183h445v-120h-321l262 -192v-111l-255 -208h312v-120h-447z" />
    <glyph glyph-name="minus" unicode="&#x2212;" horiz-adv-x="600" 
d="M83 223v131h435v-131h-435z" />
    <glyph glyph-name="uni2215" unicode="&#x2215;" horiz-adv-x="441" 
d="M20 -122l249 908h153l-251 -908h-151z" />
    <glyph glyph-name="radical" unicode="&#x221a;" horiz-adv-x="829" 
d="M288 -41l-145 257l-79 -46l-44 74l216 127l131 -233l423 760h96l-522 -939h-76z" />
    <glyph glyph-name="infinity" unicode="&#x221e;" horiz-adv-x="765" 
d="M203 119q-74 0 -123.5 44t-49.5 121q0 54 24 92.5t64.5 59t89.5 20.5q62 0 104.5 -27.5t73.5 -65.5q28 41 71.5 66.5t104.5 26.5q74 0 123 -44t49 -121q0 -56 -24 -94.5t-64 -58t-90 -19.5q-61 0 -103.5 26.5t-75.5 61.5q-29 -37 -73 -62t-101 -26zM217 225q28 0 53 14
t45 41q-26 30 -49 50.5t-52 20.5q-25 0 -42 -17t-17 -46q0 -31 18 -47t44 -16zM546 224q29 0 46 17t17 47t-17 46t-44 16q-29 0 -56 -17t-47 -47q23 -25 46.5 -43.5t54.5 -18.5z" />
    <glyph glyph-name="integral" unicode="&#x222b;" horiz-adv-x="286" 
d="M-48 -254l14 133h17q18 0 27 10.5t12 33.5l88 839q6 68 34.5 106.5t73.5 54t100 15.5h19l-14 -134h-17q-17 0 -27 -10.5t-12 -31.5l-88 -839q-7 -68 -35.5 -106.5t-73 -54.5t-101.5 -16h-17z" />
    <glyph glyph-name="approxequal" unicode="&#x2248;" horiz-adv-x="600" 
d="M389 312q-29 0 -53.5 10t-46.5 23.5t-43.5 23.5t-44.5 10q-28 0 -43 -15t-21 -51h-116q18 109 68.5 157t120.5 48q30 0 54.5 -10t46.5 -23t43.5 -23t44.5 -10q26 0 42.5 16t20.5 50h118q-18 -109 -68 -157.5t-123 -48.5zM389 70q-29 0 -53.5 10t-46.5 23.5t-43.5 23.5
t-44.5 10q-28 0 -43 -15t-21 -51h-116q18 109 68.5 157t120.5 48q30 0 54.5 -10t46.5 -23t43.5 -23t44.5 -10q26 0 42.5 16t20.5 50h118q-18 -109 -68 -157.5t-123 -48.5z" />
    <glyph glyph-name="notequal" unicode="&#x2260;" horiz-adv-x="600" 
d="M109 37l36 67h-65v139h138l47 92h-185v138h258l37 67h116l-35 -67h65v-138h-138l-48 -92h186v-139h-258l-36 -67h-118z" />
    <glyph glyph-name="lessequal" unicode="&#x2264;" horiz-adv-x="600" 
d="M306 203l-210 185l210 187h198l-209 -185l209 -187h-198zM110 14v121h391v-121h-391z" />
    <glyph glyph-name="greaterequal" unicode="&#x2265;" horiz-adv-x="600" 
d="M96 203l208 187l-208 185h197l211 -187l-211 -185h-197zM98 14v121h391v-121h-391z" />
    <glyph glyph-name="lozenge" unicode="&#x25ca;" horiz-adv-x="563" 
d="M283 93l-259 259l258 259l259 -259zM283 248l102 104l-103 104l-103 -104z" />
    <glyph glyph-name="uniA78B" unicode="&#xa78b;" horiz-adv-x="279" 
d="M72 211l-17 489h168l-18 -489h-133z" />
    <glyph glyph-name="uniA78C" unicode="&#xa78c;" horiz-adv-x="279" 
d="M77 318l-22 382h168l-23 -382h-123z" />
    <glyph glyph-name="uni004A0301" horiz-adv-x="521" 
d="M248 -12q-106 0 -172.5 60.5t-66.5 174.5h156q2 -46 22 -70.5t57 -24.5q35 0 53.5 22.5t18.5 62.5v487h157v-487q0 -109 -61 -167t-164 -58zM278 739v108l237 119v-125z" />
    <glyph glyph-name="i.loclTRK" horiz-adv-x="214" 
d="M29 0v496h154v-496h-154zM105 540q-37 0 -65.5 27.5t-28.5 67.5q0 41 28.5 68t65.5 27q41 0 69 -27t28 -68q0 -40 -28 -67.5t-69 -27.5z" />
    <glyph glyph-name="uni006A0301" horiz-adv-x="219" 
d="M-50 -220v131h37q23 0 35 9.5t12 32.5v543h154v-541q0 -60 -20.5 -98.5t-60 -57.5t-97.5 -19h-60zM-10 527v108l237 119v-125z" />
    <glyph glyph-name="zero.dnom" horiz-adv-x="324" 
d="M162 -5q-50 0 -80 25.5t-42.5 67t-12.5 89.5t13 89.5t43 66.5t79 25q51 0 80.5 -25t42 -66.5t12.5 -89.5t-12.5 -89.5t-42 -67t-80.5 -25.5zM162 74q18 0 28.5 11.5t14.5 29t5 34.5t1 28q0 15 -2 39t-12 43.5t-35 19.5q-6 0 -18 -4t-22 -25t-10 -73t10 -73.5t22 -25.5
t18 -4z" />
    <glyph glyph-name="one.dnom" horiz-adv-x="316" 
d="M39 0v77h86v181l-83 -20v71l120 44h46v-276h78v-77h-247z" />
    <glyph glyph-name="two.dnom" horiz-adv-x="311" 
d="M28 0v60l11.5 12t28.5 29.5t35.5 37t33 34.5t19.5 20q11 11 21 24t10 29q0 17 -8.5 26.5t-25.5 9.5q-24 0 -32 -15t-8 -30h-83q2 57 35 89t88 32q49 0 83 -26.5t34 -85.5q0 -34 -18.5 -60t-47.5 -55l-53 -54h129v-77h-252z" />
    <glyph glyph-name="three.dnom" horiz-adv-x="312" 
d="M156 -5q-56 0 -94 31t-36 87h83q0 -20 13 -30.5t34 -10.5q23 0 35 11t12 32t-14 32t-33 11q-7 0 -15 -2.5t-21 -11.5l-48 56l89 76h-126v77h239v-68l-72 -59q40 -12 62 -40t22 -69q0 -54 -35 -88t-95 -34z" />
    <glyph glyph-name="four.dnom" horiz-adv-x="312" 
d="M175 0v61h-157v64l114 228h88l-106 -214h65v81h82v-81h37v-78h-37v-61h-86z" />
    <glyph glyph-name="five.dnom" horiz-adv-x="312" 
d="M156 -5q-55 0 -91 27t-42 87h86q3 -18 16 -28t31 -10q20 0 33.5 14.5t13.5 39.5q0 23 -12.5 37t-33.5 14q-17 0 -28.5 -7.5t-21.5 -28.5h-81l33 213h204v-77h-138l-9 -43q10 6 23.5 9.5t32.5 3.5q54 0 84 -35t30 -86q0 -55 -36 -92.5t-94 -37.5z" />
    <glyph glyph-name="six.dnom" horiz-adv-x="312" 
d="M165 -5q-49 0 -79 24t-44.5 63t-14.5 83q0 45 13 89.5t43 74t80 29.5q53 0 82.5 -30t34.5 -76h-81q-3 17 -12 24t-23 7q-25 0 -37.5 -21.5t-16.5 -52.5q14 14 30 19.5t34 5.5q22 0 47.5 -10.5t44.5 -35.5t19 -71q0 -33 -15 -61t-41.5 -44.5t-63.5 -16.5zM163 72
q17 0 29.5 12t12.5 32t-12 32.5t-31 12.5t-31 -12t-12 -32q0 -19 12.5 -32t31.5 -13z" />
    <glyph glyph-name="seven.dnom" horiz-adv-x="318" 
d="M65 -2l130 277h-168v76h264v-57l-136 -296h-90z" />
    <glyph glyph-name="eight.dnom" horiz-adv-x="306" 
d="M153 -5q-34 0 -64 13t-48 37t-18 56q0 30 11 52t39 38q-20 15 -29.5 31.5t-9.5 41.5q0 46 33.5 70t85.5 24q24 0 51.5 -8t47 -28.5t19.5 -57.5q0 -32 -15 -49.5t-25 -23.5q30 -16 41 -38t11 -52q0 -34 -18 -58t-47.5 -36t-64.5 -12zM152 71q20 0 31.5 9t11.5 29
q0 19 -10 29.5t-33 10.5q-19 0 -29.5 -10.5t-10.5 -29.5q0 -20 11 -29t29 -9zM152 219q17 0 25.5 9t8.5 22q0 16 -8 25t-26 9q-33 0 -33 -34q0 -13 8.5 -22t24.5 -9z" />
    <glyph glyph-name="nine.dnom" horiz-adv-x="312" 
d="M149 -5q-53 0 -82.5 30t-34.5 76h81q3 -16 12 -23.5t23 -7.5q25 0 37.5 21.5t16.5 52.5q-14 -13 -30 -19t-34 -6q-21 0 -47 10.5t-45 36t-19 70.5q0 34 15 61.5t42 44t63 16.5q49 0 79 -24t44.5 -62.5t14.5 -83.5t-13 -89.5t-43 -74t-80 -29.5zM150 192q19 0 31 12.5
t12 31.5q0 20 -12 32.5t-32 12.5q-17 0 -29.5 -12t-12.5 -32q0 -19 12 -32t31 -13z" />
    <glyph glyph-name="zero.numr" horiz-adv-x="324" 
d="M162 342q-50 0 -80 25.5t-42.5 67t-12.5 89.5t13 89.5t43 66.5t79 25q51 0 80.5 -25t42 -66.5t12.5 -89.5t-12.5 -89.5t-42 -67t-80.5 -25.5zM162 421q18 0 28.5 11.5t14.5 29t5 34.5t1 28q0 15 -2 39t-12 43.5t-35 19.5q-6 0 -18 -4t-22 -25t-10 -73t10 -73.5t22 -25.5
t18 -4z" />
    <glyph glyph-name="one.numr" horiz-adv-x="316" 
d="M39 347v77h86v181l-83 -20v71l120 44h46v-276h78v-77h-247z" />
    <glyph glyph-name="two.numr" horiz-adv-x="311" 
d="M28 347v60l11.5 12t28.5 29.5t35.5 37t33 34.5t19.5 20q11 11 21 24t10 29q0 17 -8.5 26.5t-25.5 9.5q-24 0 -32 -15t-8 -30h-83q2 57 35 89t88 32q49 0 83 -26.5t34 -85.5q0 -34 -18.5 -60t-47.5 -55l-53 -54h129v-77h-252z" />
    <glyph glyph-name="three.numr" horiz-adv-x="312" 
d="M156 342q-56 0 -94 31t-36 87h83q0 -20 13 -30.5t34 -10.5q23 0 35 11t12 32t-14 32t-33 11q-7 0 -15 -2.5t-21 -11.5l-48 56l89 76h-126v77h239v-68l-72 -59q40 -12 62 -40t22 -69q0 -54 -35 -88t-95 -34z" />
    <glyph glyph-name="four.numr" horiz-adv-x="312" 
d="M175 347v61h-157v64l114 228h88l-106 -214h65v81h82v-81h37v-78h-37v-61h-86z" />
    <glyph glyph-name="five.numr" horiz-adv-x="312" 
d="M156 342q-55 0 -91 27t-42 87h86q3 -18 16 -28t31 -10q20 0 33.5 14.5t13.5 39.5q0 23 -12.5 37t-33.5 14q-17 0 -28.5 -7.5t-21.5 -28.5h-81l33 213h204v-77h-138l-9 -43q10 6 23.5 9.5t32.5 3.5q54 0 84 -35t30 -86q0 -55 -36 -92.5t-94 -37.5z" />
    <glyph glyph-name="six.numr" horiz-adv-x="312" 
d="M165 342q-49 0 -79 24t-44.5 63t-14.5 83q0 45 13 89.5t43 74t80 29.5q53 0 82.5 -30t34.5 -76h-81q-3 17 -12 24t-23 7q-25 0 -37.5 -21.5t-16.5 -52.5q14 14 30 19.5t34 5.5q22 0 47.5 -10.5t44.5 -35.5t19 -71q0 -33 -15 -61t-41.5 -44.5t-63.5 -16.5zM163 419
q17 0 29.5 12t12.5 32t-12 32.5t-31 12.5t-31 -12t-12 -32q0 -19 12.5 -32t31.5 -13z" />
    <glyph glyph-name="seven.numr" horiz-adv-x="318" 
d="M65 345l130 277h-168v76h264v-57l-136 -296h-90z" />
    <glyph glyph-name="eight.numr" horiz-adv-x="306" 
d="M153 342q-34 0 -64 13t-48 37t-18 56q0 30 11 52t39 38q-20 15 -29.5 31.5t-9.5 41.5q0 46 33.5 70t85.5 24q24 0 51.5 -8t47 -28.5t19.5 -57.5q0 -32 -15 -49.5t-25 -23.5q30 -16 41 -38t11 -52q0 -34 -18 -58t-47.5 -36t-64.5 -12zM152 418q20 0 31.5 9t11.5 29
q0 19 -10 29.5t-33 10.5q-19 0 -29.5 -10.5t-10.5 -29.5q0 -20 11 -29t29 -9zM152 566q17 0 25.5 9t8.5 22q0 16 -8 25t-26 9q-33 0 -33 -34q0 -13 8.5 -22t24.5 -9z" />
    <glyph glyph-name="nine.numr" horiz-adv-x="312" 
d="M149 342q-53 0 -82.5 30t-34.5 76h81q3 -16 12 -23.5t23 -7.5q25 0 37.5 21.5t16.5 52.5q-14 -13 -30 -19t-34 -6q-21 0 -47 10.5t-45 36t-19 70.5q0 34 15 61.5t42 44t63 16.5q49 0 79 -24t44.5 -62.5t14.5 -83.5t-13 -89.5t-43 -74t-80 -29.5zM150 539q19 0 31 12.5
t12 31.5q0 20 -12 32.5t-32 12.5q-17 0 -29.5 -12t-12.5 -32q0 -19 12 -32t31 -13z" />
    <glyph glyph-name="periodcentered.loclCAT" horiz-adv-x="200" 
d="M100 243q-40 0 -67.5 27.5t-27.5 67.5q0 38 27.5 66.5t67.5 28.5q39 0 67 -28.5t28 -66.5q0 -40 -28 -67.5t-67 -27.5z" />
    <glyph glyph-name="periodcentered.loclCAT.case" 
d="M-135 255q-40 0 -67.5 27.5t-27.5 67.5q0 38 27.5 66.5t67.5 28.5q39 0 67 -28.5t28 -66.5q0 -40 -28 -67.5t-67 -27.5z" />
    <glyph glyph-name="at.case" horiz-adv-x="1018" 
d="M516 -84q-106 0 -189.5 34t-140.5 94t-87 137.5t-30 164.5q0 95 33.5 174.5t94 138t143 91t180.5 32.5q96 0 176.5 -30t140 -85t92 -129.5t32.5 -163.5q0 -76 -24.5 -133.5t-69.5 -90t-108 -32.5q-50 0 -85 23t-52 65q-22 -42 -58.5 -66t-88.5 -24q-62 0 -107.5 33
t-70 86t-24.5 112q0 62 25.5 114t71 83.5t104.5 31.5q39 0 76 -16.5t59 -54.5v61h125v-286q0 -26 10 -36t29 -10q30 0 46 24t22 56.5t6 57.5q0 96 -43.5 163.5t-117.5 103t-166 35.5q-70 0 -131 -23t-107.5 -66.5t-72.5 -104t-26 -134.5q0 -61 21 -118.5t62.5 -103.5
t104 -72.5t145.5 -26.5q50 0 96.5 10.5t88.5 32.5l35 -103q-21 -12 -48 -21t-59 -16q-57 -12 -113 -12zM505 230q47 0 75 33.5t28 82.5q0 32 -13.5 58.5t-36.5 43t-53 16.5q-42 0 -74 -31t-32 -85q0 -47 28.5 -82.5t77.5 -35.5z" />
    <glyph glyph-name="plus.case" horiz-adv-x="606" 
d="M237 97v179h-186v131h186v180h132v-180h184v-131h-184v-179h-132z" />
    <glyph glyph-name="uni030C.alt" 
d="M0 546l48 154h143l-92 -154h-99z" />
    <glyph glyph-name="uni0308.case" 
d="M95 759q-40 0 -67.5 27.5t-27.5 67.5q0 41 27.5 68t67.5 27q41 0 68 -27t27 -68q0 -40 -27 -67.5t-68 -27.5zM333 759q-40 0 -67.5 27.5t-27.5 67.5q0 41 27.5 68t67.5 27q41 0 68 -27t27 -68q0 -40 -27 -67.5t-68 -27.5z" />
    <glyph glyph-name="uni0307.case" 
d="M94 759q-37 0 -65.5 27.5t-28.5 67.5q0 41 28.5 68t65.5 27q41 0 69 -27t28 -68q0 -40 -28 -67.5t-69 -27.5z" />
    <glyph glyph-name="gravecomb.case" 
d="M238 739l-237 102v125l237 -119v-108z" />
    <glyph glyph-name="acutecomb.case" 
d="M0 739v108l237 119v-125z" />
    <glyph glyph-name="uni030B.case" 
d="M186 745l87 199h126l-117 -199h-96zM0 745l74 199h125l-102 -199h-97z" />
    <glyph glyph-name="uni030C.alt.case" 
d="M0 546l48 154h143l-92 -154h-99z" />
    <glyph glyph-name="uni0302.case" 
d="M0 742v109l152 79l152 -79v-109l-152 80z" />
    <glyph glyph-name="uni030C.case" 
d="M152 741l-152 78v110l152 -85l152 85v-110z" />
    <glyph glyph-name="uni0306.case" 
d="M165 746q-74 0 -119.5 42.5t-45.5 121.5v18h80q0 -32 18.5 -50t66.5 -18q50 0 68.5 18t18.5 50h79v-19q0 -79 -46 -121t-120 -42z" />
    <glyph glyph-name="uni030A.case" 
d="M118 744q-47 0 -82.5 32t-35.5 86q0 55 35.5 86.5t82.5 31.5q51 0 86.5 -31.5t35.5 -86.5q0 -54 -35.5 -86t-86.5 -32zM118 812q23 0 37 14t14 36q0 23 -14 37t-37 14q-19 0 -33 -14t-14 -37q0 -22 14 -36t33 -14z" />
    <glyph glyph-name="tildecomb.case" 
d="M242 749q-28 0 -47 11.5t-36 23t-41 11.5q-33 0 -41 -45h-77q11 72 43 105.5t80 33.5q29 0 47.5 -11.5t35.5 -22.5t40 -11q17 0 27.5 11t13.5 34h77q-10 -74 -42.5 -107t-79.5 -33z" />
    <glyph glyph-name="uni0304.case" 
d="M0 774v110h372v-110h-372z" />
    <glyph glyph-name="uni0327.case" 
d="M0 -266v88h125q43 0 43 28q0 29 -43 29h-69v138h96v-58q33 1 63 -11t49 -37t19 -63q0 -39 -20 -64t-51 -37.5t-65 -12.5h-147z" />
    <glyph glyph-name="uni0328.case" 
d="M143 -215q-59 0 -101 26.5t-42 83.5q0 43 33.5 81t122.5 77l41 18l35 -71l-48 -25q-36 -19 -52 -33.5t-16 -31.5q0 -16 12.5 -26t34.5 -10q33 0 75 15v-89q-19 -5 -44 -10t-51 -5z" />
    <glyph glyph-name="uni0308.narrow" 
d="M110 540q-39 0 -65 27.5t-26 67.5q0 41 26 68t65 27t65 -27t26 -68q0 -40 -26 -67.5t-65 -27.5zM318 540q-38 0 -64 27.5t-26 67.5q0 41 26 68t64 27q39 0 65 -27t26 -68q0 -40 -26 -67.5t-65 -27.5z" />
    </font>
</defs>
</svg>
